<mxfile host="Electron" agent="Mozilla/5.0 (Windows NT 10.0; Win64; x64) AppleWebKit/537.36 (KHTML, like Gecko) draw.io/26.1.1 Chrome/132.0.6834.210 Electron/34.3.3 Safari/537.36" version="26.1.1" pages="5">
  <diagram id="ItAhROsMZZZIootTb6YZ" name="00_Cover">
    <mxGraphModel dx="1050" dy="621" grid="1" gridSize="10" guides="1" tooltips="1" connect="1" arrows="1" fold="1" page="1" pageScale="1" pageWidth="850" pageHeight="1100" math="0" shadow="0">
      <root>
        <mxCell id="0" />
        <mxCell id="1" parent="0" />
        <mxCell id="22YflQM4wUS7B66htp8I-1" value="&lt;h1&gt;&lt;font&gt;Project K&lt;/font&gt;&lt;/h1&gt;" style="text;html=1;align=left;verticalAlign=middle;whiteSpace=wrap;rounded=0;fontSize=72;" parent="1" vertex="1">
          <mxGeometry x="40" y="290" width="640" height="110" as="geometry" />
        </mxCell>
        <mxCell id="Vrv7HuH3_AHhh5LHu28m-1" value="&lt;h1&gt;35-Key Ortholinear Split Type Ergonomic Keyboard&lt;/h1&gt;" style="text;html=1;align=left;verticalAlign=middle;whiteSpace=wrap;rounded=0;fontSize=12;" parent="1" vertex="1">
          <mxGeometry x="40" y="460" width="670" height="20" as="geometry" />
        </mxCell>
        <mxCell id="Vrv7HuH3_AHhh5LHu28m-2" value="&lt;h1&gt;&lt;span style=&quot;font-weight: normal;&quot;&gt;Design Plan&lt;/span&gt;&lt;/h1&gt;" style="text;html=1;align=left;verticalAlign=middle;whiteSpace=wrap;rounded=0;fontSize=12;fontStyle=0" parent="1" vertex="1">
          <mxGeometry x="40" y="500" width="520" height="20" as="geometry" />
        </mxCell>
        <mxCell id="Vrv7HuH3_AHhh5LHu28m-3" value="&lt;h1&gt;&lt;span style=&quot;font-weight: normal;&quot;&gt;Designer: &lt;/span&gt;Natsurii&lt;/h1&gt;&lt;div&gt;&lt;span style=&quot;font-weight: normal;&quot;&gt;Version v00.00.01_DRAFT&lt;/span&gt;&lt;/div&gt;&lt;div&gt;&lt;br&gt;&lt;/div&gt;&lt;div&gt;Revision Date: March 23, 2025&lt;/div&gt;" style="text;html=1;align=right;verticalAlign=middle;whiteSpace=wrap;rounded=0;fontSize=12;fontStyle=0" parent="1" vertex="1">
          <mxGeometry x="280" y="860" width="520" height="100" as="geometry" />
        </mxCell>
      </root>
    </mxGraphModel>
  </diagram>
  <diagram id="F0CcQK8g65zaCLjBgzZ-" name="01_Executive Summary">
    <mxGraphModel dx="1235" dy="771" grid="1" gridSize="10" guides="1" tooltips="1" connect="1" arrows="1" fold="1" page="1" pageScale="1" pageWidth="850" pageHeight="1100" math="0" shadow="0">
      <root>
        <mxCell id="0" />
        <mxCell id="1" parent="0" />
        <mxCell id="yuF0fZgmS5EFQuc6s0ET-1" value="&lt;h1&gt;Project K - Executive Summary&lt;/h1&gt;" style="text;html=1;align=left;verticalAlign=middle;whiteSpace=wrap;rounded=0;" vertex="1" parent="1">
          <mxGeometry x="40" y="85" width="390" height="30" as="geometry" />
        </mxCell>
        <mxCell id="yuF0fZgmS5EFQuc6s0ET-2" value="&lt;h5&gt;version 00.00.01_DRAFT&lt;/h5&gt;" style="text;html=1;align=right;verticalAlign=middle;whiteSpace=wrap;rounded=0;" vertex="1" parent="1">
          <mxGeometry x="483" y="95" width="320" height="10" as="geometry" />
        </mxCell>
        <mxCell id="yuF0fZgmS5EFQuc6s0ET-3" value="&lt;h5&gt;Revision Date: March 23, 2025&lt;/h5&gt;" style="text;html=1;align=right;verticalAlign=middle;whiteSpace=wrap;rounded=0;" vertex="1" parent="1">
          <mxGeometry x="483" y="111" width="320" height="10" as="geometry" />
        </mxCell>
        <mxCell id="yuF0fZgmS5EFQuc6s0ET-4" value="&lt;h5&gt;Author: Natsurii&lt;/h5&gt;" style="text;html=1;align=right;verticalAlign=middle;whiteSpace=wrap;rounded=0;" vertex="1" parent="1">
          <mxGeometry x="483" y="80" width="320" height="10" as="geometry" />
        </mxCell>
        <mxCell id="yuF0fZgmS5EFQuc6s0ET-5" value="&lt;h6&gt;Product Name&lt;/h6&gt;" style="text;strokeColor=none;fillColor=none;html=1;fontSize=24;fontStyle=1;verticalAlign=middle;align=left;" vertex="1" parent="1">
          <mxGeometry x="40" y="160" width="100" height="40" as="geometry" />
        </mxCell>
        <mxCell id="PQ8BLkFjMvqvlmMm00V9-1" value="The product name is TBD. It currently uses codename &lt;b&gt;Project K.&amp;nbsp;&amp;nbsp;&lt;/b&gt;&lt;span style=&quot;background-color: transparent; color: light-dark(rgb(0, 0, 0), rgb(255, 255, 255));&quot;&gt;Product name inspiration will come from indigenous origins.&lt;/span&gt;&lt;div&gt;&lt;br&gt;&lt;/div&gt;" style="text;html=1;align=left;verticalAlign=middle;whiteSpace=wrap;rounded=0;labelPosition=center;verticalLabelPosition=middle;" vertex="1" parent="1">
          <mxGeometry x="43" y="200" width="760" height="40" as="geometry" />
        </mxCell>
        <mxCell id="u4WLG0FVA6NuA01Xu1y3-1" value="&lt;h6&gt;Product Description&lt;/h6&gt;" style="text;strokeColor=none;fillColor=none;html=1;fontSize=24;fontStyle=1;verticalAlign=middle;align=left;" vertex="1" parent="1">
          <mxGeometry x="40" y="240" width="160" height="40" as="geometry" />
        </mxCell>
        <mxCell id="UoyNHNYiODDWoF_TIx8i-1" value="&lt;div&gt;The Project K is customizable 35-key, on 5 x 7 ortholinear grid layout. The keyboard features a daisy-chainable configuration which another Identical Project K Keyboard can act as extension or as secondary set of keys for the first board. It will only offers in USB-C type connectivity and no future plans for wireless one or bluetooth version.&amp;nbsp; It uses TRRS to couple to identical keyboards together.&lt;/div&gt;&lt;div&gt;&amp;nbsp;&amp;nbsp;&lt;/div&gt;" style="text;html=1;align=left;verticalAlign=middle;whiteSpace=wrap;rounded=0;labelPosition=center;verticalLabelPosition=middle;" vertex="1" parent="1">
          <mxGeometry x="40" y="280" width="760" height="80" as="geometry" />
        </mxCell>
        <mxCell id="O2yU1dZV066vZxt6enV7-1" value="&lt;h6&gt;Goals&lt;/h6&gt;" style="text;strokeColor=none;fillColor=none;html=1;fontSize=24;fontStyle=1;verticalAlign=middle;align=left;" vertex="1" parent="1">
          <mxGeometry x="40" y="360" width="160" height="40" as="geometry" />
        </mxCell>
        <mxCell id="i3Z65zBLq5RIG7UAH777-1" value="&lt;div&gt;The goals and objectives of this product aims the ff:&lt;/div&gt;&lt;div&gt;&lt;ul&gt;&lt;li&gt;Create a keyboard with customizable keyboard mapping&lt;/li&gt;&lt;li&gt;Make the keyboard to support key map extensibility by connecting another identical board&lt;/li&gt;&lt;li&gt;Design an ergonomic keyboard using ortholinear layout&lt;/li&gt;&lt;li&gt;Be a foundation, prototype for future products&lt;/li&gt;&lt;li&gt;Check for feasibility of the product for mass production&lt;/li&gt;&lt;/ul&gt;&lt;/div&gt;&lt;div&gt;&lt;br&gt;&lt;/div&gt;" style="text;html=1;align=left;verticalAlign=middle;whiteSpace=wrap;rounded=0;labelPosition=center;verticalLabelPosition=middle;" vertex="1" parent="1">
          <mxGeometry x="40" y="400" width="760" height="120" as="geometry" />
        </mxCell>
        <mxCell id="Nwb9vFY-A4hNzg9-87x6-1" value="&lt;h6&gt;Timeline&lt;/h6&gt;" style="text;strokeColor=none;fillColor=none;html=1;fontSize=24;fontStyle=1;verticalAlign=middle;align=left;" vertex="1" parent="1">
          <mxGeometry x="40" y="520" width="160" height="40" as="geometry" />
        </mxCell>
        <mxCell id="Nwb9vFY-A4hNzg9-87x6-2" value="" style="endArrow=none;html=1;rounded=0;" edge="1" parent="1">
          <mxGeometry width="50" height="50" relative="1" as="geometry">
            <mxPoint x="100" y="620" as="sourcePoint" />
            <mxPoint x="740" y="620" as="targetPoint" />
          </mxGeometry>
        </mxCell>
        <mxCell id="Nwb9vFY-A4hNzg9-87x6-5" value="&lt;h6&gt;&lt;font style=&quot;font-size: 12px;&quot;&gt;Project Start&lt;/font&gt;&lt;/h6&gt;" style="text;strokeColor=none;fillColor=none;html=1;fontSize=21;fontStyle=1;verticalAlign=middle;align=center;" vertex="1" parent="1">
          <mxGeometry x="60" y="640" width="80" height="40" as="geometry" />
        </mxCell>
        <mxCell id="Nwb9vFY-A4hNzg9-87x6-7" value="&lt;h6&gt;&lt;font style=&quot;font-size: 12px;&quot;&gt;Research I&lt;/font&gt;&lt;/h6&gt;" style="text;strokeColor=none;fillColor=none;html=1;fontSize=21;fontStyle=1;verticalAlign=middle;align=center;" vertex="1" parent="1">
          <mxGeometry x="140" y="640" width="80" height="40" as="geometry" />
        </mxCell>
        <mxCell id="Nwb9vFY-A4hNzg9-87x6-9" value="&lt;h6&gt;&lt;font style=&quot;font-size: 12px;&quot;&gt;Protyping&lt;/font&gt;&lt;/h6&gt;" style="text;strokeColor=none;fillColor=none;html=1;fontSize=21;fontStyle=1;verticalAlign=middle;align=center;" vertex="1" parent="1">
          <mxGeometry x="220" y="640" width="80" height="40" as="geometry" />
        </mxCell>
        <mxCell id="Nwb9vFY-A4hNzg9-87x6-10" value="&lt;h6&gt;&lt;font style=&quot;font-size: 12px;&quot;&gt;HW Design&lt;/font&gt;&lt;/h6&gt;" style="text;strokeColor=none;fillColor=none;html=1;fontSize=21;fontStyle=1;verticalAlign=middle;align=center;" vertex="1" parent="1">
          <mxGeometry x="380" y="640" width="80" height="40" as="geometry" />
        </mxCell>
        <mxCell id="Nwb9vFY-A4hNzg9-87x6-11" value="&lt;h6&gt;&lt;font style=&quot;font-size: 12px;&quot;&gt;SW Design&lt;/font&gt;&lt;/h6&gt;" style="text;strokeColor=none;fillColor=none;html=1;fontSize=21;fontStyle=1;verticalAlign=middle;align=center;" vertex="1" parent="1">
          <mxGeometry x="540" y="640" width="80" height="40" as="geometry" />
        </mxCell>
        <mxCell id="Nwb9vFY-A4hNzg9-87x6-12" value="&lt;h6&gt;&lt;span style=&quot;font-size: 12px;&quot;&gt;Simulation&lt;/span&gt;&lt;/h6&gt;" style="text;strokeColor=none;fillColor=none;html=1;fontSize=21;fontStyle=1;verticalAlign=middle;align=center;" vertex="1" parent="1">
          <mxGeometry x="300" y="640" width="80" height="40" as="geometry" />
        </mxCell>
        <mxCell id="Nwb9vFY-A4hNzg9-87x6-13" value="&lt;div style=&quot;line-height: 0%;&quot;&gt;&lt;h6 style=&quot;line-height: 100%;&quot;&gt;&lt;span style=&quot;font-size: 12px; line-height: 100%;&quot;&gt;Procurement&lt;br&gt;&amp;amp;&amp;nbsp;&lt;/span&gt;&lt;span style=&quot;background-color: transparent; color: light-dark(rgb(0, 0, 0), rgb(255, 255, 255)); font-size: 12px; line-height: 100%;&quot;&gt;Build&amp;nbsp;&lt;/span&gt;&lt;span style=&quot;font-size: 12px;&quot;&gt;&lt;br&gt;&lt;/span&gt;&lt;/h6&gt;&lt;/div&gt;" style="text;strokeColor=none;fillColor=none;html=1;fontSize=21;fontStyle=1;verticalAlign=middle;align=center;" vertex="1" parent="1">
          <mxGeometry x="460" y="640" width="80" height="40" as="geometry" />
        </mxCell>
        <mxCell id="Nwb9vFY-A4hNzg9-87x6-14" value="&lt;div style=&quot;line-height: 0%;&quot;&gt;&lt;h6 style=&quot;line-height: 100%;&quot;&gt;&lt;span style=&quot;font-size: 12px;&quot;&gt;Integration&lt;br&gt;Testing&lt;/span&gt;&lt;/h6&gt;&lt;/div&gt;" style="text;strokeColor=none;fillColor=none;html=1;fontSize=21;fontStyle=1;verticalAlign=middle;align=center;" vertex="1" parent="1">
          <mxGeometry x="620" y="640" width="80" height="40" as="geometry" />
        </mxCell>
        <mxCell id="Nwb9vFY-A4hNzg9-87x6-15" value="&lt;h6&gt;&lt;font style=&quot;font-size: 12px;&quot;&gt;End&lt;/font&gt;&lt;/h6&gt;" style="text;strokeColor=none;fillColor=none;html=1;fontSize=21;fontStyle=1;verticalAlign=middle;align=center;" vertex="1" parent="1">
          <mxGeometry x="700" y="640" width="80" height="40" as="geometry" />
        </mxCell>
        <mxCell id="Nwb9vFY-A4hNzg9-87x6-17" value="" style="endArrow=none;html=1;rounded=0;" edge="1" parent="1">
          <mxGeometry width="50" height="50" relative="1" as="geometry">
            <mxPoint x="100" y="640" as="sourcePoint" />
            <mxPoint x="100" y="600" as="targetPoint" />
          </mxGeometry>
        </mxCell>
        <mxCell id="Nwb9vFY-A4hNzg9-87x6-18" value="" style="endArrow=none;html=1;rounded=0;" edge="1" parent="1">
          <mxGeometry width="50" height="50" relative="1" as="geometry">
            <mxPoint x="740" y="640" as="sourcePoint" />
            <mxPoint x="740" y="600" as="targetPoint" />
          </mxGeometry>
        </mxCell>
        <mxCell id="Nwb9vFY-A4hNzg9-87x6-20" value="" style="endArrow=none;html=1;rounded=0;" edge="1" parent="1">
          <mxGeometry width="50" height="50" relative="1" as="geometry">
            <mxPoint x="179.8" y="640" as="sourcePoint" />
            <mxPoint x="179.8" y="600" as="targetPoint" />
          </mxGeometry>
        </mxCell>
        <mxCell id="Nwb9vFY-A4hNzg9-87x6-21" value="" style="endArrow=none;html=1;rounded=0;" edge="1" parent="1">
          <mxGeometry width="50" height="50" relative="1" as="geometry">
            <mxPoint x="259.8" y="640" as="sourcePoint" />
            <mxPoint x="259.8" y="600" as="targetPoint" />
          </mxGeometry>
        </mxCell>
        <mxCell id="Nwb9vFY-A4hNzg9-87x6-22" value="" style="endArrow=none;html=1;rounded=0;" edge="1" parent="1">
          <mxGeometry width="50" height="50" relative="1" as="geometry">
            <mxPoint x="339.8" y="640" as="sourcePoint" />
            <mxPoint x="339.8" y="600" as="targetPoint" />
          </mxGeometry>
        </mxCell>
        <mxCell id="Nwb9vFY-A4hNzg9-87x6-23" value="" style="endArrow=none;html=1;rounded=0;" edge="1" parent="1">
          <mxGeometry width="50" height="50" relative="1" as="geometry">
            <mxPoint x="419.83000000000004" y="640" as="sourcePoint" />
            <mxPoint x="419.83000000000004" y="600" as="targetPoint" />
          </mxGeometry>
        </mxCell>
        <mxCell id="Nwb9vFY-A4hNzg9-87x6-24" value="" style="endArrow=none;html=1;rounded=0;" edge="1" parent="1">
          <mxGeometry width="50" height="50" relative="1" as="geometry">
            <mxPoint x="499.83000000000004" y="640" as="sourcePoint" />
            <mxPoint x="499.83000000000004" y="600" as="targetPoint" />
          </mxGeometry>
        </mxCell>
        <mxCell id="Nwb9vFY-A4hNzg9-87x6-25" value="" style="endArrow=none;html=1;rounded=0;" edge="1" parent="1">
          <mxGeometry width="50" height="50" relative="1" as="geometry">
            <mxPoint x="579.83" y="640" as="sourcePoint" />
            <mxPoint x="579.83" y="600" as="targetPoint" />
          </mxGeometry>
        </mxCell>
        <mxCell id="Nwb9vFY-A4hNzg9-87x6-26" value="" style="endArrow=none;html=1;rounded=0;" edge="1" parent="1">
          <mxGeometry width="50" height="50" relative="1" as="geometry">
            <mxPoint x="659.83" y="640" as="sourcePoint" />
            <mxPoint x="659.83" y="600" as="targetPoint" />
          </mxGeometry>
        </mxCell>
        <mxCell id="Nwb9vFY-A4hNzg9-87x6-27" value="&lt;h6&gt;&lt;font style=&quot;font-size: 12px; font-weight: normal;&quot;&gt;03/25&lt;/font&gt;&lt;/h6&gt;" style="text;strokeColor=none;fillColor=none;html=1;fontSize=21;fontStyle=1;verticalAlign=middle;align=center;" vertex="1" parent="1">
          <mxGeometry x="60" y="560" width="80" height="40" as="geometry" />
        </mxCell>
        <mxCell id="Nwb9vFY-A4hNzg9-87x6-28" value="&lt;h6&gt;&lt;font style=&quot;font-size: 12px; font-weight: normal;&quot;&gt;04/25&lt;/font&gt;&lt;/h6&gt;" style="text;strokeColor=none;fillColor=none;html=1;fontSize=21;fontStyle=1;verticalAlign=middle;align=center;" vertex="1" parent="1">
          <mxGeometry x="140" y="560" width="80" height="40" as="geometry" />
        </mxCell>
        <mxCell id="Nwb9vFY-A4hNzg9-87x6-29" value="&lt;h6&gt;&lt;font style=&quot;font-size: 12px; font-weight: normal;&quot;&gt;04/25&lt;/font&gt;&lt;/h6&gt;" style="text;strokeColor=none;fillColor=none;html=1;fontSize=21;fontStyle=1;verticalAlign=middle;align=center;" vertex="1" parent="1">
          <mxGeometry x="220" y="560" width="80" height="40" as="geometry" />
        </mxCell>
        <mxCell id="Nwb9vFY-A4hNzg9-87x6-30" value="&lt;h6&gt;&lt;font style=&quot;font-size: 12px; font-weight: normal;&quot;&gt;04/25&lt;/font&gt;&lt;/h6&gt;" style="text;strokeColor=none;fillColor=none;html=1;fontSize=21;fontStyle=1;verticalAlign=middle;align=center;" vertex="1" parent="1">
          <mxGeometry x="300" y="560" width="80" height="40" as="geometry" />
        </mxCell>
        <mxCell id="Nwb9vFY-A4hNzg9-87x6-31" value="&lt;h6&gt;&lt;font style=&quot;font-size: 12px; font-weight: normal;&quot;&gt;05/25&lt;/font&gt;&lt;/h6&gt;" style="text;strokeColor=none;fillColor=none;html=1;fontSize=21;fontStyle=1;verticalAlign=middle;align=center;" vertex="1" parent="1">
          <mxGeometry x="380" y="560" width="80" height="40" as="geometry" />
        </mxCell>
        <mxCell id="Nwb9vFY-A4hNzg9-87x6-32" value="&lt;h6&gt;&lt;font style=&quot;font-size: 12px; font-weight: normal;&quot;&gt;02/26&lt;/font&gt;&lt;/h6&gt;" style="text;strokeColor=none;fillColor=none;html=1;fontSize=21;fontStyle=1;verticalAlign=middle;align=center;" vertex="1" parent="1">
          <mxGeometry x="700" y="560" width="80" height="40" as="geometry" />
        </mxCell>
        <mxCell id="Nwb9vFY-A4hNzg9-87x6-33" value="&lt;h6&gt;&lt;font style=&quot;font-size: 12px; font-weight: normal;&quot;&gt;07/25&lt;/font&gt;&lt;/h6&gt;" style="text;strokeColor=none;fillColor=none;html=1;fontSize=21;fontStyle=1;verticalAlign=middle;align=center;" vertex="1" parent="1">
          <mxGeometry x="460" y="560" width="80" height="40" as="geometry" />
        </mxCell>
        <mxCell id="Nwb9vFY-A4hNzg9-87x6-34" value="&lt;h6&gt;&lt;font style=&quot;font-size: 12px; font-weight: normal;&quot;&gt;08/25&lt;/font&gt;&lt;/h6&gt;" style="text;strokeColor=none;fillColor=none;html=1;fontSize=21;fontStyle=1;verticalAlign=middle;align=center;" vertex="1" parent="1">
          <mxGeometry x="540" y="560" width="80" height="40" as="geometry" />
        </mxCell>
        <mxCell id="Nwb9vFY-A4hNzg9-87x6-35" value="&lt;h6&gt;&lt;font style=&quot;font-size: 12px; font-weight: normal;&quot;&gt;11/25&lt;/font&gt;&lt;/h6&gt;" style="text;strokeColor=none;fillColor=none;html=1;fontSize=21;fontStyle=1;verticalAlign=middle;align=center;" vertex="1" parent="1">
          <mxGeometry x="620" y="560" width="80" height="40" as="geometry" />
        </mxCell>
        <mxCell id="2VmHfqW84HHSz7tIo180-1" value="&lt;ul&gt;&lt;li&gt;&lt;b&gt;Project Start &lt;/b&gt;- Creation Plans and Kickoff of the project&lt;/li&gt;&lt;li&gt;&lt;b&gt;Research I - &lt;/b&gt;Documentation of theories, processes, applications, designs and tricks in keyboard manufacturing and design.&lt;/li&gt;&lt;li&gt;&lt;b&gt;Prototyping - &lt;/b&gt;Instantiation of model of board on on the underlying&lt;/li&gt;&lt;li&gt;&lt;b&gt;Simulation - &lt;/b&gt;Checking schematic functions before design&lt;/li&gt;&lt;li&gt;&lt;b&gt;Hardware Design - &lt;/b&gt;Layout and schematic building of board&lt;/li&gt;&lt;li&gt;&lt;b&gt;Procurement and Build &lt;/b&gt;- Ordering BOM list and sending gerber files to the supplier&lt;/li&gt;&lt;li&gt;&lt;b&gt;Software Design - &lt;/b&gt;Development of firmware for the built board&lt;/li&gt;&lt;li&gt;&lt;b&gt;Integration and Testing &lt;/b&gt;- Verification, checking, and debugging the board&amp;nbsp;&lt;/li&gt;&lt;li&gt;&lt;b&gt;Project End &lt;/b&gt;- Actual usage&lt;/li&gt;&lt;/ul&gt;" style="text;html=1;align=left;verticalAlign=middle;whiteSpace=wrap;rounded=0;labelPosition=center;verticalLabelPosition=middle;" vertex="1" parent="1">
          <mxGeometry x="40" y="680" width="760" height="160" as="geometry" />
        </mxCell>
        <mxCell id="Aru6lshnN5_wwiiK8AAX-1" value="&lt;h6&gt;Project Budget&lt;/h6&gt;" style="text;strokeColor=none;fillColor=none;html=1;fontSize=24;fontStyle=1;verticalAlign=middle;align=left;" vertex="1" parent="1">
          <mxGeometry x="43" y="840" width="160" height="40" as="geometry" />
        </mxCell>
        <mxCell id="Aru6lshnN5_wwiiK8AAX-2" value="" style="shape=table;startSize=0;container=1;collapsible=0;childLayout=tableLayout;" vertex="1" parent="1">
          <mxGeometry x="165" y="880" width="510" height="168" as="geometry" />
        </mxCell>
        <mxCell id="Aru6lshnN5_wwiiK8AAX-3" value="" style="shape=tableRow;horizontal=0;startSize=0;swimlaneHead=0;swimlaneBody=0;strokeColor=inherit;top=0;left=0;bottom=0;right=0;collapsible=0;dropTarget=0;fillColor=none;points=[[0,0.5],[1,0.5]];portConstraint=eastwest;" vertex="1" parent="Aru6lshnN5_wwiiK8AAX-2">
          <mxGeometry width="510" height="24" as="geometry" />
        </mxCell>
        <mxCell id="Aru6lshnN5_wwiiK8AAX-4" value="Components" style="shape=partialRectangle;html=1;whiteSpace=wrap;connectable=0;strokeColor=inherit;overflow=hidden;fillColor=none;top=0;left=0;bottom=0;right=0;pointerEvents=1;" vertex="1" parent="Aru6lshnN5_wwiiK8AAX-3">
          <mxGeometry width="180" height="24" as="geometry">
            <mxRectangle width="180" height="24" as="alternateBounds" />
          </mxGeometry>
        </mxCell>
        <mxCell id="Aru6lshnN5_wwiiK8AAX-5" value="3,000" style="shape=partialRectangle;html=1;whiteSpace=wrap;connectable=0;strokeColor=inherit;overflow=hidden;fillColor=none;top=0;left=0;bottom=0;right=0;pointerEvents=1;" vertex="1" parent="Aru6lshnN5_wwiiK8AAX-3">
          <mxGeometry x="180" width="330" height="24" as="geometry">
            <mxRectangle width="330" height="24" as="alternateBounds" />
          </mxGeometry>
        </mxCell>
        <mxCell id="Aru6lshnN5_wwiiK8AAX-6" value="" style="shape=tableRow;horizontal=0;startSize=0;swimlaneHead=0;swimlaneBody=0;strokeColor=inherit;top=0;left=0;bottom=0;right=0;collapsible=0;dropTarget=0;fillColor=none;points=[[0,0.5],[1,0.5]];portConstraint=eastwest;" vertex="1" parent="Aru6lshnN5_wwiiK8AAX-2">
          <mxGeometry y="24" width="510" height="24" as="geometry" />
        </mxCell>
        <mxCell id="Aru6lshnN5_wwiiK8AAX-7" value="PCB" style="shape=partialRectangle;html=1;whiteSpace=wrap;connectable=0;strokeColor=inherit;overflow=hidden;fillColor=none;top=0;left=0;bottom=0;right=0;pointerEvents=1;" vertex="1" parent="Aru6lshnN5_wwiiK8AAX-6">
          <mxGeometry width="180" height="24" as="geometry">
            <mxRectangle width="180" height="24" as="alternateBounds" />
          </mxGeometry>
        </mxCell>
        <mxCell id="Aru6lshnN5_wwiiK8AAX-8" value="3,000" style="shape=partialRectangle;html=1;whiteSpace=wrap;connectable=0;strokeColor=inherit;overflow=hidden;fillColor=none;top=0;left=0;bottom=0;right=0;pointerEvents=1;" vertex="1" parent="Aru6lshnN5_wwiiK8AAX-6">
          <mxGeometry x="180" width="330" height="24" as="geometry">
            <mxRectangle width="330" height="24" as="alternateBounds" />
          </mxGeometry>
        </mxCell>
        <mxCell id="Aru6lshnN5_wwiiK8AAX-9" value="" style="shape=tableRow;horizontal=0;startSize=0;swimlaneHead=0;swimlaneBody=0;strokeColor=inherit;top=0;left=0;bottom=0;right=0;collapsible=0;dropTarget=0;fillColor=none;points=[[0,0.5],[1,0.5]];portConstraint=eastwest;" vertex="1" parent="Aru6lshnN5_wwiiK8AAX-2">
          <mxGeometry y="48" width="510" height="24" as="geometry" />
        </mxCell>
        <mxCell id="Aru6lshnN5_wwiiK8AAX-10" value="Consumables" style="shape=partialRectangle;html=1;whiteSpace=wrap;connectable=0;strokeColor=inherit;overflow=hidden;fillColor=none;top=0;left=0;bottom=0;right=0;pointerEvents=1;" vertex="1" parent="Aru6lshnN5_wwiiK8AAX-9">
          <mxGeometry width="180" height="24" as="geometry">
            <mxRectangle width="180" height="24" as="alternateBounds" />
          </mxGeometry>
        </mxCell>
        <mxCell id="Aru6lshnN5_wwiiK8AAX-11" value="2,000" style="shape=partialRectangle;html=1;whiteSpace=wrap;connectable=0;strokeColor=inherit;overflow=hidden;fillColor=none;top=0;left=0;bottom=0;right=0;pointerEvents=1;" vertex="1" parent="Aru6lshnN5_wwiiK8AAX-9">
          <mxGeometry x="180" width="330" height="24" as="geometry">
            <mxRectangle width="330" height="24" as="alternateBounds" />
          </mxGeometry>
        </mxCell>
        <mxCell id="Aru6lshnN5_wwiiK8AAX-12" value="" style="shape=tableRow;horizontal=0;startSize=0;swimlaneHead=0;swimlaneBody=0;strokeColor=inherit;top=0;left=0;bottom=0;right=0;collapsible=0;dropTarget=0;fillColor=none;points=[[0,0.5],[1,0.5]];portConstraint=eastwest;" vertex="1" parent="Aru6lshnN5_wwiiK8AAX-2">
          <mxGeometry y="72" width="510" height="24" as="geometry" />
        </mxCell>
        <mxCell id="Aru6lshnN5_wwiiK8AAX-13" value="Case and Plate" style="shape=partialRectangle;html=1;whiteSpace=wrap;connectable=0;strokeColor=inherit;overflow=hidden;fillColor=none;top=0;left=0;bottom=0;right=0;pointerEvents=1;" vertex="1" parent="Aru6lshnN5_wwiiK8AAX-12">
          <mxGeometry width="180" height="24" as="geometry">
            <mxRectangle width="180" height="24" as="alternateBounds" />
          </mxGeometry>
        </mxCell>
        <mxCell id="Aru6lshnN5_wwiiK8AAX-14" value="2,000" style="shape=partialRectangle;html=1;whiteSpace=wrap;connectable=0;strokeColor=inherit;overflow=hidden;fillColor=none;top=0;left=0;bottom=0;right=0;pointerEvents=1;" vertex="1" parent="Aru6lshnN5_wwiiK8AAX-12">
          <mxGeometry x="180" width="330" height="24" as="geometry">
            <mxRectangle width="330" height="24" as="alternateBounds" />
          </mxGeometry>
        </mxCell>
        <mxCell id="Aru6lshnN5_wwiiK8AAX-15" value="" style="shape=tableRow;horizontal=0;startSize=0;swimlaneHead=0;swimlaneBody=0;strokeColor=inherit;top=0;left=0;bottom=0;right=0;collapsible=0;dropTarget=0;fillColor=none;points=[[0,0.5],[1,0.5]];portConstraint=eastwest;" vertex="1" parent="Aru6lshnN5_wwiiK8AAX-2">
          <mxGeometry y="96" width="510" height="24" as="geometry" />
        </mxCell>
        <mxCell id="Aru6lshnN5_wwiiK8AAX-16" value="Equipments" style="shape=partialRectangle;html=1;whiteSpace=wrap;connectable=0;strokeColor=inherit;overflow=hidden;fillColor=none;top=0;left=0;bottom=0;right=0;pointerEvents=1;" vertex="1" parent="Aru6lshnN5_wwiiK8AAX-15">
          <mxGeometry width="180" height="24" as="geometry">
            <mxRectangle width="180" height="24" as="alternateBounds" />
          </mxGeometry>
        </mxCell>
        <mxCell id="Aru6lshnN5_wwiiK8AAX-17" value="2,000" style="shape=partialRectangle;html=1;whiteSpace=wrap;connectable=0;strokeColor=inherit;overflow=hidden;fillColor=none;top=0;left=0;bottom=0;right=0;pointerEvents=1;" vertex="1" parent="Aru6lshnN5_wwiiK8AAX-15">
          <mxGeometry x="180" width="330" height="24" as="geometry">
            <mxRectangle width="330" height="24" as="alternateBounds" />
          </mxGeometry>
        </mxCell>
        <mxCell id="Aru6lshnN5_wwiiK8AAX-18" style="shape=tableRow;horizontal=0;startSize=0;swimlaneHead=0;swimlaneBody=0;strokeColor=inherit;top=0;left=0;bottom=0;right=0;collapsible=0;dropTarget=0;fillColor=none;points=[[0,0.5],[1,0.5]];portConstraint=eastwest;" vertex="1" parent="Aru6lshnN5_wwiiK8AAX-2">
          <mxGeometry y="120" width="510" height="24" as="geometry" />
        </mxCell>
        <mxCell id="Aru6lshnN5_wwiiK8AAX-19" value="Total" style="shape=partialRectangle;html=1;whiteSpace=wrap;connectable=0;strokeColor=inherit;overflow=hidden;fillColor=none;top=0;left=0;bottom=0;right=0;pointerEvents=1;" vertex="1" parent="Aru6lshnN5_wwiiK8AAX-18">
          <mxGeometry width="180" height="24" as="geometry">
            <mxRectangle width="180" height="24" as="alternateBounds" />
          </mxGeometry>
        </mxCell>
        <mxCell id="Aru6lshnN5_wwiiK8AAX-20" value="&lt;span style=&quot;font-weight: normal;&quot;&gt;12,000&lt;/span&gt;" style="shape=partialRectangle;html=1;whiteSpace=wrap;connectable=0;strokeColor=inherit;overflow=hidden;fillColor=none;top=0;left=0;bottom=0;right=0;pointerEvents=1;fontStyle=1" vertex="1" parent="Aru6lshnN5_wwiiK8AAX-18">
          <mxGeometry x="180" width="330" height="24" as="geometry">
            <mxRectangle width="330" height="24" as="alternateBounds" />
          </mxGeometry>
        </mxCell>
        <mxCell id="Aru6lshnN5_wwiiK8AAX-21" style="shape=tableRow;horizontal=0;startSize=0;swimlaneHead=0;swimlaneBody=0;strokeColor=inherit;top=0;left=0;bottom=0;right=0;collapsible=0;dropTarget=0;fillColor=none;points=[[0,0.5],[1,0.5]];portConstraint=eastwest;" vertex="1" parent="Aru6lshnN5_wwiiK8AAX-2">
          <mxGeometry y="144" width="510" height="24" as="geometry" />
        </mxCell>
        <mxCell id="Aru6lshnN5_wwiiK8AAX-22" value="20% overhead" style="shape=partialRectangle;html=1;whiteSpace=wrap;connectable=0;strokeColor=inherit;overflow=hidden;fillColor=none;top=0;left=0;bottom=0;right=0;pointerEvents=1;" vertex="1" parent="Aru6lshnN5_wwiiK8AAX-21">
          <mxGeometry width="180" height="24" as="geometry">
            <mxRectangle width="180" height="24" as="alternateBounds" />
          </mxGeometry>
        </mxCell>
        <mxCell id="Aru6lshnN5_wwiiK8AAX-23" value="14,400" style="shape=partialRectangle;html=1;whiteSpace=wrap;connectable=0;strokeColor=inherit;overflow=hidden;fillColor=none;top=0;left=0;bottom=0;right=0;pointerEvents=1;fontStyle=1" vertex="1" parent="Aru6lshnN5_wwiiK8AAX-21">
          <mxGeometry x="180" width="330" height="24" as="geometry">
            <mxRectangle width="330" height="24" as="alternateBounds" />
          </mxGeometry>
        </mxCell>
      </root>
    </mxGraphModel>
  </diagram>
  <diagram id="Y8yaiR_SnF9OcwPiy_A2" name="02_ Market">
    <mxGraphModel dx="1050" dy="621" grid="1" gridSize="10" guides="1" tooltips="1" connect="1" arrows="1" fold="1" page="1" pageScale="1" pageWidth="850" pageHeight="1100" math="0" shadow="0">
      <root>
        <mxCell id="0" />
        <mxCell id="1" parent="0" />
        <mxCell id="t5SF9EK1OkuX5LNVLoUw-1" value="&lt;h1&gt;Project K - Market Research and Analysis&lt;/h1&gt;" style="text;html=1;align=left;verticalAlign=middle;whiteSpace=wrap;rounded=0;" parent="1" vertex="1">
          <mxGeometry x="40" y="85" width="520" height="30" as="geometry" />
        </mxCell>
        <mxCell id="t5SF9EK1OkuX5LNVLoUw-2" value="&lt;h5&gt;version 00.00.01_DRAFT&lt;/h5&gt;" style="text;html=1;align=right;verticalAlign=middle;whiteSpace=wrap;rounded=0;" parent="1" vertex="1">
          <mxGeometry x="483" y="95" width="320" height="10" as="geometry" />
        </mxCell>
        <mxCell id="t5SF9EK1OkuX5LNVLoUw-3" value="&lt;h5&gt;Revision Date: March 23, 2025&lt;/h5&gt;" style="text;html=1;align=right;verticalAlign=middle;whiteSpace=wrap;rounded=0;" parent="1" vertex="1">
          <mxGeometry x="483" y="111" width="320" height="10" as="geometry" />
        </mxCell>
        <mxCell id="t5SF9EK1OkuX5LNVLoUw-4" value="&lt;h5&gt;Author: Natsurii&lt;/h5&gt;" style="text;html=1;align=right;verticalAlign=middle;whiteSpace=wrap;rounded=0;" parent="1" vertex="1">
          <mxGeometry x="483" y="80" width="320" height="10" as="geometry" />
        </mxCell>
        <mxCell id="ZT7jzalReHoglXU1D2AI-1" value="&lt;h6&gt;Target Audience&lt;/h6&gt;" style="text;strokeColor=none;fillColor=none;html=1;fontSize=24;fontStyle=1;verticalAlign=middle;align=left;" parent="1" vertex="1">
          <mxGeometry x="40" y="160" width="160" height="40" as="geometry" />
        </mxCell>
        <mxCell id="ZT7jzalReHoglXU1D2AI-2" value="&lt;div&gt;There is no target audience set to this product. This is intended for personal use only. However, if this product will enter on mass production stage, it will targeted to the hobbyists who are into custom keyboard hobby.&lt;/div&gt;" style="text;html=1;align=left;verticalAlign=middle;whiteSpace=wrap;rounded=0;labelPosition=center;verticalLabelPosition=middle;" parent="1" vertex="1">
          <mxGeometry x="40" y="200" width="760" height="40" as="geometry" />
        </mxCell>
        <mxCell id="ZT7jzalReHoglXU1D2AI-4" value="&lt;h6&gt;User Personas&lt;/h6&gt;" style="text;strokeColor=none;fillColor=none;html=1;fontSize=24;fontStyle=1;verticalAlign=middle;align=left;" parent="1" vertex="1">
          <mxGeometry x="40" y="260" width="160" height="40" as="geometry" />
        </mxCell>
        <mxCell id="BiVQurthsv10KSRZg5MD-1" value="" style="shape=table;startSize=0;container=1;collapsible=0;childLayout=tableLayout;verticalAlign=middle;" vertex="1" parent="1">
          <mxGeometry x="40" y="310" width="760" height="730" as="geometry" />
        </mxCell>
        <mxCell id="BiVQurthsv10KSRZg5MD-2" value="" style="shape=tableRow;horizontal=0;startSize=0;swimlaneHead=0;swimlaneBody=0;strokeColor=inherit;top=0;left=0;bottom=0;right=0;collapsible=0;dropTarget=0;fillColor=none;points=[[0,0.5],[1,0.5]];portConstraint=eastwest;" vertex="1" parent="BiVQurthsv10KSRZg5MD-1">
          <mxGeometry width="760" height="135" as="geometry" />
        </mxCell>
        <mxCell id="BiVQurthsv10KSRZg5MD-3" value="&lt;b&gt;User&lt;/b&gt;" style="shape=partialRectangle;html=1;whiteSpace=wrap;connectable=0;strokeColor=inherit;overflow=hidden;fillColor=none;top=0;left=0;bottom=0;right=0;pointerEvents=1;" vertex="1" parent="BiVQurthsv10KSRZg5MD-2">
          <mxGeometry width="80" height="135" as="geometry">
            <mxRectangle width="80" height="135" as="alternateBounds" />
          </mxGeometry>
        </mxCell>
        <mxCell id="BiVQurthsv10KSRZg5MD-4" value="Alex A.&lt;div&gt;Software Engineer&lt;/div&gt;&lt;div&gt;Advance Technical Expertise&lt;/div&gt;" style="shape=partialRectangle;html=1;whiteSpace=wrap;connectable=0;strokeColor=inherit;overflow=hidden;fillColor=none;top=0;left=0;bottom=0;right=0;pointerEvents=1;" vertex="1" parent="BiVQurthsv10KSRZg5MD-2">
          <mxGeometry x="80" width="220" height="135" as="geometry">
            <mxRectangle width="220" height="135" as="alternateBounds" />
          </mxGeometry>
        </mxCell>
        <mxCell id="BiVQurthsv10KSRZg5MD-5" value="Drape G.&lt;div&gt;Hobbyist&lt;/div&gt;&lt;div&gt;Intermediate Technical Expertise&lt;/div&gt;" style="shape=partialRectangle;html=1;whiteSpace=wrap;connectable=0;strokeColor=inherit;overflow=hidden;fillColor=none;top=0;left=0;bottom=0;right=0;pointerEvents=1;" vertex="1" parent="BiVQurthsv10KSRZg5MD-2">
          <mxGeometry x="300" width="240" height="135" as="geometry">
            <mxRectangle width="240" height="135" as="alternateBounds" />
          </mxGeometry>
        </mxCell>
        <mxCell id="BiVQurthsv10KSRZg5MD-6" value="Carl W.&lt;div&gt;Average Salaryman&lt;/div&gt;&lt;div&gt;Low Technical Expertise&lt;/div&gt;" style="shape=partialRectangle;html=1;whiteSpace=wrap;connectable=0;strokeColor=inherit;overflow=hidden;fillColor=none;top=0;left=0;bottom=0;right=0;pointerEvents=1;" vertex="1" parent="BiVQurthsv10KSRZg5MD-2">
          <mxGeometry x="540" width="220" height="135" as="geometry">
            <mxRectangle width="220" height="135" as="alternateBounds" />
          </mxGeometry>
        </mxCell>
        <mxCell id="BiVQurthsv10KSRZg5MD-7" value="" style="shape=tableRow;horizontal=0;startSize=0;swimlaneHead=0;swimlaneBody=0;strokeColor=inherit;top=0;left=0;bottom=0;right=0;collapsible=0;dropTarget=0;fillColor=none;points=[[0,0.5],[1,0.5]];portConstraint=eastwest;align=left;" vertex="1" parent="BiVQurthsv10KSRZg5MD-1">
          <mxGeometry y="135" width="760" height="125" as="geometry" />
        </mxCell>
        <mxCell id="BiVQurthsv10KSRZg5MD-8" value="&lt;b&gt;Background&lt;/b&gt;" style="shape=partialRectangle;html=1;whiteSpace=wrap;connectable=0;strokeColor=inherit;overflow=hidden;fillColor=none;top=0;left=0;bottom=0;right=0;pointerEvents=1;" vertex="1" parent="BiVQurthsv10KSRZg5MD-7">
          <mxGeometry width="80" height="125" as="geometry">
            <mxRectangle width="80" height="125" as="alternateBounds" />
          </mxGeometry>
        </mxCell>
        <mxCell id="BiVQurthsv10KSRZg5MD-9" value="Spends the day-to-day in front of computer.&amp;nbsp;&lt;span style=&quot;background-color: transparent; color: light-dark(rgb(0, 0, 0), rgb(255, 255, 255));&quot;&gt;Uses vim shortcuts because mouse slows down his workflow. He has some macros in his keyboard kit to speed up development process.&lt;/span&gt;" style="shape=partialRectangle;html=1;whiteSpace=wrap;connectable=0;strokeColor=inherit;overflow=hidden;fillColor=none;top=0;left=0;bottom=0;right=0;pointerEvents=1;align=left;verticalAlign=middle;" vertex="1" parent="BiVQurthsv10KSRZg5MD-7">
          <mxGeometry x="80" width="220" height="125" as="geometry">
            <mxRectangle width="220" height="125" as="alternateBounds" />
          </mxGeometry>
        </mxCell>
        <mxCell id="BiVQurthsv10KSRZg5MD-10" value="He&#39;s bartender at work. His hobby is to collect obscure, customizable, yet functional keyboard. He likes to explore different keyboard layout such as Dvorak. He just like keyboard but has limited technical expertise in software and hardware. He mods his keyboard passionately." style="shape=partialRectangle;html=1;whiteSpace=wrap;connectable=0;strokeColor=inherit;overflow=hidden;fillColor=none;top=0;left=0;bottom=0;right=0;pointerEvents=1;verticalAlign=middle;" vertex="1" parent="BiVQurthsv10KSRZg5MD-7">
          <mxGeometry x="300" width="240" height="125" as="geometry">
            <mxRectangle width="240" height="125" as="alternateBounds" />
          </mxGeometry>
        </mxCell>
        <mxCell id="BiVQurthsv10KSRZg5MD-11" value="Is a government worker, barely touched a computer. He learn how to type during middle school. He is not a technical person, yet he is a minimalist who likes smaller setups. He doesn&#39;t care if he lost some of the keys as long it fits to the overall desk aesthetics." style="shape=partialRectangle;html=1;whiteSpace=wrap;connectable=0;strokeColor=inherit;overflow=hidden;fillColor=none;top=0;left=0;bottom=0;right=0;pointerEvents=1;" vertex="1" parent="BiVQurthsv10KSRZg5MD-7">
          <mxGeometry x="540" width="220" height="125" as="geometry">
            <mxRectangle width="220" height="125" as="alternateBounds" />
          </mxGeometry>
        </mxCell>
        <mxCell id="BiVQurthsv10KSRZg5MD-12" value="" style="shape=tableRow;horizontal=0;startSize=0;swimlaneHead=0;swimlaneBody=0;strokeColor=inherit;top=0;left=0;bottom=0;right=0;collapsible=0;dropTarget=0;fillColor=none;points=[[0,0.5],[1,0.5]];portConstraint=eastwest;" vertex="1" parent="BiVQurthsv10KSRZg5MD-1">
          <mxGeometry y="260" width="760" height="116" as="geometry" />
        </mxCell>
        <mxCell id="BiVQurthsv10KSRZg5MD-13" value="&lt;b&gt;Goals and needs&lt;/b&gt;" style="shape=partialRectangle;html=1;whiteSpace=wrap;connectable=0;strokeColor=inherit;overflow=hidden;fillColor=none;top=0;left=0;bottom=0;right=0;pointerEvents=1;" vertex="1" parent="BiVQurthsv10KSRZg5MD-12">
          <mxGeometry width="80" height="116" as="geometry">
            <mxRectangle width="80" height="116" as="alternateBounds" />
          </mxGeometry>
        </mxCell>
        <mxCell id="BiVQurthsv10KSRZg5MD-14" value="&lt;ul&gt;&lt;li&gt;Needs all the shortcuts&lt;/li&gt;&lt;li&gt;Accessible custom keys for his macros&lt;/li&gt;&lt;li&gt;Efficient code editing without mouse&lt;/li&gt;&lt;li&gt;Reduce strain of repetitive use&lt;/li&gt;&lt;/ul&gt;" style="shape=partialRectangle;html=1;whiteSpace=wrap;connectable=0;strokeColor=inherit;overflow=hidden;fillColor=none;top=0;left=0;bottom=0;right=0;pointerEvents=1;align=left;" vertex="1" parent="BiVQurthsv10KSRZg5MD-12">
          <mxGeometry x="80" width="220" height="116" as="geometry">
            <mxRectangle width="220" height="116" as="alternateBounds" />
          </mxGeometry>
        </mxCell>
        <mxCell id="BiVQurthsv10KSRZg5MD-15" value="&lt;ul&gt;&lt;li&gt;Discover unique keyboard models&lt;/li&gt;&lt;li&gt;Experiment keyboard layouts with comfort&lt;/li&gt;&lt;li&gt;Customizes switches and keys for aesthetics and functionality&lt;/li&gt;&lt;li&gt;Learn Firmware in beginner way&lt;/li&gt;&lt;/ul&gt;" style="shape=partialRectangle;html=1;whiteSpace=wrap;connectable=0;strokeColor=inherit;overflow=hidden;fillColor=none;top=0;left=0;bottom=0;right=0;pointerEvents=1;align=left;" vertex="1" parent="BiVQurthsv10KSRZg5MD-12">
          <mxGeometry x="300" width="240" height="116" as="geometry">
            <mxRectangle width="240" height="116" as="alternateBounds" />
          </mxGeometry>
        </mxCell>
        <mxCell id="BiVQurthsv10KSRZg5MD-16" value="&lt;ul&gt;&lt;li&gt;small and stylish keyboard that complements his desk&lt;/li&gt;&lt;li&gt;simple plug and play setup, no complicated software required&lt;/li&gt;&lt;li&gt;Reliable and durable keyboard for occasional typing&lt;/li&gt;&lt;li&gt;Minimal maintainance&lt;/li&gt;&lt;/ul&gt;" style="shape=partialRectangle;html=1;whiteSpace=wrap;connectable=0;strokeColor=inherit;overflow=hidden;fillColor=none;top=0;left=0;bottom=0;right=0;pointerEvents=1;align=left;" vertex="1" parent="BiVQurthsv10KSRZg5MD-12">
          <mxGeometry x="540" width="220" height="116" as="geometry">
            <mxRectangle width="220" height="116" as="alternateBounds" />
          </mxGeometry>
        </mxCell>
        <mxCell id="BiVQurthsv10KSRZg5MD-17" value="" style="shape=tableRow;horizontal=0;startSize=0;swimlaneHead=0;swimlaneBody=0;strokeColor=inherit;top=0;left=0;bottom=0;right=0;collapsible=0;dropTarget=0;fillColor=none;points=[[0,0.5],[1,0.5]];portConstraint=eastwest;" vertex="1" parent="BiVQurthsv10KSRZg5MD-1">
          <mxGeometry y="376" width="760" height="122" as="geometry" />
        </mxCell>
        <mxCell id="BiVQurthsv10KSRZg5MD-18" value="&lt;b&gt;Pain Points&lt;/b&gt;" style="shape=partialRectangle;html=1;whiteSpace=wrap;connectable=0;strokeColor=inherit;overflow=hidden;fillColor=none;top=0;left=0;bottom=0;right=0;pointerEvents=1;" vertex="1" parent="BiVQurthsv10KSRZg5MD-17">
          <mxGeometry width="80" height="122" as="geometry">
            <mxRectangle width="80" height="122" as="alternateBounds" />
          </mxGeometry>
        </mxCell>
        <mxCell id="BiVQurthsv10KSRZg5MD-19" value="&lt;ul&gt;&lt;li&gt;Lack of keyboard navigation for his vim shortcuts&lt;/li&gt;&lt;li&gt;Non-customizable, non-intuitive shortcut keys&lt;/li&gt;&lt;li&gt;Has experience difficulty in navigating UI due to non-intuitive shortcuts&lt;/li&gt;&lt;/ul&gt;" style="shape=partialRectangle;html=1;whiteSpace=wrap;connectable=0;strokeColor=inherit;overflow=hidden;fillColor=none;top=0;left=0;bottom=0;right=0;pointerEvents=1;align=left;" vertex="1" parent="BiVQurthsv10KSRZg5MD-17">
          <mxGeometry x="80" width="220" height="122" as="geometry">
            <mxRectangle width="220" height="122" as="alternateBounds" />
          </mxGeometry>
        </mxCell>
        <mxCell id="BiVQurthsv10KSRZg5MD-20" value="&lt;ul&gt;&lt;li&gt;Struggles with firmware tweaking&lt;/li&gt;&lt;li&gt;Find some technical resources too overwhelming&lt;/li&gt;&lt;li&gt;Expensive hobby&lt;/li&gt;&lt;li&gt;Limited community guides for less common layout and configuration&lt;/li&gt;&lt;/ul&gt;" style="shape=partialRectangle;html=1;whiteSpace=wrap;connectable=0;strokeColor=inherit;overflow=hidden;fillColor=none;top=0;left=0;bottom=0;right=0;pointerEvents=1;align=left;" vertex="1" parent="BiVQurthsv10KSRZg5MD-17">
          <mxGeometry x="300" width="240" height="122" as="geometry">
            <mxRectangle width="240" height="122" as="alternateBounds" />
          </mxGeometry>
        </mxCell>
        <mxCell id="BiVQurthsv10KSRZg5MD-21" value="&lt;ul&gt;&lt;li&gt;Finds keyboard jargon confusing&lt;/li&gt;&lt;li&gt;Struggles with other keyboard layouts&lt;/li&gt;&lt;li&gt;Prefers physical buttons instead of touch screens or pads&lt;/li&gt;&lt;li&gt;Doesn&#39;t want to deal with bluetooth pairing issues&lt;/li&gt;&lt;/ul&gt;" style="shape=partialRectangle;html=1;whiteSpace=wrap;connectable=0;strokeColor=inherit;overflow=hidden;fillColor=none;top=0;left=0;bottom=0;right=0;pointerEvents=1;align=left;" vertex="1" parent="BiVQurthsv10KSRZg5MD-17">
          <mxGeometry x="540" width="220" height="122" as="geometry">
            <mxRectangle width="220" height="122" as="alternateBounds" />
          </mxGeometry>
        </mxCell>
        <mxCell id="BiVQurthsv10KSRZg5MD-22" value="" style="shape=tableRow;horizontal=0;startSize=0;swimlaneHead=0;swimlaneBody=0;strokeColor=inherit;top=0;left=0;bottom=0;right=0;collapsible=0;dropTarget=0;fillColor=none;points=[[0,0.5],[1,0.5]];portConstraint=eastwest;" vertex="1" parent="BiVQurthsv10KSRZg5MD-1">
          <mxGeometry y="498" width="760" height="82" as="geometry" />
        </mxCell>
        <mxCell id="BiVQurthsv10KSRZg5MD-23" value="&lt;b&gt;Preferered Tools and Devices&lt;/b&gt;" style="shape=partialRectangle;html=1;whiteSpace=wrap;connectable=0;strokeColor=inherit;overflow=hidden;fillColor=none;top=0;left=0;bottom=0;right=0;pointerEvents=1;" vertex="1" parent="BiVQurthsv10KSRZg5MD-22">
          <mxGeometry width="80" height="82" as="geometry">
            <mxRectangle width="80" height="82" as="alternateBounds" />
          </mxGeometry>
        </mxCell>
        <mxCell id="BiVQurthsv10KSRZg5MD-24" value="&lt;b&gt;Software: &lt;/b&gt;Vim, Terminals, Tiling Manager&lt;div&gt;&lt;b&gt;Hardware: &lt;/b&gt;Keyboard with remmapable key map&lt;/div&gt;" style="shape=partialRectangle;html=1;whiteSpace=wrap;connectable=0;strokeColor=inherit;overflow=hidden;fillColor=none;top=0;left=0;bottom=0;right=0;pointerEvents=1;align=left;" vertex="1" parent="BiVQurthsv10KSRZg5MD-22">
          <mxGeometry x="80" width="220" height="82" as="geometry">
            <mxRectangle width="220" height="82" as="alternateBounds" />
          </mxGeometry>
        </mxCell>
        <mxCell id="BiVQurthsv10KSRZg5MD-25" value="&lt;b&gt;Hardware: &lt;/b&gt;Custom Keyboards, Switches, and Caps&lt;div&gt;&lt;b&gt;Software: &lt;/b&gt;Via for key remapping, QMK for FW tweaks&lt;/div&gt;" style="shape=partialRectangle;html=1;whiteSpace=wrap;connectable=0;strokeColor=inherit;overflow=hidden;fillColor=none;top=0;left=0;bottom=0;right=0;pointerEvents=1;align=left;" vertex="1" parent="BiVQurthsv10KSRZg5MD-22">
          <mxGeometry x="300" width="240" height="82" as="geometry">
            <mxRectangle width="240" height="82" as="alternateBounds" />
          </mxGeometry>
        </mxCell>
        <mxCell id="BiVQurthsv10KSRZg5MD-26" value="&lt;b&gt;Hardware: &lt;/b&gt;60-65% Form factor keyboards, low profile, monochrome&lt;div&gt;&lt;b&gt;Software: &lt;/b&gt;No custom software, uses default out of the box&lt;/div&gt;" style="shape=partialRectangle;html=1;whiteSpace=wrap;connectable=0;strokeColor=inherit;overflow=hidden;fillColor=none;top=0;left=0;bottom=0;right=0;pointerEvents=1;align=left;" vertex="1" parent="BiVQurthsv10KSRZg5MD-22">
          <mxGeometry x="540" width="220" height="82" as="geometry">
            <mxRectangle width="220" height="82" as="alternateBounds" />
          </mxGeometry>
        </mxCell>
        <mxCell id="BiVQurthsv10KSRZg5MD-27" value="" style="shape=tableRow;horizontal=0;startSize=0;swimlaneHead=0;swimlaneBody=0;strokeColor=inherit;top=0;left=0;bottom=0;right=0;collapsible=0;dropTarget=0;fillColor=none;points=[[0,0.5],[1,0.5]];portConstraint=eastwest;fontStyle=1" vertex="1" parent="BiVQurthsv10KSRZg5MD-1">
          <mxGeometry y="580" width="760" height="150" as="geometry" />
        </mxCell>
        <mxCell id="BiVQurthsv10KSRZg5MD-28" value="&lt;b&gt;Behaviour and Usage Patterns&lt;/b&gt;" style="shape=partialRectangle;html=1;whiteSpace=wrap;connectable=0;strokeColor=inherit;overflow=hidden;fillColor=none;top=0;left=0;bottom=0;right=0;pointerEvents=1;" vertex="1" parent="BiVQurthsv10KSRZg5MD-27">
          <mxGeometry width="80" height="150" as="geometry">
            <mxRectangle width="80" height="150" as="alternateBounds" />
          </mxGeometry>
        </mxCell>
        <mxCell id="BiVQurthsv10KSRZg5MD-29" value="&lt;ul&gt;&lt;li&gt;Uses shortcuts by a lot&lt;/li&gt;&lt;li&gt;Prefers CLI instead of GUI&lt;/li&gt;&lt;li&gt;Uses macros&lt;/li&gt;&lt;li&gt;Actively modify key bindings to match workflow needs&lt;/li&gt;&lt;/ul&gt;" style="shape=partialRectangle;html=1;whiteSpace=wrap;connectable=0;strokeColor=inherit;overflow=hidden;fillColor=none;top=0;left=0;bottom=0;right=0;pointerEvents=1;align=left;" vertex="1" parent="BiVQurthsv10KSRZg5MD-27">
          <mxGeometry x="80" width="220" height="150" as="geometry">
            <mxRectangle width="220" height="150" as="alternateBounds" />
          </mxGeometry>
        </mxCell>
        <mxCell id="BiVQurthsv10KSRZg5MD-30" value="&lt;ul&gt;&lt;li&gt;Loves to explore different type of hardware configurations&lt;/li&gt;&lt;li&gt;Enjoys the feeling of typing on different keyboard build&lt;/li&gt;&lt;li&gt;Always on keyboard meetups, buys limited keycap drops&lt;/li&gt;&lt;/ul&gt;" style="shape=partialRectangle;html=1;whiteSpace=wrap;connectable=0;strokeColor=inherit;overflow=hidden;fillColor=none;top=0;left=0;bottom=0;right=0;pointerEvents=1;align=left;" vertex="1" parent="BiVQurthsv10KSRZg5MD-27">
          <mxGeometry x="300" width="240" height="150" as="geometry">
            <mxRectangle width="240" height="150" as="alternateBounds" />
          </mxGeometry>
        </mxCell>
        <mxCell id="BiVQurthsv10KSRZg5MD-31" value="&lt;ul&gt;&lt;li&gt;Uses it for basic tasks like emails, browsing, surfing doom scrolling&lt;/li&gt;&lt;li&gt;Likes compact keyboards doesn&#39;t care customizability&lt;/li&gt;&lt;li&gt;He sticks keyboards for years&lt;/li&gt;&lt;li&gt;Doesn&#39;t care RGB, Hot swap or wireless connectivity&lt;/li&gt;&lt;/ul&gt;" style="shape=partialRectangle;html=1;whiteSpace=wrap;connectable=0;strokeColor=inherit;overflow=hidden;fillColor=none;top=0;left=0;bottom=0;right=0;pointerEvents=1;align=left;" vertex="1" parent="BiVQurthsv10KSRZg5MD-27">
          <mxGeometry x="540" width="220" height="150" as="geometry">
            <mxRectangle width="220" height="150" as="alternateBounds" />
          </mxGeometry>
        </mxCell>
      </root>
    </mxGraphModel>
  </diagram>
  <diagram name="03_Design Requirements" id="wM5vGuqv0lykwzuObyU2">
    <mxGraphModel dx="1235" dy="771" grid="1" gridSize="10" guides="1" tooltips="1" connect="1" arrows="1" fold="1" page="1" pageScale="1" pageWidth="850" pageHeight="1100" math="0" shadow="0">
      <root>
        <mxCell id="0" />
        <mxCell id="1" parent="0" />
        <mxCell id="Kq7YaeAKi1D6zh4hDfzu-1" value="&lt;h1&gt;Project K - Design Requirements&lt;/h1&gt;" style="text;html=1;align=left;verticalAlign=middle;whiteSpace=wrap;rounded=0;" parent="1" vertex="1">
          <mxGeometry x="40" y="85" width="390" height="30" as="geometry" />
        </mxCell>
        <mxCell id="Kq7YaeAKi1D6zh4hDfzu-2" value="&lt;h3&gt;Design Objectives&lt;/h3&gt;" style="text;html=1;align=left;verticalAlign=middle;whiteSpace=wrap;rounded=0;" parent="1" vertex="1">
          <mxGeometry x="41" y="231" width="200" height="40" as="geometry" />
        </mxCell>
        <mxCell id="Kq7YaeAKi1D6zh4hDfzu-14" value="" style="shape=table;startSize=0;container=1;collapsible=0;childLayout=tableLayout;" parent="1" vertex="1">
          <mxGeometry x="41" y="271" width="370" height="245" as="geometry" />
        </mxCell>
        <mxCell id="Kq7YaeAKi1D6zh4hDfzu-15" value="" style="shape=tableRow;horizontal=0;startSize=0;swimlaneHead=0;swimlaneBody=0;strokeColor=inherit;top=0;left=0;bottom=0;right=0;collapsible=0;dropTarget=0;fillColor=none;points=[[0,0.5],[1,0.5]];portConstraint=eastwest;" parent="Kq7YaeAKi1D6zh4hDfzu-14" vertex="1">
          <mxGeometry width="370" height="35" as="geometry" />
        </mxCell>
        <mxCell id="Kq7YaeAKi1D6zh4hDfzu-16" value="# of Keys" style="shape=partialRectangle;html=1;whiteSpace=wrap;connectable=0;strokeColor=inherit;overflow=hidden;fillColor=none;top=0;left=0;bottom=0;right=0;pointerEvents=1;" parent="Kq7YaeAKi1D6zh4hDfzu-15" vertex="1">
          <mxGeometry width="77" height="35" as="geometry">
            <mxRectangle width="77" height="35" as="alternateBounds" />
          </mxGeometry>
        </mxCell>
        <mxCell id="Kq7YaeAKi1D6zh4hDfzu-17" value="35 keys (5x7 grid)" style="shape=partialRectangle;html=1;whiteSpace=wrap;connectable=0;strokeColor=inherit;overflow=hidden;fillColor=none;top=0;left=0;bottom=0;right=0;pointerEvents=1;" parent="Kq7YaeAKi1D6zh4hDfzu-15" vertex="1">
          <mxGeometry x="77" width="293" height="35" as="geometry">
            <mxRectangle width="293" height="35" as="alternateBounds" />
          </mxGeometry>
        </mxCell>
        <mxCell id="Kq7YaeAKi1D6zh4hDfzu-18" value="" style="shape=tableRow;horizontal=0;startSize=0;swimlaneHead=0;swimlaneBody=0;strokeColor=inherit;top=0;left=0;bottom=0;right=0;collapsible=0;dropTarget=0;fillColor=none;points=[[0,0.5],[1,0.5]];portConstraint=eastwest;" parent="Kq7YaeAKi1D6zh4hDfzu-14" vertex="1">
          <mxGeometry y="35" width="370" height="35" as="geometry" />
        </mxCell>
        <mxCell id="Kq7YaeAKi1D6zh4hDfzu-19" value="Layout" style="shape=partialRectangle;html=1;whiteSpace=wrap;connectable=0;strokeColor=inherit;overflow=hidden;fillColor=none;top=0;left=0;bottom=0;right=0;pointerEvents=1;" parent="Kq7YaeAKi1D6zh4hDfzu-18" vertex="1">
          <mxGeometry width="77" height="35" as="geometry">
            <mxRectangle width="77" height="35" as="alternateBounds" />
          </mxGeometry>
        </mxCell>
        <mxCell id="Kq7YaeAKi1D6zh4hDfzu-20" value="Ortho-Linear" style="shape=partialRectangle;html=1;whiteSpace=wrap;connectable=0;strokeColor=inherit;overflow=hidden;fillColor=none;top=0;left=0;bottom=0;right=0;pointerEvents=1;" parent="Kq7YaeAKi1D6zh4hDfzu-18" vertex="1">
          <mxGeometry x="77" width="293" height="35" as="geometry">
            <mxRectangle width="293" height="35" as="alternateBounds" />
          </mxGeometry>
        </mxCell>
        <mxCell id="kZ4AAsYeesi5V_aor7mQ-1" style="shape=tableRow;horizontal=0;startSize=0;swimlaneHead=0;swimlaneBody=0;strokeColor=inherit;top=0;left=0;bottom=0;right=0;collapsible=0;dropTarget=0;fillColor=none;points=[[0,0.5],[1,0.5]];portConstraint=eastwest;" vertex="1" parent="Kq7YaeAKi1D6zh4hDfzu-14">
          <mxGeometry y="70" width="370" height="35" as="geometry" />
        </mxCell>
        <mxCell id="kZ4AAsYeesi5V_aor7mQ-2" value="Key Type" style="shape=partialRectangle;html=1;whiteSpace=wrap;connectable=0;strokeColor=inherit;overflow=hidden;fillColor=none;top=0;left=0;bottom=0;right=0;pointerEvents=1;" vertex="1" parent="kZ4AAsYeesi5V_aor7mQ-1">
          <mxGeometry width="77" height="35" as="geometry">
            <mxRectangle width="77" height="35" as="alternateBounds" />
          </mxGeometry>
        </mxCell>
        <mxCell id="kZ4AAsYeesi5V_aor7mQ-3" value="Mechanical Switches" style="shape=partialRectangle;html=1;whiteSpace=wrap;connectable=0;strokeColor=inherit;overflow=hidden;fillColor=none;top=0;left=0;bottom=0;right=0;pointerEvents=1;" vertex="1" parent="kZ4AAsYeesi5V_aor7mQ-1">
          <mxGeometry x="77" width="293" height="35" as="geometry">
            <mxRectangle width="293" height="35" as="alternateBounds" />
          </mxGeometry>
        </mxCell>
        <mxCell id="Kq7YaeAKi1D6zh4hDfzu-21" value="" style="shape=tableRow;horizontal=0;startSize=0;swimlaneHead=0;swimlaneBody=0;strokeColor=inherit;top=0;left=0;bottom=0;right=0;collapsible=0;dropTarget=0;fillColor=none;points=[[0,0.5],[1,0.5]];portConstraint=eastwest;" parent="Kq7YaeAKi1D6zh4hDfzu-14" vertex="1">
          <mxGeometry y="105" width="370" height="35" as="geometry" />
        </mxCell>
        <mxCell id="Kq7YaeAKi1D6zh4hDfzu-22" value="Dimension" style="shape=partialRectangle;html=1;whiteSpace=wrap;connectable=0;strokeColor=inherit;overflow=hidden;fillColor=none;top=0;left=0;bottom=0;right=0;pointerEvents=1;" parent="Kq7YaeAKi1D6zh4hDfzu-21" vertex="1">
          <mxGeometry width="77" height="35" as="geometry">
            <mxRectangle width="77" height="35" as="alternateBounds" />
          </mxGeometry>
        </mxCell>
        <mxCell id="Kq7YaeAKi1D6zh4hDfzu-23" value="TBD" style="shape=partialRectangle;html=1;whiteSpace=wrap;connectable=0;strokeColor=inherit;overflow=hidden;fillColor=none;top=0;left=0;bottom=0;right=0;pointerEvents=1;" parent="Kq7YaeAKi1D6zh4hDfzu-21" vertex="1">
          <mxGeometry x="77" width="293" height="35" as="geometry">
            <mxRectangle width="293" height="35" as="alternateBounds" />
          </mxGeometry>
        </mxCell>
        <mxCell id="Kq7YaeAKi1D6zh4hDfzu-24" value="" style="shape=tableRow;horizontal=0;startSize=0;swimlaneHead=0;swimlaneBody=0;strokeColor=inherit;top=0;left=0;bottom=0;right=0;collapsible=0;dropTarget=0;fillColor=none;points=[[0,0.5],[1,0.5]];portConstraint=eastwest;" parent="Kq7YaeAKi1D6zh4hDfzu-14" vertex="1">
          <mxGeometry y="140" width="370" height="35" as="geometry" />
        </mxCell>
        <mxCell id="Kq7YaeAKi1D6zh4hDfzu-25" value="Controller" style="shape=partialRectangle;html=1;whiteSpace=wrap;connectable=0;strokeColor=inherit;overflow=hidden;fillColor=none;top=0;left=0;bottom=0;right=0;pointerEvents=1;" parent="Kq7YaeAKi1D6zh4hDfzu-24" vertex="1">
          <mxGeometry width="77" height="35" as="geometry">
            <mxRectangle width="77" height="35" as="alternateBounds" />
          </mxGeometry>
        </mxCell>
        <mxCell id="Kq7YaeAKi1D6zh4hDfzu-26" value="STM32F4CEU11" style="shape=partialRectangle;html=1;whiteSpace=wrap;connectable=0;strokeColor=inherit;overflow=hidden;fillColor=none;top=0;left=0;bottom=0;right=0;pointerEvents=1;" parent="Kq7YaeAKi1D6zh4hDfzu-24" vertex="1">
          <mxGeometry x="77" width="293" height="35" as="geometry">
            <mxRectangle width="293" height="35" as="alternateBounds" />
          </mxGeometry>
        </mxCell>
        <mxCell id="Kq7YaeAKi1D6zh4hDfzu-32" style="shape=tableRow;horizontal=0;startSize=0;swimlaneHead=0;swimlaneBody=0;strokeColor=inherit;top=0;left=0;bottom=0;right=0;collapsible=0;dropTarget=0;fillColor=none;points=[[0,0.5],[1,0.5]];portConstraint=eastwest;" parent="Kq7YaeAKi1D6zh4hDfzu-14" vertex="1">
          <mxGeometry y="175" width="370" height="35" as="geometry" />
        </mxCell>
        <mxCell id="Kq7YaeAKi1D6zh4hDfzu-33" value="Switch Type" style="shape=partialRectangle;html=1;whiteSpace=wrap;connectable=0;strokeColor=inherit;overflow=hidden;fillColor=none;top=0;left=0;bottom=0;right=0;pointerEvents=1;" parent="Kq7YaeAKi1D6zh4hDfzu-32" vertex="1">
          <mxGeometry width="77" height="35" as="geometry">
            <mxRectangle width="77" height="35" as="alternateBounds" />
          </mxGeometry>
        </mxCell>
        <mxCell id="Kq7YaeAKi1D6zh4hDfzu-34" value="TBD" style="shape=partialRectangle;html=1;whiteSpace=wrap;connectable=0;strokeColor=inherit;overflow=hidden;fillColor=none;top=0;left=0;bottom=0;right=0;pointerEvents=1;" parent="Kq7YaeAKi1D6zh4hDfzu-32" vertex="1">
          <mxGeometry x="77" width="293" height="35" as="geometry">
            <mxRectangle width="293" height="35" as="alternateBounds" />
          </mxGeometry>
        </mxCell>
        <mxCell id="Kq7YaeAKi1D6zh4hDfzu-52" style="shape=tableRow;horizontal=0;startSize=0;swimlaneHead=0;swimlaneBody=0;strokeColor=inherit;top=0;left=0;bottom=0;right=0;collapsible=0;dropTarget=0;fillColor=none;points=[[0,0.5],[1,0.5]];portConstraint=eastwest;" parent="Kq7YaeAKi1D6zh4hDfzu-14" vertex="1">
          <mxGeometry y="210" width="370" height="35" as="geometry" />
        </mxCell>
        <mxCell id="Kq7YaeAKi1D6zh4hDfzu-53" value="Connectivity" style="shape=partialRectangle;html=1;whiteSpace=wrap;connectable=0;strokeColor=inherit;overflow=hidden;fillColor=none;top=0;left=0;bottom=0;right=0;pointerEvents=1;" parent="Kq7YaeAKi1D6zh4hDfzu-52" vertex="1">
          <mxGeometry width="77" height="35" as="geometry">
            <mxRectangle width="77" height="35" as="alternateBounds" />
          </mxGeometry>
        </mxCell>
        <mxCell id="Kq7YaeAKi1D6zh4hDfzu-54" value="USB C, TRRS for Slave connection" style="shape=partialRectangle;html=1;whiteSpace=wrap;connectable=0;strokeColor=inherit;overflow=hidden;fillColor=none;top=0;left=0;bottom=0;right=0;pointerEvents=1;" parent="Kq7YaeAKi1D6zh4hDfzu-52" vertex="1">
          <mxGeometry x="77" width="293" height="35" as="geometry">
            <mxRectangle width="293" height="35" as="alternateBounds" />
          </mxGeometry>
        </mxCell>
        <mxCell id="Kq7YaeAKi1D6zh4hDfzu-27" value="Is a custom keyboard aims to demonstrate daisy chain ergonomic split keyboards. The motivation of this project is to do half-keyboard that can connect it to another identical one, making a split keyboard configuration with one board design. One board can act as a master while the other ones are slaves. It is expected that using this configuration, it can chain up to 5 boards at max, if it is allowed.&amp;nbsp;" style="text;html=1;align=left;verticalAlign=top;whiteSpace=wrap;rounded=0;" parent="1" vertex="1">
          <mxGeometry x="45" y="140" width="760" height="60" as="geometry" />
        </mxCell>
        <mxCell id="Kq7YaeAKi1D6zh4hDfzu-28" value="&lt;h5&gt;version 00.00.01_DRAFT&lt;/h5&gt;" style="text;html=1;align=right;verticalAlign=middle;whiteSpace=wrap;rounded=0;" parent="1" vertex="1">
          <mxGeometry x="483" y="95" width="320" height="10" as="geometry" />
        </mxCell>
        <mxCell id="Kq7YaeAKi1D6zh4hDfzu-31" value="&lt;h5&gt;Revision Date: March 23, 2025&lt;/h5&gt;" style="text;html=1;align=right;verticalAlign=middle;whiteSpace=wrap;rounded=0;" parent="1" vertex="1">
          <mxGeometry x="483" y="111" width="320" height="10" as="geometry" />
        </mxCell>
        <mxCell id="Kq7YaeAKi1D6zh4hDfzu-35" value="&lt;h5&gt;Author: Natsurii&lt;/h5&gt;" style="text;html=1;align=right;verticalAlign=middle;whiteSpace=wrap;rounded=0;" parent="1" vertex="1">
          <mxGeometry x="483" y="80" width="320" height="10" as="geometry" />
        </mxCell>
        <mxCell id="Kq7YaeAKi1D6zh4hDfzu-55" value="" style="shape=table;startSize=0;container=1;collapsible=0;childLayout=tableLayout;" parent="1" vertex="1">
          <mxGeometry x="431" y="271" width="370" height="244.9999999999999" as="geometry" />
        </mxCell>
        <mxCell id="Kq7YaeAKi1D6zh4hDfzu-56" value="" style="shape=tableRow;horizontal=0;startSize=0;swimlaneHead=0;swimlaneBody=0;strokeColor=inherit;top=0;left=0;bottom=0;right=0;collapsible=0;dropTarget=0;fillColor=none;points=[[0,0.5],[1,0.5]];portConstraint=eastwest;" parent="Kq7YaeAKi1D6zh4hDfzu-55" vertex="1">
          <mxGeometry width="370" height="35" as="geometry" />
        </mxCell>
        <mxCell id="Kq7YaeAKi1D6zh4hDfzu-57" value="Software" style="shape=partialRectangle;html=1;whiteSpace=wrap;connectable=0;strokeColor=inherit;overflow=hidden;fillColor=none;top=0;left=0;bottom=0;right=0;pointerEvents=1;" parent="Kq7YaeAKi1D6zh4hDfzu-56" vertex="1">
          <mxGeometry width="77" height="35" as="geometry">
            <mxRectangle width="77" height="35" as="alternateBounds" />
          </mxGeometry>
        </mxCell>
        <mxCell id="Kq7YaeAKi1D6zh4hDfzu-58" value="Custom FW, QMK if applicable" style="shape=partialRectangle;html=1;whiteSpace=wrap;connectable=0;strokeColor=inherit;overflow=hidden;fillColor=none;top=0;left=0;bottom=0;right=0;pointerEvents=1;" parent="Kq7YaeAKi1D6zh4hDfzu-56" vertex="1">
          <mxGeometry x="77" width="293" height="35" as="geometry">
            <mxRectangle width="293" height="35" as="alternateBounds" />
          </mxGeometry>
        </mxCell>
        <mxCell id="Kq7YaeAKi1D6zh4hDfzu-59" value="" style="shape=tableRow;horizontal=0;startSize=0;swimlaneHead=0;swimlaneBody=0;strokeColor=inherit;top=0;left=0;bottom=0;right=0;collapsible=0;dropTarget=0;fillColor=none;points=[[0,0.5],[1,0.5]];portConstraint=eastwest;" parent="Kq7YaeAKi1D6zh4hDfzu-55" vertex="1">
          <mxGeometry y="35" width="370" height="35" as="geometry" />
        </mxCell>
        <mxCell id="Kq7YaeAKi1D6zh4hDfzu-60" value="Wireless" style="shape=partialRectangle;html=1;whiteSpace=wrap;connectable=0;strokeColor=inherit;overflow=hidden;fillColor=none;top=0;left=0;bottom=0;right=0;pointerEvents=1;" parent="Kq7YaeAKi1D6zh4hDfzu-59" vertex="1">
          <mxGeometry width="77" height="35" as="geometry">
            <mxRectangle width="77" height="35" as="alternateBounds" />
          </mxGeometry>
        </mxCell>
        <mxCell id="Kq7YaeAKi1D6zh4hDfzu-61" value="No, not planned" style="shape=partialRectangle;html=1;whiteSpace=wrap;connectable=0;strokeColor=inherit;overflow=hidden;fillColor=none;top=0;left=0;bottom=0;right=0;pointerEvents=1;" parent="Kq7YaeAKi1D6zh4hDfzu-59" vertex="1">
          <mxGeometry x="77" width="293" height="35" as="geometry">
            <mxRectangle width="293" height="35" as="alternateBounds" />
          </mxGeometry>
        </mxCell>
        <mxCell id="Kq7YaeAKi1D6zh4hDfzu-62" value="" style="shape=tableRow;horizontal=0;startSize=0;swimlaneHead=0;swimlaneBody=0;strokeColor=inherit;top=0;left=0;bottom=0;right=0;collapsible=0;dropTarget=0;fillColor=none;points=[[0,0.5],[1,0.5]];portConstraint=eastwest;" parent="Kq7YaeAKi1D6zh4hDfzu-55" vertex="1">
          <mxGeometry y="70" width="370" height="35" as="geometry" />
        </mxCell>
        <mxCell id="Kq7YaeAKi1D6zh4hDfzu-63" value="CAD" style="shape=partialRectangle;html=1;whiteSpace=wrap;connectable=0;strokeColor=inherit;overflow=hidden;fillColor=none;top=0;left=0;bottom=0;right=0;pointerEvents=1;" parent="Kq7YaeAKi1D6zh4hDfzu-62" vertex="1">
          <mxGeometry width="77" height="35" as="geometry">
            <mxRectangle width="77" height="35" as="alternateBounds" />
          </mxGeometry>
        </mxCell>
        <mxCell id="Kq7YaeAKi1D6zh4hDfzu-64" value="KiCAD format, plates design TBD" style="shape=partialRectangle;html=1;whiteSpace=wrap;connectable=0;strokeColor=inherit;overflow=hidden;fillColor=none;top=0;left=0;bottom=0;right=0;pointerEvents=1;" parent="Kq7YaeAKi1D6zh4hDfzu-62" vertex="1">
          <mxGeometry x="77" width="293" height="35" as="geometry">
            <mxRectangle width="293" height="35" as="alternateBounds" />
          </mxGeometry>
        </mxCell>
        <mxCell id="Kq7YaeAKi1D6zh4hDfzu-65" value="" style="shape=tableRow;horizontal=0;startSize=0;swimlaneHead=0;swimlaneBody=0;strokeColor=inherit;top=0;left=0;bottom=0;right=0;collapsible=0;dropTarget=0;fillColor=none;points=[[0,0.5],[1,0.5]];portConstraint=eastwest;" parent="Kq7YaeAKi1D6zh4hDfzu-55" vertex="1">
          <mxGeometry y="105" width="370" height="35" as="geometry" />
        </mxCell>
        <mxCell id="Kq7YaeAKi1D6zh4hDfzu-66" value="PCB Layers" style="shape=partialRectangle;html=1;whiteSpace=wrap;connectable=0;strokeColor=inherit;overflow=hidden;fillColor=none;top=0;left=0;bottom=0;right=0;pointerEvents=1;" parent="Kq7YaeAKi1D6zh4hDfzu-65" vertex="1">
          <mxGeometry width="77" height="35" as="geometry">
            <mxRectangle width="77" height="35" as="alternateBounds" />
          </mxGeometry>
        </mxCell>
        <mxCell id="Kq7YaeAKi1D6zh4hDfzu-67" value="2" style="shape=partialRectangle;html=1;whiteSpace=wrap;connectable=0;strokeColor=inherit;overflow=hidden;fillColor=none;top=0;left=0;bottom=0;right=0;pointerEvents=1;" parent="Kq7YaeAKi1D6zh4hDfzu-65" vertex="1">
          <mxGeometry x="77" width="293" height="35" as="geometry">
            <mxRectangle width="293" height="35" as="alternateBounds" />
          </mxGeometry>
        </mxCell>
        <mxCell id="Kq7YaeAKi1D6zh4hDfzu-68" style="shape=tableRow;horizontal=0;startSize=0;swimlaneHead=0;swimlaneBody=0;strokeColor=inherit;top=0;left=0;bottom=0;right=0;collapsible=0;dropTarget=0;fillColor=none;points=[[0,0.5],[1,0.5]];portConstraint=eastwest;" parent="Kq7YaeAKi1D6zh4hDfzu-55" vertex="1">
          <mxGeometry y="140" width="370" height="35" as="geometry" />
        </mxCell>
        <mxCell id="Kq7YaeAKi1D6zh4hDfzu-69" value="PCB Components" style="shape=partialRectangle;html=1;whiteSpace=wrap;connectable=0;strokeColor=inherit;overflow=hidden;fillColor=none;top=0;left=0;bottom=0;right=0;pointerEvents=1;" parent="Kq7YaeAKi1D6zh4hDfzu-68" vertex="1">
          <mxGeometry width="77" height="35" as="geometry">
            <mxRectangle width="77" height="35" as="alternateBounds" />
          </mxGeometry>
        </mxCell>
        <mxCell id="Kq7YaeAKi1D6zh4hDfzu-70" value="Through Holes" style="shape=partialRectangle;html=1;whiteSpace=wrap;connectable=0;strokeColor=inherit;overflow=hidden;fillColor=none;top=0;left=0;bottom=0;right=0;pointerEvents=1;" parent="Kq7YaeAKi1D6zh4hDfzu-68" vertex="1">
          <mxGeometry x="77" width="293" height="35" as="geometry">
            <mxRectangle width="293" height="35" as="alternateBounds" />
          </mxGeometry>
        </mxCell>
        <mxCell id="Kq7YaeAKi1D6zh4hDfzu-71" style="shape=tableRow;horizontal=0;startSize=0;swimlaneHead=0;swimlaneBody=0;strokeColor=inherit;top=0;left=0;bottom=0;right=0;collapsible=0;dropTarget=0;fillColor=none;points=[[0,0.5],[1,0.5]];portConstraint=eastwest;" parent="Kq7YaeAKi1D6zh4hDfzu-55" vertex="1">
          <mxGeometry y="175" width="370" height="35" as="geometry" />
        </mxCell>
        <mxCell id="Kq7YaeAKi1D6zh4hDfzu-72" value="Hot-swap" style="shape=partialRectangle;html=1;whiteSpace=wrap;connectable=0;strokeColor=inherit;overflow=hidden;fillColor=none;top=0;left=0;bottom=0;right=0;pointerEvents=1;" parent="Kq7YaeAKi1D6zh4hDfzu-71" vertex="1">
          <mxGeometry width="77" height="35" as="geometry">
            <mxRectangle width="77" height="35" as="alternateBounds" />
          </mxGeometry>
        </mxCell>
        <mxCell id="Kq7YaeAKi1D6zh4hDfzu-73" value="TBD" style="shape=partialRectangle;html=1;whiteSpace=wrap;connectable=0;strokeColor=inherit;overflow=hidden;fillColor=none;top=0;left=0;bottom=0;right=0;pointerEvents=1;" parent="Kq7YaeAKi1D6zh4hDfzu-71" vertex="1">
          <mxGeometry x="77" width="293" height="35" as="geometry">
            <mxRectangle width="293" height="35" as="alternateBounds" />
          </mxGeometry>
        </mxCell>
        <mxCell id="PtHQN40-Yn_vbMSR8VxC-4" style="shape=tableRow;horizontal=0;startSize=0;swimlaneHead=0;swimlaneBody=0;strokeColor=inherit;top=0;left=0;bottom=0;right=0;collapsible=0;dropTarget=0;fillColor=none;points=[[0,0.5],[1,0.5]];portConstraint=eastwest;" vertex="1" parent="Kq7YaeAKi1D6zh4hDfzu-55">
          <mxGeometry y="210" width="370" height="35" as="geometry" />
        </mxCell>
        <mxCell id="PtHQN40-Yn_vbMSR8VxC-5" value="Form Factor" style="shape=partialRectangle;html=1;whiteSpace=wrap;connectable=0;strokeColor=inherit;overflow=hidden;fillColor=none;top=0;left=0;bottom=0;right=0;pointerEvents=1;" vertex="1" parent="PtHQN40-Yn_vbMSR8VxC-4">
          <mxGeometry width="77" height="35" as="geometry">
            <mxRectangle width="77" height="35" as="alternateBounds" />
          </mxGeometry>
        </mxCell>
        <mxCell id="PtHQN40-Yn_vbMSR8VxC-6" value="Half 35 key" style="shape=partialRectangle;html=1;whiteSpace=wrap;connectable=0;strokeColor=inherit;overflow=hidden;fillColor=none;top=0;left=0;bottom=0;right=0;pointerEvents=1;" vertex="1" parent="PtHQN40-Yn_vbMSR8VxC-4">
          <mxGeometry x="77" width="293" height="35" as="geometry">
            <mxRectangle width="293" height="35" as="alternateBounds" />
          </mxGeometry>
        </mxCell>
        <mxCell id="Kq7YaeAKi1D6zh4hDfzu-74" value="&lt;h3&gt;Layout&lt;/h3&gt;" style="text;html=1;align=left;verticalAlign=middle;whiteSpace=wrap;rounded=0;" parent="1" vertex="1">
          <mxGeometry x="40" y="530" width="200" height="40" as="geometry" />
        </mxCell>
        <mxCell id="Kq7YaeAKi1D6zh4hDfzu-126" value="" style="shape=image;verticalLabelPosition=bottom;labelBackgroundColor=default;verticalAlign=top;aspect=fixed;imageAspect=0;image=data:image/png,iVBORw0KGgoAAAANSUhEUgAAA0sAAAEiCAYAAAAoIEnNAAAAAXNSR0IArs4c6QAAIABJREFUeF7snQe4HlW19/dJIZ0AqYTQEkNHQBBEQRBpUgTpRUDpIB2R3qWLXFQQpXj1+xAEhQeRcqVcuX5eQaWJqGAkBFMISU56L+d7fvs4yZw5b9nzTtnzzvuf557HS949M3uVvdb6r7X2njZjjOno6Og5e/bs9dva2rZfuXLlHh0dHSOMMT34TZc4IA6IA+KAOCAOiAPigDggDogD6XEAmLEyvcel9KS2trbJbW29XjRmxev//Oc/J++www7L2jo6OtpmzZq1dVtb23UdHR17GWP6N/K+NkBXIzcmuieFt6bwiEQk6GZxQBwQB8QBcUAcEAfEAXFAHCgSBx4yxty09tpr/61t3rx5w5YtW/aAMWZPY0zfQsxSAKYQYtAkxAFxQBwQB8QBcUAcEAfEgVbkQFtb230rV668tm3mzJnn9+jR4+J/t961Ii9EszggDogD4oA4IA6IA+KAOCAOiANhDiwxxhzS1t7e/t9tbW27dHR09BJ/anFA5S7phzggDogD4oA4IA6IA+KAONAqHFi5cuWtgKXXjDHbtQrRolMcEAfEAXFAHBAHxAFxQBwQB8SBehzo6Oh4RGCpHpf0uzggDogD4oA4IA6IA+KAOCAOtBwHOjo6nhZYajmxi2BxQBwQB8QBcUAcEAfEAXFAHHDggMCSA5M0RBwQB8QBcUAcEAfEgboc0O7muizSAHGg2TgQHyytWLHC8NfRkf9XlZJyt0ePHqatrc307NnT/m/4El1JuZv+/ZJX+jzN8omSV5bcTf/ZteSV/tua94krV640wV+z+T38HH/IGr8XvkRX8XRS8mquuFLyKo+86lgDd7CEkwBQzJs3z8yfP98sX7686QDTGmusYfjr37+/6devn3UecegqasYoKV3FcxmdMxJdzWWIJK/ml1dRbYGveQEoFi5caP+WLFnSdH4PH8ffgAED7F/v3r0teBJdvjSq9nslr+aKKyWvcsjLwRq4g6Vly5aZ9vZ26zSaLbsWZQQKvvbaa5uBAwdaACi6HFTF4xDJyyPzG3i15NUA0zzeEpYXFQhdnRzAz5EcnDVrlvUTzX4BlvB7AKZ06CpG+jB9uooh6Wanq5p2NDtd1bRDdBVj3bjOIiyvaKdZhWe4g6XZs2ebOXPmdHMavATjW6m1zXXSWY0jewbIq+TomO/w4cPN4sWLzdy5c0VXVkKI8VzJS3oYQ10yG9rKeti3b99uLcqZMbrgD8Z3fPjhh9aHRK9evXoZ/oI2nKKQEnRK0PmBHkevwYMH2wrT9OnTRVcBhCZ5SQ8LoIarOqxa0W6stdZa3VqUGwZLGN0pU6aYpUuXdnsG1RlAB/9btKwkQIis4MyZM237RPQaNmyYAQRWcoaiK/8lLHl1D8qkh9LDtDhQb31hxwmkHbJsaU2p0M+h+kLXQTTZRqIN34GT7dOnT6H4hZ9btGiRBUO0y0cBE62ytKDzm+jyr36Sl/TQvxYaGx+3qt0YMWKELfjUudwqSxjVqVOndgNLgKNx48ZZ41vka8KECbZ6FG0fpCUBhxgFUqLLrzQlr07++9LDuM01kpdfecVdrdXkNWTIEDNo0KDCJb3i0pfWeJJs+Ico4IBPI0eOdHGwaU0l9nPoApk8eXLFBCfVQxKfois2WzO7QfJazVqtr8zUrO6DW1EP11tvPZv0SgUsASZoR4hWlmhDGDt2bOHBElUxHF80k7bmmmvaPVhRsCS66ulNtr9LXp38lR5mq2f1nt5qekjyCJsYPTWtHp/K+vtHH31kFixY0C3JNmrUKENAV3Q+vfvuu9a/RS+qS3RTRJOHosuvJktenfyXHjabHq5nhgxZp2ntYS5gCaM7ZswYQ6YqfMXNTGetGgC9GTNmdANF1cBSNbqynmfc54uuTo5JXnE1J93x0sOU9DAnw1lNXgJLXddFNbC0wQYb2Ba8orWdR1d13OBbdKVrF+M+TfLq5Jj0MK7mpDu+1fTQK1hKV3TJn1bOYK7NfPjhVIFAgaXkCyThE8q5voytpmeeZMkJIIVFLLDkpvACS258yntUqwVz1SqBAhV5a17X90kPywFuBZZCep1L0ONh3YqulDL6OclO8pK8clK1mq8RWHKTgsCSG5/yHqUgtRxBqkBg3ivH7X2ttr4ElgSWurUdql3NzVhkNUpgSWApK92K81yBJTduCSy58SnvUa0WzAlU5K1hbu+THpYDtAssCSwJLLnZvNxG+QJLWXd6+aIra8G1Gl3as9RVo9zAUtarq3EtVzBXjmBOYKnxNZDlnVpf5VhfAksCSwJLWVrKBp7dasG3DlBpQElyuEWVJTcmu4Elt2f5GKVgrhzBnMCSj9VT/51aX+VYXwJLAksCS/XtXa4jBJY62a120FzVrtvLBJbc+C+w5ManvEflEaT6qBfmQVfesuJ9oqscoKKsoF1gSWBJYMmHZ6jxToElgaUiqKTAkpsUBJbc+JT3KAXfCr7z1rlK75MelkMPBZZaACxN+/BDMz3x96N85NBqmzqBCoGKIjjDVtND7VnqqnUCS0VYhd3noCC1HEFqWSsVoqu57IbAUguApVYL5rQHpphGSHpYDnArsCSwpI/t+rOxAoECgf60b/WbW00PBZYEltSGV9fy5FtVE6goB6goK2gXWBJYEliq6zQyG9BqQaoqMJmpUqIHt5oeCiwJLAksJTIZ6d8ssCSwlL5WxX+i9iy58UxteG58yntUqwVzAhV5a5jb+6SH5agEFgosTZ061cyosLdm2LBhZsSIEaZ3794mOgYChgwZYnr27Gklsnz5cjNx4kQzb94809HRYfr372822GAD069fv7qaXYQgdfHixWbKlClm+PDhZsCAAaatjaqG+wV/li5datZdd117mhiXT7rmz59vPvjgA7NkyRI7l6i8opS1t7db+pctW7bqp2r3+KQLOaFnixYtMr169TIbbbRRLHkhpz59+tg/aEbH+/bt611eYXlU0iV3Tew+sijywi5gS+LKrBrtPuliTmGbGLaVSWRVy26ostSVs1mDpUp+MU39TT2Yi1GID/uHwYMHm9GjR6/yW676iy2eNGmSGTp0qKGa26NHD3tr6nS5TsgYa9MDP1aPrmjMwmtqxS0+6Qr7PXgdR17cO336dOvrZs2aZX0fvAliN590xRBt7KGiqzJYwkwsi8TrjGT9ErOjGytXrrRxFv8/fgddCdbLihUrzPrrr299eTjmD9tGxoR/C4RXa01Wk1ehwNINN9xgHnroIWsoWEjBdeihh5rjjz/eBtzf/e53zcsvv2wBAf994IEHmuOOO84ylyDozTffNLfddpuZPHmyvR0DesYZZ5jPfOYzNpitdfkOejAmL730kvne975nLr74YrPTTjtZRYhzwUOU4/LLLzcbbrih1+AbpX766afNvffea43jggULDLI8+eSTLfgNA8FgAfzqV78yzzzzjMGJ8jv/joz523TTTbs4Ul/yYgH//ve/N3fccYcFoszz3HPPNfvss48ZNGhQXXFB0/XXX28+/vGPW/D4s5/9zJx22mlmk002sYbCF13hicP/q6++2sqN/w10qS5xNQb4pOvtt982Z599tk2iYFtIsEAXMgDsJrl80kVQdvvtt1t9XLhwobUZ6CJAMAgaG6VNlSU3zmUNlu6//37z2GOPmblz59rgAWCA/cRPfOITn0isv76COfwd9h7/AG3YmG984xtm6623juX33nnnHXPeeeeZU045xey77742fvAJlrCd0PTEE0/YGKUWXazfv/3tb+aee+6xfpsYJohbvvrVr9q4hSAxvJZ9yQu/RXxy55132qQ2MVcceb322mvm4YcfNieeeKL9380339x84QtfsADXp7zcVnnjo3zJq/EZu92ZBl0zZ860+vDee+/Z2AkwxPo5/fTTzRFHHGEAOyeddJLZf//9zZFHHmlj+CDG5/+/6KKL7Phvfetbq2J+Zn/mmWda3UJnuT/8fGwoIOuKK66wOhiA9YDqXMDSiuXLzdQPP7RAJny5fi+lUqAfPAcCr732WoNhJMghcP7Xv/5lgdAee+xhGT579mxzwQUXWAPDfxMQPfXUU+bBBx8055xzjtl+++1rGmGfQQ8C/3//7/9ZQ4QzvPvuu82nPvWpWE4DXhUJLM2ZM8fcddddFuiglCj5ZZddZi688EKz2267dQHEf//73811111nK4CXXnqpGTNmjHUQPOOaa66xxhkAGVZuX/LCAf7gBz8wO+ywgw1WAHeAfGjD0UcXX6DDASBEvgFfeNbvfvc7u7i33XZbK29fdIXnCchlvY0dO9YmH5odLL344ovm//yf/2O+/vWvWx1KCiTC9s2XvLCJDzzwgHn11VfN+eefbzO23/72t82ee+5pQVNQqXRzfd1HCSy5cS5rsBSeBcEFibDNNtvMJgnxcUmvNIKeRuZAAgNfgO377Gc/a+08ARBJjZEjRzo/smhgCVtDMgxbs8suu1j7SdB31lln2eRYcAEWAcKAqiAgHDhwoP0Zn4KPOOigg8xhhx1mAVO9YC7rNrxp06bZIPaQQw6xgeitt95q7SjyCtMVFVxQZfvlL39pK27Eaz//+c9tfMOz0GESjr700FnRGhzomy54TqfOOuusEzuerEVyGnQFYCkAQ1R8Hn/88VXx1KhRo2wShN8PP/xwGxvfeOON1r9RQIEuft9xxx2tblIcefLJJ60fJI7caqutLEYIP5+Yi1hyyy23tM9k/2X4ygUsEQziYLMASxB45ZVXGgwMTmKbbbaxVQaMDe8kCwOTCDxhEmCKhcx9VABgzOc+9zkTGKNKSuAr6GEub7zxhhXwJz/5SfP888/bjA0K0MyVpSiPMbYo9sEHH2wdQJBRQqY333yzbT2k8gRwpALA7wAP5Pyd73zHsHCOOuooGxRy+ZRXmDYyZrfccosNWAFQ1SoVAD8AyG9/+1sL/qADQ0alA3CPDmPQfNMFcAWs0z6JkyaIaXawBKj4zW9+Y44++mgbiNVrB43jF33Ji0otiSN07mMf+5hdK2rDiyO5dMbmBZYAxyT/nn32WZv8GzduXCqgP42gpxFOAvKD5Nmuu+5qfQB28ZJLLrGZX9eraGCJ5Owrr7xigSB2k5iEKiA+nUp2kEyjQ+ZHP/qR7SqgnQ09AlThB4mh6I754Q9/aIPAcKLXl7wAt4BAqnjYHIJaKkRk6MN0ReUG8CO5SLKU6gExDUEyMdpNN920qrrviy5XPWt0nG+60Edir2OPPdZWpNO60qCrElginqJbAj2jennqqadacI7O3XfffTaWhxZipQkTJti4a/fdd7exIzEi8SNxFokK1g22MgyWwClXXXWVBUnEXEE8WS8ZUbg2vLfeesuccMIJqzJL4f7F//qv/7JBHMEzQTeCD3oPMTIYJ4wOv0UZ4KIgvoKe8Nww/AgSAZcJLOHocRpUzlB+MolB5jsoz3/lK1+xrUQAo/fff9+2pbEn6IADDrAZgx//+Mc2WxdUb3zLK6gUPfLII+Yf//iHzVa4BDBkHl944QXLB2jCaYTbEXzSFQau48ePt4Yn3NLpso6qjfFFV1CVJrMJMCWBAmAHoGIAk1aZfNGFoyEAA5yzXgDeZNxwHhtvvLGlK8b2kW5iU2XJTdvzAktBVYnM/H777Vcz8ec2885RaQQ9cd4XjCV5RAIUYERQAxAE9NNuQyDkehUNLD366KMW0BKPUAH89a9/baswJJ123nlnCxbCrdgEgbQjkuzF3zGGvT1UbEjy4O/CGXBf8sJvMR9sDhl7Wn+hCRkGdFWTWZDYoVWdBBwBfLj13KceuupZo+N8yCto16XbCt3CNxBjEDOntVc3DboCsERXDR0RFDMoFhB3oB9BIpl1BFjHLgDYg+RtUAzBt++9997m85//vH1GkAyFfvx8+PnYHXAECftKdrRpKkvRPUsAIzJNZJ4IroPs/Ouvv26zLxhaFi9BKsEqTKHXMVpac1F0X0FP2cESC/ef//ynzRaEswLQzW/0d6P0BHr0npIhACA999xz9r+DTCP/P60MQfXGt7wCXfzjH/9oDdExxxxj9bFeGx7gCiMRtCMQKOBEMAA+2/CCvVgkJShxsxZpdW12sBQYVAwtBpK9AQAKjChtILWqzUW2G+gQiSEOcyFDjz2ELgIr2neyoksHPHTVirzAEgE4e5eQcdA54aKf9cakEfTUe0el3wmI2K+D/WcOX/rSl2zAhC8PDidyeW7RwBJdIsQk7J8CRBCs/vd//7dtx8PHkdygakT2mwThn/70J/PXv/7VbiEgyfu1r33NJoGxuyTTCBhJIAcJYF/yAgTSPse84oClYF8WiVJa8oPWc/wl/AkOsvJFFzoWPkSl3oEcLjoZHuODrsDnAXBpXQOc4/8AS2nt1U2Drkp7lthzSFsq8RF7+NjjTlWSdk2AHr6OSma464o1R2WadUXCl2Qoa4a1w/3hPUvIJjgHoVJSpmnAUvRwgkDpEDany8AwmEmPa9CaF1Sa6PGt1EMbnDwWPnmlksL7Dr6ZU9kqS8gN5WMDKyV4wA7BXXCRSSMDRxWNLADBOeVXQAeZBMquZBjITHEQAopP9rEoByFAB4cgELTS5kl5uBpQDzKpZFBpMcQQ8G84QRwHAMVnGx5zwRABaLfbbjvz05/+1DoRgjPaQ+MEMEVdX8wr0LkkVegwfb7sBnrHWgEYAbZZE6wl2njo007acqHKkltYlAdYwo4SXGMfaEOn0p7WlUbQ08hcAH+0p9HGRQIM/02XAf+NjXc9CbZoYAlehA/lANji25BfsF+SLgta05Al1Zovf/nLNjgkuPvmN79pwfBee+1lOzEIDMmaB4cH+ZIXrYUcsBV0d3DYAxUzKksBCKykB7ThEcjiS/CNVM2gheQgPAkO2fFFV1ReADh8XjhOMQlq9D7pgrZma8MLWuuIpdCrYA8j3VbYCOIQ/o3uCTqRWFv4vCA+qXR/uA2vnq1qerAUBJoEBQSlACYcCEE47UIECaDLn/zkJzYgR+FhHlkNFirBeL3TynwFPWlWloI9XGTNg8Xuiy4qFQCe8Ia8KJIPNtsRnNPKRrYAcIRRZeMrbZk4FKodyJOsebCp2Rdd6B2gLsiws78K/SMjSkakViBD7zCtC8iHYBeHQ096uEffF10kKnBerCeAXHB0ONUXqrZdnUc9k9P9d190ReUF38n8ksWmgulygmEtan3RFSSLyLaxlw+ZBa0/JBWSBtQCS246ngdYwm5QeSCpQlDt8ikMt9n7a8MDCITBETae/cW0odcKvqN0YbfoWiCb/OlPf3pVe7evIJWKGXuvgs+dEKPgLwjwSNBwATz49y9+8Ys2KRXELCSE4QF2ieQuh9LgK2jFC/bC+qKL7hC6PPDPHKJFrBXdI15N5wCEJDypLAGQicXYUxLWY190ua6TRsf5pguwGrThxWlvrUdvGnRV2rNErB8cAoaOkBAMwA7AiIQu/04sSPs5ekiyeosttrBdPTyT+7GTdKSF72dN1buaBixF9yxBWFAWxXDQfoeBIRsf9B5iIMnKwyiyHPwvi5Jglv5HNpJyxCCHQtQ6JthX0JMmWCrSd5aQD4pK+yTtT8FCjW6upz0BcMS4P/zhD9ZRkFUEZLG3ifEYZY5EDsvQl7ygi+wf4IisGPNgoytAKWgXrbYgw9UyaCIzEj60gvt80RWdc63TKesZnEq/+6IrKi+MIQ4Eg0rbbkWbEGOzjy+64DF00K5Kyw+BFtVX1gkbXrM6DW+ttdc2g/99+EojelC2e/IAS9HN9UmPuw/LII2gpxGZBq0zBELsSQA0ADRIZHAKp+tewqJ9Zwm62BPBmsSvAYqi+yMAHoAi2oForSTQwxZRbePgBypN7Amiys+hNOEg15e8sKMcnkVij+QztgYQF2y2r6YDJE2Dahmnx3KQFQCQBGlYj33R1YjuxrlHdHVyi8MaWA/hdV1pzxLJjyCeYl1wWma4MkRnDokW2uwA7SRKeDY4gCIKGIKWURIQtItG768nu6YAS+HSdZigcFk0Oibaexje0xT0abr2aPoMegJ6URSMKwE0hjKuUyxSZSlaqQhoJMMW3ljHxlYWANlwsotUWzDIZMb//Oc/24oSlQ0cBieZBR8e9CmvKG1RmqotSBwp9LGvjuO5AYJkScL7S3zSFZ53JV2qZ2hq/e6TrrC8qF6G90HWmrMLZvJD1+qZhW2iqx66yLEUlSUXAbowo8aYPMASdoOgmqRg8FmFhNNedbvPYA6wz4lvVGKw766+Okx70SpLzC28JivtjwiAB+3NtBN9//vft8kOgkKqbaw9Kvq04uEbwh+Z9ymvsB3l6O/u7WrdtTL8qQ26QvD30Bb9FpxPutJaS5WeI7qqg6VovB6NETm4LTjZjlZU1kKwH4t9TBRBaOcksUshhZg/fM4BY6P315N1U4ClekRk/bufoCdrqopTqahGaThjFWQZw/tjKCHTtkDmkWwC4IKsueTVyVHX75hlr2m13yB5FUBeMcBDKcBSDkqfB1jKkgwFc9WDuSz5DlAkg87BFnQkhD8+G5y0ytHidMrQqh20QUtefuTVqC5IXuWQV6GODm9UGdO6T8Gcv2AuyFiRSaCsHz76/X//93/tUdtsWg+3uUle/uTVyJqTvMohL52G11X7BZYasQbZ39MMQSoVqF/84he204JDLjjggYt9sAAlOinY2B7eL9oMdDUiXdFVDlCR9ceRG9GtOPeosuTALQVz/oO5Sq2YlU+nKX7FzEHlKg6RHvrXwziyazV5CSwJLEX3HsRZL3mNbZbgu1K7evSTKWGeNQtdceUsugSW4upMFuMFlhy42mpBD3t/OGCAkn/4UluXg7JkOER6KLCUoXo5P1pteG6sUmXJjU95j1LwreA7b52r9D7pYTn0UG14Ie1WkKogtQjGVXooPSyyHqqypMqSKkv+VqiC73IE32VtVysrXQJLAkuqLPnzexXfLLAksFQElVRlyU0Kqiy58SnvUQIVAhV565wqS50HTi1btsx+9y98VTo6vAjyic5BbXgOUlGQqiDVQU0yHyI9lB5mrmQOLxBYcmCSMUZgyY1PeY8SWBJYylvnBJYEltra29tfM8ZsV0v52PuCg126dGmXYdoD43fJKvhW8O1XAzvfLj0shx6qDa/rahJYytK6xDjrPjINgSWBpSw10/XZ0sNy6KHa8EIar2CuHMGcDq5wNeP5jtP6Ksf6ElgSWNKepXxtZ/htCr7LEXyXtV2trHQJLAks+d+zZJOH8TOICr7LEXwL3PoLvGq9ubnb8OLbk0aloMpSo5zL9j6BCoGKbDXM7enSw3LoocCSwJJ/sORmc7qNEljKESylEHtKXjnKq8E1Fb6tucFSCgxwfITAkiOjch6mILUcQWpZKxWiK2eD4Pg6HfDgwCgFc+UI5lSpcFB2D0O0vsqxvtSG13XxCCx5MCYOrxRYElhyUJPMh6SuhykkLtMgOnW60phUCs8QWHJgooK5cgRzAksOyu5hiNZXOdaXwJLAkvYseTCg/35lqwWpqsD407Vab241PXRrw+t4OtFpeL179zZjx441ffv2LabU/z2rqVOnmhkzZpgVK1Z0mWe14Ft0+RWn5NXJf+mh9DALDlRbXwJLAksCS1msOLdnNnWQWqMq0tR01RCd6CpHhdMNLJlkYKlnz54WLPXv39/NGngaNWnSJNPe3m5WrlzpBJZElydB/fu1klcnI4qghy6dAZJXceTlsnKryUtgyQ0sjR492sAr1mdRLxKD48ePN4sWLeo2xWoZfdHlT5qS12re19VDF6eUsSglrxjyylgWLo+vJa9cwBKTRLEHDx5sevXqZdra0OLiXDCIv4kTJ5qFCxd2+/JwtcqS6PIjQ8lreTfGa33lr4utqocCS25gCb8xcuRI21HRo0eP/BW0zhvR31mzZplp06aZZcuWOYMl0ZWXKLtG+5JXR7ckttZXXrq4+j2tqoe5gSVA0tChQ02/fv0KB5gWLFhg5syZY4FStKqEitQCS6Ir/8UqeXUHS9JD6WFaHKi3vgSW3MASo0gQ0rJGlaZoSULkzOEUlYASc69WWRJdaa20eM+RvLqCJelhPP1Ja3Sr6mFuYCktQfl4Ti2w5GM+ab1TdKXFyXyeI3nlw+e03lJWeQksuYOltHTJx3NqgSUf80nrnaIrLU7m8xzJKx8+p/WWsspLYMlBQ8oa9IguB+EXaIjkVSBhOEylrPISWBJYclD/wg5JJZjLfT9M/RemQlcBpSa6CiiUGlMqq7wElhz0sKxBj+hyEH6BhkheBRKGw1TKKi+BJYElB/Uv7JCyBnOiy4/K1YexleclefmRV6NvFVhy4Bx95/RpLl/efa+Iw+0FGtJ1WZeHrq4sFl0FUjmHqUheDkwq0BCBJYGlAqlj7KkoSI3NMq83SF5e2R/75WWVV6pgicMRpkyZYpYuXRqbwUW+YciQIWbu3LlVN8IWee615ia6mktykpfkVQQOcFDPwIEDC3nCmw/+8G2++fPnVzwcyMd80ngnh1EEQU+lQ4/SeIePZ4guH1xv/J2SV+O883FnmeU1atQo06dPn3psdfvOEk/hQ4aLFy/udvx28IZGS5b1ZpjV7wh/xIgR9rS8WnRl9f6sniu6suJsNs+VvLLha1ZPLbu8ONW0aKe7ZSXLes+dN2+ePYK7+TsPVlNKUICMAYGiq54G+P9d8vIvgzgz8C2vrOJw33TFkUGcsdA1fPhw07t373q3uYMl2tX4sGu140hXvykrcdWjxf33ACXDJKplbnS5P9/XSNHli/ONvVfyaoxvvu5qBXk5OA1f7M/9vXx3hOoSH3YtQxWGb0JRPeT7UDNnzmwCutxiieajy02VRZcbn4oySvIqiiTc5hHIq3///i7dFO5giddjYPlmEU6ko6OjapXJbar5jyLYCQIe9lOQYYNhoit/Wbi8UfLq/v0JF775GiN5lUNevvSniO8lSUgVhu4DABN+r9kufBx/Awbvy8XnAAAgAElEQVQMsN+G6tmzp92rK7qKKUnJq5hyqTYryav55eVAQTywxAMxsrQnUJEJQJPDiwoxhJIb/do4jGgGVXQVQkRdJiF5dSYlmuWSvMojr2bRuTzmuWTJEru3FcBE61rea9KtvlKZEyQwSAqyFy2aQfVNVxLZia789VDy6s4B6WF59LCOfruDJRwE4AigFPQ75+00kixW7gUo8YfTwIGQYRNdSbma3f2SV/MAJa2v5nIa1eSV3WpuzidTTaKbgj/AhQ+wlIRz+Dj+qCrxR5KQAE90JeFqdvdKXs1lR+PKK0niIzut6/7kuHTlObck76pGl8Mz3cESe5XY24PTaDaQFGUEDOOYXLJtAEDR5aAqHodIXh6Z38CrJa8GmObxlrC8aCnR1ckB/FxwyAN+otkvwBJ+D8AkuqpIs0DRrOTVXUYFEk+3yUlezWUhw/JyONTIHSzNnj3bnhwXdRq8BOOLw3V4Ya7cJHsGyKvk6JgvBzzQWkGLhejKVTQVXyZ5Za2H6boayStreaW7Jl3kxeb/tjYAU3NVNdPlVOfT8B0ffvhhxUONevXqZfgL9ull8f5Gnhl0SlABq3QoBXt1CRKmT58uuhphcMr3SF7Sw5RVqqHHtbIeBvs46zDODSzV+s4S1RlARxG/zwEQ4uhXDnCodEzqsGHDDCCw0gl/oquhNZfoJslrWTf+SQ8TqVRDN7eqHmLHCaSLlvRqSIgp3ET1ha6DaCKNRBu+AyfLPr2s+RUnxYGf4/Q+wFClb0TR2hwcHe6brrCI6tFYna7OO4tKVz01bFZ5ia7mWl+SV3V58Qkhh1Ng3cASRpXvLEU/SkvLxrhx46zxLfI1YcIEWz2Ktg/SkoBDjAIp0eVXmpJXJ/+lh9LDLDhQbX3xceRBgwa5HKOaxbQK90ySbPiHaIUGPo0cOdLFwXqjiS6QyZMnV/yQPNVDfLno8iaebi+WvFazROvLn162oh6ut9566X2UFjBBO0IULNGGMHbs2MKDpSlTptjqUjSTtuaaa9o9WFGwJLr8LVbeLHl18l96KD3MggPV1hfJI2wilRNdxnz00Uf29Ndoko0vvhPQFZ1P7777rvVv0YsqDN0UoqtYWi55dcpD68uvXraaHuYCljC6Y8aMsR+5K/IF0OPjglFQVA0siS6/0pS8OvkvPZQeZsGBautLYKkrt6uBpQ022MC24BX9MIy4QU9h6Yr06JWGrsjibhW6AnFWA+2F1cMWlVdAdlnlJbAUUmwF3wq+swg64z5Teig9jKszWYwXWHLj6iqwxGEXofMuFMy58S+rUa0CKsoepJY1+BZdWa38ZM+tZjcElgSWulXSVKlIttiS3i2wJLCUVIfSuF9gyY2LrV1ZqnfkghsPsxglsNTJVYH2LLTL/ZnSw3LoocCSwJLAkrvdy2WkwJLAUi6KVuclAktuUmhtsOTGIx+jFKSWI0hVBcbH6qn/zlZbXwJLAksCS/XtQq4jBJYElnJVuCovE1hyk4LAkhuf8h7VasFcmqDCR71Q8io4uG3xPYG5gyUfi9DVSCtIVZDqqitZjpMeSg+z1C/XZwssuXFKYMmNT3mPUvBd8OA7ohCSl+SVt42o9D7tWXKQgoJUBakOapL5EOmh9DBzJXN4gcCSA5NM9aPDtVfEjX9ZjVLwreA7K92K81zpYTn0MPfKUhwly3usglQFqXnrXKX3SQ+lh0XWQx0d3lU6qiwVQVu7z0FBajmC1DTbC31oqvSwHHoosBRaPQpSFaT6MKbRd0oPpYdF1kOBJYElfT/K3wpV8F2O4Fsg0N8aqvVmteE5yEVBqoJUBzXJfIj0UHqYuZI5vEBteA5MUhueG5M8jBKoEKjwoHbdXik9LIceqrKkypLzaXhFO5xDoEKgogjOsNX0UJUlVZbqV5b8ewsFqeUIUlWBKYKX6z6HVltfAksCS85gqWhLttWC1DXXXNMsXLhQ8iqYIraaHgosCSzVB0v+F2mrBXMCFf51rtIMpIflAO2FAkuLFy82EydONIsWLTIdHR1d9G7YsGFmxIgRpmfPnmbSpElm5cqVZtSoUQYDwVXp3t69e5uNNtrIDBgwwLS1kemqffkMeubPn28++OADs2TJEjvJwYMHm9GjR6+ir97ca/2eN11Tp061/B4yZIhBBoFskAMyDP4NOQ4dOtQAAnr06BGbxLzpCibY3t5upkyZYpYtW9ZlzmnJzBddyG3GjBldwBhy4VQvaGtERmEGFYku5hXXPlRTUB90YS9YP6ynsGyq/XvsxWWMURueG9eyPOAB21nJTkZtrNtMK4/yHcxhTxcsWGB1OfDnSegJ7vVJV9iWpmlDoc0HXcuXL7ex2bx587rEZmn5PF90BbpCPMk6mz17tllnnXVWxSnNrodB7EWsEicWdqHbhx4G88LPIavhw4enajNq6WGhwBKL8dprrzXjx4+3QducOXPMuuuua/r27WsOO+wwc/zxx9uFevnll9tFy9ixY8fawPydd94xp5xyimXgoEGDbGC3dOlSc+mll5q9997b9O/fv678fQQ9TApn8V//9V/mP//zPw1KwLX++uubr33ta2aHHXYw/fr1qzv3IoGl2267zVZATjvtNDNy5Ejz9ttvm9NPP91st9125uKLLzYoHf92ySWX2H///Oc/b2Uc9/IlrwcffNDceuutNthm3gEQ33nnnc35559vdTbJ5YuuG264wTz00EN2rfTp08eSgD4ioyOOOMJQUUhy+aLr/vvvN4899phdZ++//74FFzhEEjBXX321+fjHP2569erVMGk+6HrjjTfMFVdcYQ488MBVsiGgeeKJJwz0nnPOOWb33XdvaF0FjBBYclOJLMESfu28886zvm3fffdd5cdYq9idk046yQZ2SS6fQQ/zxp6+8sor5sILLzQbbrhhElK63OuDriDovvfee83LL79sE4X829FHH20OOuggm+Al4Zvk8kHXzJkzzYknnmjee+89G19BA3QRp2CHNt9886akK5ADCXr0Dz085phjzFe/+lXrI9K4fMgrmDcx9ZVXXmn+8pe/mDvvvNN86lOfsnFLGpdPul599VXz05/+1JxxxhmrMEAaNDUNWAoTiwHF8bMQt9pqq1VZ7Weffdb86le/MpMnTzZnnnmm2XXXXW1AUMmpoBxvvfWWueyyy8yYMWPq8tJH0EOAc88995jHH3/cXHTRRTbAwQkCOH73u9+Zq666ygKmJAqeN13Q8utf/9oaH8AsQPC+++6z4PWaa66xwen//M//mJ/97Gc2ENh0000bqlrkTVegQNV0s66COQ7wRRcBGMaVZEQQtCBLABRraOutt07kEH3RFbA9cPj777+/OfLIIy1oSuPyRddTTz1lA03ALE6QzCjJiEMPPdQccMABZuDAgYnIE1hyY5/Akhufqo0qE1jCxmA/sS34NhJn2FR8+yc/+Unzla98xSZpklw+gtRKtpMuGOzNlltuaQ4//HBDa2aSywddUbC04447mi996Uup+YZawXdebZOBTqJ722+/faJYMixfn/KaNWuWxQYAW9ZVHhXpQlWW6oElgMX1119vg22qTyxWMmsQUQksAazIKJPtdwnIfQQ906ZNs8HOIYccYg4++GCbteGiqgZqRhFOOOGERFmOvOmaMGGCBXlkQzE+VGHIfr7wwgs2w7bnnnvarADy478bdR5509WKYOm1114zt9xyi11DgPZmq8CEbUrZwBLrB3tI9pq19txzz5np06fbii4Z7KSXwJIbBwWW3PjUCmCpWsxBxYLkLXaUDoskdtRHkFrJdhKP4ecBSVRiGvXjgV74oEtgqfG161Ne+L6bbrrJbLPNNmavvfZKnBh0AYFNBZaoJt144422HMw+l7vvvtsCCSpP//znP83ZZ59tWxVoh6LaREacDPlRRx1l98/Uu3wE37SjYXAwojvttFMX1E91CbpoJUzSnpA3XSgyLZJkMch44yT22Wcf86c//cnKgf8fRf/sZz9ryPIHALGefKK/501XGCyhW+he0AbKbywm6EvaZuGLLipLVGKhi/ZJrueff962rpElhdYk+5Z80RXIrWxgCbpox7vuuuus0/j73/9uq7nbbrttomAs4JfAkptFElhy41MrgKVq7ZH4cWwooCLcTtkI53wEqYHtxLaQ7KRqTUKXGIwtEvvtt1/igNUHXQJLjWhg5z0+5cX76XqhSHLcccfZ2Cutq+m+s1Sp1Ymszc9//nPbZsL+iR/+8IfW8LBQAVLRPUtkVwn8dtllFxuQ1zvkwUcwR8aJ1jTanKL9pA888IAhs08Jv5nAEkoLQJo7d64FrmS8qQBicKn0Ib8f//jHFvQmybL5kBe0VduzBFhPw2n4oiu8Z4m2z+AAge9973vmE5/4ROIA3BddZQZL0HbXXXcZZHTsscfaarRLYsjFsQgsuXDJGIElNz61MljC95177rm2XY1MuMse6mr88hGkVtqzxPzw5ewlT2N/jw+6BJYaX7s+5cWsSUAQZxL3b7HFFomT1AEnmh4ssd+FagV7XbjIcNN+QjD+9a9/3R4oQHUmvBGWTWBsbgNsfOYzn6nb1+gjmEPgHHRA6wz7r6hKcDIQlTHohS7o42S8Ri8fdMH7Rx991II8ZEWbIYcFENTRWkiV6dRTTzUf+9jHGq5W+KArAEuV9tM1Kp/ofb7oCu9ZorJE9Q/Ai24ip2atmJUdLJFdozrNoQ60vSbZ3xjWxcp62GbWXnstW9lPqg9prRffz8kSLFWqSLCxHt9An/7JJ5+sAx6qKICPYI7gDWCBzQxnu0nmsr/ny1/+cuKDV3zQlVVVPiw6H3QJLDVuPX3Ki1lT2SS+B7BTaAgOpWqcos47mx4s0W5CQEDmNDg9LQw0OEIQYxQGSxioCy64wJbpuKfeqXI+glQETsaJYJQqGCDpxRdftCVtTtShhTDpZm0fdLEB74477rCKhzJTAcS5f+tb37LBHBtg+XeODm/08kFXq4AlQC4bk9FNEhJUAZP2pPuSl8BSYytMlSU3vmUJlrCjtG/tscceduM5IJXAlXbLzTbbzIKlJDa0VnCQ1wb0Mh3w8Prrr9tsN6CIjhb8OUldkmu/+c1vzLnnnWc2GTeu4QShL3kJLLnZgkqjfIOKMh7wEPCZtcYnaUjGp1HdbHqwRImN43A5HY79O8FhDcEhCLRyEdDRux/es8T+i2eeeca5j99XMMccaaWhPA9tDz/8sPnjH/9oNt54Y1sVI1tcD+jVWso+6Ao24AXVvaCNi9ZJjlTlFBOqfc1GVwCWKu1ZorWCbxIloYnn+5AX7610Gt6TTz5pfvKTn5izzjrLrrEkp874oktgqTFHL7DkxrcswRJ29Pbbb7cHGnGCI0lB/BpVe9bkbrvtluh4eF/Bd5izZQJLyIskIYcckQwkwcT3E/ksCIlP9ugmPaXSR/AtsORmCwSWjI0R+K5T9FupxEZpf8yabSxszeFkbOLlNK6mqywBIF566SWbOaOcDYIEObKZMIwgAVGcIU/15f/+3/9r+xgDISE0WtyC48XrMdJnMEfl7Oabb7Z7r7gwquxXogJDxYyjzxvdXO+LrrAMg/lDJ4AJuTbj922QDXRBA98CC1+bbLKJBfNJZOUTLLGW0BWqSMG3okhIBN8z4+TCJNkbX3oYyCighYwv315LGrQEz/VNFxVAPj9AMMYxvklO2grrs8BSPY/R+XuWYInnBwE4HQd8DyauX6tHhY/gOzwn7Ck+nGpM0m/UhZ/rk67g2260MZdBXlnZzqLIK/jOko4Or2ctVv/uc30Fs8D3kTiissRHdxuNkV30sLCn4bmLLL2RvoOe9Cjp+iTR1ckPnBZAptYHcNuMMR1ZCcLxuZKXu7wcWZrpsFaTF4fraM/SapXKGixlqrwFONUqK/qKEMxlQZvo6uRqmpWKACwREFMR5OTXtPZ++pQXLaBvvvmm+c53vmMr0Um/2ekCKvKsLOW5vgSWQtxutaCHgIcDJPheQvhyARVZKGncZ5ZJXmGQVia6wjIVXeUAgQJLXS2VwFJcy53PeJ9BqqUwo8ybd7oyEp9PusLVW060TeuEP1jlky4qL3SGsPeRwxCSdvMILPWpp/1Pt7W3t79mjNmu1kiCbgIiTq5T8F2Pp/n9riC1kSA1I0/nIHbJqxF5OTA2oyGtJi+BJYGltPceZLE0fQapWdATPFN0dXIizcqS5BWfA62mh6oshXSk1YIeVZbiG4g87pAeCizloWf13qE9S27lAVWW6mmSn99bLZgra/uT6PKzfuq9tdXWl8CSwJLa8OpZhZx/F1gSWMpZ5Sq+TmDJTQoCS258yntUqwVzAhV5a5jb+6SH5agECiwJLAksudm83EYJLAks5aZsNV4ksOQmBYElNz7lPUpBanMHqUEjvEBg3ivH7X2ttr4ElgSWBJbcbENuowSWBJZyUzaBpcSsFlhKzMJMHtBqwZxARSZqlPih0sPmBu2BAggsCSwJLCU2h+k+QGBJYCldjWrsaaosufFNYMmNT3mPUpBajiBVIDDvleP2vlZbXwJLAksCS262IbdRAksCS7kpmypLiVktsJSYhZk8oNWCOYGKTNQo8UOlh8UC7fXOOa4mL4ElgaWmBUvTPvzQTJ8xo9v8V5/yt6LLJ2b1/ajEdj/RAwQCywECdXR412UgsJTILGR2s4JUP0FqvWC0msAlLz/yanQBtpq8BJYElpoWLCn4LkfwrSPsG3VX2d6nNjw3/gosufEp71GtFsypspS3hrm9T3pYDhAosCSwJLDkZvNyGyUQKBCYm7LVeJHAkpsUBJbc+JT3KAWp5QhSBQLzXjlu72u19SWwJLAksORmG3IbJbAksJSbsgksJWa1wFJiFmbygFYL5gQqMlGjxA+VHpYDtOcClnr37m3Gjh1r+vbtm1jxsnzA1KlTzYwZM8yKFex1WX1VaxMSXVlKo/6zJa9OHkkP6+tKliNaTQ+1Z6mrNgksZbm6Gn+2gtRyBKkCgY2vgSzvbLX1lQtY6tmzpwVL/fv3z1J2iZ89adIk097eblauXOkElkRXYpYneoDk1ck+6WEiNXK+udrG5VbTQ4ElN7A0evRoA69Yn0W9SAyOHz/eLFq0qNsUqwWposufNJ3kZToM/xdcklfB5dUREpYxRvIqprxyAUuQjgIMHjzY9OrVy7S1EXYU58IA8Tdx4kSzcOFC0xFR3mqVJdHlR4aS1/JujNf6yl8Xm0sP3c+oqkeXwJIbWMJvjBw50nZU9OjRI38FrfNG5Dxr1iwzbdo0s2zZMmewJLr8iFLy6goqpIfSwzQ5UG995QaWAElDhw41/fr1KxxgWrBggZkzZ44FStGqEsKoBZZEV5rq6vYsyas7WJIeuulOmqNaVQ8FltzAEqNIEK611lqGKk3RkoToLy2ElYASc69WWRJdaVoR92dJXl3BkvTQXXfSHNmqepgbWEpTWHk/qxZYynsuab5PdKXJzeyfJXllz2Pe4F6DqT2fsspLYMkdLOWjsdm8pRZYyuaN+TxVdOXD57TeInmlxcl8nlNWeQksOehPWYMe0eUg/AINkbwKJAyHqZRVXgJLAksO6l/YIWUN5kRXYVWu4sSaWl41MopNTVcNFRJYclhfZQ16RJeD8As0RPIqkDAcplJWeQksCSw5qH9hh5Q1mBNdhVW58oGlGqwuqx4KLDmsL/rO6dNcvrz7XhGH2ws7RHQVVjQVJ1YseaXVrNa5r0Prq3l0UWBJYKl5tLX7TMsazImu5tJKyau55JUqWOJwhClTppilS5c2FxfqzHbIkCFm7ty5VTfCNiuxoqu5JCd5SV5F4AAH9QwcOLCQJ7z54A/f5ps/f37Fw4F8zCeNd3IYRRDMVTr0KI13+HiG6PLB9cbfKXk1zjvuTC+l6TaPMstr1KhRpk+fPvUY8XRbe3v7a8aY7eqN5AONixcv7nb8dr37ivo7wh8xYoQ9LU90FVVKq+eVh7zyNkDW6EkPi698oRmWXV6calq00918Kci8efPsEdxl6jwgKEDGgEDR5Uuz3N/bEvJasbzL96PcuVO8kS0hrxJ1YiGv4cOHm969e9dTJnewRDsNH3atdhxpvTcV6fcAJcMkqmWiq0jS6T6X7OTlAx51BYBkeaWHxda/YHbZ6aFf+sN0OTgNv5PN8e18n4PqEh92LUMVhm9CUT3k+1AzZ84UXTnqUiOvkrwa4Zq/eyQvf7xv5M2BvPr37+/STeEOlpgMBpZvFuFE+MBr9COvjUw4z3sICoLAgP0UZNhgWBHpihPGNxNdceQturp/fyIO//IeK3mVQ155602R30eSkCoM3QcApmbzefAWH8ffgAED7LehevbsafcSiq5iap7kVUy5VJuV5NX88nKgIB5Y4oEYWdoTqMgEoMnhRYUYQsmNTD4OI5pBFV2FEFGXSUhenUmJZrkkr/LIq1l0Lo95LlmyxO5tBTDRutZMa5IEBklB9qJFM6iiKw/tifcOyUvrK57GZDO6FfWwDifdwRIOAnAEUAr6nZvJacAIgBJ/OA0cCBk20ZXNYkvjqZJX8wAlra/mcvLV5JXGui3TM6gm0U3BH+Ci2cASPo4/qkr8kSQkEBJdxdRSyau57KjkVQ55OVgDd7DEXiX29uA0mg0kRRmBgnNMLtk2AKDoclAVj0MkL4/Mb+DVklcDTPN4S1hetJTo6uQAfi445AE/0ewXYAm/B2ASXcWXpuRVfBmFZyh5Na+8HA41cgdLs2fPtifHRZ0GL8H44nAdXpgrN8meAfIqOTrmy8Z6WitosRBduYqm4sskL+mhfy00NuveqnaDzf9Fs+O+dAId+PDDDyseatSrVy/DX1sbJ1oWB2AGnRJUwCodSsFeXYK66dOn16Grc39vUS7RJXkVQRelh+XTw2AfZx39cgNLtb6zRHUG0FHE73MAhDj6lQMcKh2TOmzYMAMIrHTCn+jK3zRJXsu6MV16KD1MiwP11hd2nEC6SEFyWrQ38hyqL3QdRBNpJNrwHThZ9ukViV/4OU7vAwxV+kYUrc3B0eGiqxGtSPceyWu+1le6KtXQ01pZD/mEkMMpsG5gCaPKd5aiH6WlZWPcuHHW+GZ2xTkWrsokJkyYYKtH0fZBWhJwiFEglQtdKTBMdHUyUfJKQZkSPEJ6WA495OPIgwYNcjlGNYG2NM+tJNnwD9EKDXwaOXKki4P1RixdIJMnT674IXmqh/hy0eVNPN1eXGh5JYjBCk1XAvGLrtXMa3Z7uN5666X3UVrABO0IUbBEG8LYsWOzBUsJFDq4dcqUKba6FM2krbnmmnYPVhQsia4UmJ7gEZJXJ/OkhwmUKIVbW00PSR5hE6mc6DLmo48+sqe/RpNsfPGdAKHofHr33XfNIvYYR4RJdYluimamC78dvURXMVcteih5GdNMdqOV5JULWMI4jRkzxn7krsgXQI+PC0ZBUTWwJLr8SlPy6uS/9FB6mAUHqq0vgaWu3K4GljbYYAPbgpf/YRjxUvxxg1R/dMXTctHVyS/JK57epD1aelgOPRRYCq0MBd8KvtM2lI08T3ooPWxEb9K+R2DJjaPFA0tu8w5GKZgrRzBXrWImsBRvPaQ9WuurHOtLYElgqVslTZWKtM1lvOcJLAksxdOYbEYLLLnxVWDJjU95j1KQWo4gVSAw75Xj9r5WW18CSwJLAktutiG3UQJLAku5KVuNFwksuUlBYMmNT3mParVgTqAibw1ze5/0sBygXWBJYElgyc3m5TZKYKlgYKnOFpBWk5f2LHU1BQJLuZnGWC9SkFqOIFUgMJba5za41daXwFJdsNRm1lxzUMXT8NSultu6rPiiVgtSddCIX32r9vZW00OBJYElPwdXxFv/rRbMVQQVbcZssL6vg0YkLzggPSwHaBdYqguWjD0mt9LR4QJL8Yxh2qNbLUiVHqatQek8r9X0MAlYindOWzryyfopqixlzeHGnq8gtRxBqipLjel/1ne12voSWBJYUhte1lYl5vNbLfgWCIypIDkN154lN0YLLLnxKe9RrRbMCVTkrWFu75MelgO0CywJLAksudm83EYJLHWyWpXb3FSu4osEltz4L7Dkxqe8RylILUeQKhCY98pxe1+rra8cwFKbWWON3voorZv+ZTJKwbeC70wUK+ZDpYfl0MMkbXgxVaYphgssFVNMrRbMCVRID/PkQKutrxzAkjLEeSpwpXcpSC1HkKp2Nd8rqfL7W219CSx11YP4YKlYO7daLegRqCimHZUeqhJYBM2spocCSyHptFrQo+C7CEuz+xykhwK3RdBMteG5SSE+WHJ7bl6jFKQqSM1L12q9R3ooPSyyHnoHS8uXLzcTJ0408+bNMx0dHaZ///5mgw02MP369evCt6lTp9oT6UaNGrXqt+i9wQ2DBw82o0ePtnseomN69+5tNtpoIzNgwADT1kaGb/XlO0hdvHix5cU666xj/3r27JmK7vikq7293UyZMsUsW7bM0jJs2DAzYsQIgxySXr7oQhdnzJjRZa9XWOeala5q66namoxLpy95Mc9gbS1atMjamR49elg7g9z4/5NcvuhCD5cuXWrWXXdda+sCOllvw4cPr2jj4tApsOTGrTzB0vz58w1yR+aVfJjbjLuO8hGkBraG9UelEl8X/NuKFSvM+uuv3y0GiEtbenTFqwRiayZNmmSGDh1qT9JNal+idKdHV1yOZjveN13EKgsWLLDxSWBP06A4CV3VfHLgv7AB//rXv6yOEcwH8w5oId7CPs2ePduwrsIXfp14etq0aQa7gl8Mrujzg/g8+J17lyxZYlauXNmNRdHKbbB68Lc1PzkQb5mlIZqKzyhkZQlFePPNN81tt91mJk+ebCeOgTnjjDPMZz7zGesMggDgxhtvNK+//rq5+uqrzbbbbmt69eplZs6caU488UTz3nvvmUGDBlmDi/AwtFdccYUZN26c+ctf/tLl+TzvzDPPNF/4whdsoBQGTL6CnkBiL7/8sjLQQB4AACAASURBVLn88svt3KALwJTG5YsuFuxPfvIT89RTTxmCVBbrDjvsYE499VSz2WabJQZMvui64YYbzEMPPWSBfZ8+fVbp3Lnnnmu23377xIbWF12V1hP6t8kmm5hLL73U7jtM4vh90YUj+O1vf2vuvvtug05CAyDjhBNOMEcccYQZMmRIt8RJnHXniy70kOQKNmPDDTe0U37nnXfMVVddZc455xyz4447JlpjAktuWpAnWPrd735nrrnmGnPllVeanXfe2Vm+rAHs78CBA7sl4ZIEc24c6j4qsDX777+/OfLII62vD2IB/n9Xe1M0uoI1eN5555lTTjnF7LvvvtZPpHn5kFea86/2LN90Pfjgg+aVV14xF1544Sp7mgbdSeiq5pMBJJdcconZYostbDxL3HvLLbfYuAr/FtBy1llnmccee8y8+OKLZtasWRZYEWMT+zKWWOyb3/ymef/991fF0NAcfX40xkanv/zlL9v3RxPfebe5giOwwcTLffv2TSyyQoIlBHDBBRdYYAQ4IGghsEbQOHsCTwTx2muvmfvvv99Mnz7dHHzwweaAAw6wGZuowUUBQLsXX3yx2XLLLc2uu+5qvvGNb9ig4fTTT7dK8uSTT5pvf/vb1hjvtttuNtgNLl9BD+9H4Ndff70FFdB10UUX2SA1SXDqm64HHnjAggroAiSRtQFQIGfkTiYkyeVLXtEgFZ276aabzD/+8Q8L0jfddNNEcvNFV6X1lEQ+0Xt90IUTwaaQkDnttNPMQQcdZANGEi8BqPjsZz/bxQ7EpdkHXcyxJlg6+xyz404CS3Fl2cj4ooMlfMsTTzxh/coXv/hFmzkPJwmTBHON8It7wrbm8MMPt5UYEqI77bSTOf74450ThYDHOXPm2BgC/x++fNDVCmCpiBWYRvUwfN+jjz5q/vjHP5qzzz7bJtxTudqMefedd21XVPRyARX1fDK/A8rfeustG1MdddRRtlJbCfiRSIuCeJfnE5sHSY0gxiZZQ6Li0EMPtfFc+HKhKxXe/vsh0PDd737X0p5GzFw4sEQQc++99xqMHcAlCDAJPO+44w4Ldj73uc/ZrAxBN5lgWvMATgTcY8eOtVniqCBxDARBlPt23313a4D5X4RKyREBX3vttWaXXXYxe++9tw2cfIMK3k9ljbkyz4cfftjsueeeZr/99usyv0YVzFcwd+edd5o//OEPdjHjBJHfM888Y1566SVz8sknN22lolKQOmHCBHP++eebY4891sotqIo2IjNf8qpnOBuhJXyPD7oIpMgUUmU+6aSTbMKEK2pnwnYgLp0+6KoLllRZiivGhscXGSzhD//617/arDM+hkAQ30KyMQBMPkBFYGvooiCRdt9991mfj/2M01EhsLRabfMKUvHhdOxQWaAdNK3Lhx6G5/7GG2/YhOfnP//5WDpYj/4kdNXzyfxOPEzSn60BxNIUGR555JFuVbK0wFIQuxPb0ZlB8sUHWAqqyvhyukZKC5aooBDEsLeIYJreykoXwQ7B6T777GONaQAoPvWpT1ngA1iiLQ8HQMDDeBh32GGHWaUHkP3yl7+0wIj/ZgwVDdBwdE+Qr6AHup999llDGx4gguwGin3cccclrr7wbF90YXyQF+VfKnsbb7yxBRGV9qTVMziVfvdFVyWwFOgzVcwvfelL3bKccejzRVdgmMPrqdYevzg0+dJD1hF2hnaDvfbay1aqw3sk09hD50te6CEZRdoJR44cacUBbVThqa6ToAhaJNhHwTrE7rn246sNz03DiwyW8Id33XWXzTZje99++20b5G6++ea2lZ0rSTDH/Y1sNQhsDa1AzAmARAdC0E7qxnljk61lrCzVWq9J5eXK27zHia5Ojof39lTyyYwJ9hHTrUO16MADD7SJaWLbY445xjz//PP2v8MthbXAUtjnR59PkjH8O+CEAgb7YomrSbzkDZYolLD2iefZHvCjH/2o/GAJIYBOqQRVuqgkUWKj9Y5gG6Zg6EGRbEiL7lniGVRnwqV8gvabb77ZZtYwQrTyEWBQaQq3ufkKeoJqGEpHOwEL5Be/+IVdBNtss80qp9ao8fJFF/MNMvj0zAIo2FvGAobOpP2lvuiqBJYCo/XpT3/aHHLIIU0NlsL9yQQx7BP8+Mc/XkMP3cIlH/LCQbCnh95tZIMOUlmmDY/+bZIqVASj2bE4a80HXcwvuneOf8O+8UfCiIQSYAnHwn4QKgzQ60qrwJKbFhQZLAUUFA1UBEEgegmA59Clyy67zNqZOIf/FI0u+F0pKHXTpNWjSHrQOvmJT3zCBqrhwzwEKrqDirj8TXN8Pe+XRF719hHTFof/opUV8EK7OQl3Dvn585//7AyWwj4f3gT7lHk+zwt+56Au/CbtvICySnF71hVOiiQ/+MEPzKuvvmoLCnQsURCh6JJ0C0St5JG30/AIoul7BKzQGhDev8JpP5QVMRBUhn72s5/ZzanBiTn0k1533XXWyCLIcD9leBHAVE4BQYmCbGqtdilfQU+wd4v3k+2jPYK5wxeCmyhyj7vQfdBFqRY5gvwBSAEopTWPbDiOkYxAkssHXUGQGt1Yz4kyLFaAeFKZ+aKrXsk/iay41wddwXrHmQT7lQI6ABusNTJnrgCiEg980FVND6MHPGAzOWSFfvyvfOUrtn05egpoQFP01EOBJTeNzxosYUeRGf6ObHEjBzwUDVQEtoaKKPuTqX7ho/F5JEVd9+oWjS5XsIR//+CDD2wysdoFkCSDz7YC9lUGMUyS4NtNo/2MEl3dQWA9nxy04eHf6JygmEBRgPiZPf7sfQ8f/pN0zxLxNLEb21gA8SS8o/4ka7BE8QO6sIvExvi4tA6hKiRYYlIctoAjJ+vLyT4wmSwoVSDambbaaivLFBSB1iaCblpJEDinzHAP/ZrVwBLI88c//rENYjm1A6aiXFQ29thjDxvYhoFI40EPx5yvPnYxjqmptneL4Oa5556z9H/sYx+rGuDUy2r4ClKDQw+YO/KhDSTYbA9ttAlRIXR1ikUOUqELp01Wh5Np2COXpGrWuB4mOwmmnmGOo9dFkRd6SHsPwQmtoOxdwg7w31TMyJxx8ENZwRK6yXrDDgIca7XhRR2OwJKbxmcNlrArbBBHT6kO3nrrrTbRSJtl0EpXb6ZFAxVRWxMOwvD3ridUFo0uV7AU7napJLugDQ97BYDEpwSn6glUdAcV9fTf5+9J5FXPJ0fBEgAJMMP/0jlFF0WaYAl/yYFJJL2Jn9kfFT4kDT5nDZZ4B/vmwAKANgotaX1mp7BgiV5jjD6E0nNJQE2vJSAnQI733HOPPWGMTaA4hqAiRaWJzaBk2WjR4/jR6Gk4wfOpRNGCg7GhqkHwAEDjNLxwUOsjSK22AR0eoPTBhtxmDL5R6Mcff9weeEAfLod0kCljkz10Jd0c6kNeQUY/vFck6OFtdrrqGeakDseXvAhMOB6VlhbWfGAHODGIvZBUXOJsKo/ywRddcY4OpxL6wgsv2MSFKzAUWHLT+KzBEsEJe1rxc7SPAnpJ+JGIck02FQ1UVLI1QRBGizx6Gv20RyVpFI2uACzh34KELr477nfdaq3XJMG3m0bXHlXW0/DS4E2lZySRV7U9S7wn6MbiFLygsoRvYx2RCKRzh0SLC1iK7lkKP59iQ/Q0PBKQVLCCg9PCdigPsMT82JsLDwBMSQ5oisqscKfhBRMELAR7CNi7E94jQTYUh82+pHBgTRDOnh42qhKMEwBFT7ar9vzg/HiOFY8CEB9BD0bx9ttvtygdQBfMKeALbTNHH310UwZzQQbghz/8oT2phYtqID22SYESz/Ihr2CR8u2CuXPnrlpnZaAr0LlKJ0Wm4UjiyavNrLFGb2vwkyQKGrEDcWkN0xWu9FK1piKAXQtf2KA06MJZRO0j9oQEE3s6ORDHtfJQieZSgCWX0ntcgUfGZw2Wwvs+SRLyfZVK/qsWGUUDFZVsTUAn7WckS2vtkww+1sm+DPYhUhXlsIgi7O1hDRLTjB8/ftWHPmvFHXHVL0nwHfddlcbTEcR360g4kwRN6/JNV1p0uAbfLqAiGh+Hnw0gZ+839p4Dzqg04yuDdUR1kmp0EGtVijVdnk98Go0JSECSrOO92223XZdDg1zoyorXaTy3sGApDeLSeka8YK6z3JhG0JPW/Ks9R3R1ckbyylrTaj9felgOPaQDIOgV96tRxXh71mApDSqLBpaS0kSQR1cJSTgCRBJXtHaHAZaC704uh09XS8p37qeiEFQ6XavULu+VvLKRlwvvGxnTavLydsBDI8LJ+h4Fc+UI5rLO6EsPG+OA1lc51pfAUlf9F1hqzB40cle4UEgGnf1bVG/JsrNHI3y1WjCXV0afqgKnv3JSbx7tT3nR1Yg+utwjPSwHCBRYCmm7grlyBHMCSy4mPP8xWl/lWF8CS80HlmoFuM0czHEKKccZh0+8DaTTzHTVss6iqxzBt0Bg/jGIyxszasPr2hBOHzEBERv5w5fan1xElN0YBanlCFIFArNbI0me3GrrS2Cp+cCSgu/VHFCQmsTaZXevPxCY7cZGf3RlJyue3Gp0NXdlKWUdb7WgR8F3tsak0adLDwVuG9WdNO8rxQEPaTKkyrOaoQ1PYElgyfXkxByWTMVXtFrwnTdoTzlcFliqvFCebmtvb3/NGLNdrYWkypIvM1P7vQq+FXwXQTOlh+XQQ1WWVFlaa621nI8t92V7FHx3cj7tAx6ykqfkJXllpVtxnptRG17XKQgsxRFJfmMVpJYjSFUlML81E+dNrba+BJYElgSW4liIdMcKVAhUpKtRjT2t1fSwudvwGpNx1btaLehR8J2yAqX0OOmhwG1KqpToMWrDc2Of2vDc+JT3qK7B3OompLzbn9Kmu9WCVMkrbQ1K8rzV66jV9FBgKaQ3ClIVpCYxI2ndKz2UHqalS0meI7Dkxj2BJTc+5T2q1YI5gYq8NcztfdLDclQCBZYElgztk+FLpxe6GcGsRjUElsaOMX379M1qSqk8tyG6xoyxH50swlVtg2yz01WNtwJLblonsOTGp7xHKUgtR5AqEJj3ynF7X6utL4ElgSWBJTfbkNuoVgu+XdpB0z7JJ01htpq8tGepq/YILKW5mtJ7VqsFcwIV6elOmk+SHpYDtAssCSwJLKVpGVN4VqsF3y5gKQW2ZvaIVpOXwJLAkg54yMyc1H2wgu9yBN8Ct3VV3csAnYbnwPZWC3oUpDoohYch0sNOpqsd1IPyOSSPBJYElgSW/K1NgSWBJX/at/rNraaHuVSWevfubcaOHVuYvQfVFG3q1KlmxowZZsWKFV2GVAMVosvvkpW8OvkvPZQeZsGBauvLgqVBa5qevXpm8dqme6ba8IopslYL5lSpkB7myYFWW1+5gKWePXtasNS/f/88ZRn7XZMmTTLt7e1m5cqVTmBJdMVmcao3SF6d7JQepqpWsR/WanqoypJbZWn06NEGXrE+i3qRGBw/frxZtGhRtylWC75Flz9pSl6reS89lB6mzYFa6ysXsARBKPbgwYNNr169TFsb27WLc8Eg/iZOnGgWLlxoOjo6nMCS6PIjw7TlVZTDA9Kmy490ur9VdHU9bbLZ7YbAkhtYoiNh5MiRtqOiR48eRVmOq+bBupw1a5aZNm2aWbZsmTNYEl1+RCl5dY/LtL7y18VW1cPcwBIgaejQoaZfv36FA0wLFiwwc+bMsUApWlVCFau14fGb6Mp/sUpe3YNv6aH0MC0O1FtfAktuYIlRJAjZ30OVpmhJQuRMC2EloMTcq1WWRFdaKy3ecySvrmBJehhPf9Ia3ap6mBtYSktQPp5TCyz5mE9a7xRdaXEyn+dIXvnwOa23pCOvotQ9V3NFYMkdLKWlSz6eUwss+ZhPWu9Mha7iLcua4DYu72qSlzPtqcgrLgNyGC+6cmByiq8QWHJgZjpBj8OLch4iuqIMz9kLxJR3fvLKlw/50RWT4QmHl5UugSWBpYRLw+vtClK9sj/2yyWv2CzzekNZ5SWw5KBWZQ16RJeD8As0RPIqkDAcplJWeQksZQWW8k1S1FPhsgY9oque5Iv1u+RVLHnUm01Z5SWwVE/y/+47p09z+fLue0Ucbi/sEPrpRVdhxdNtYpJX88iKmZZVXgJLWYGlYul3WYMe0VUsPas3G8mrHoeK9XtZ5ZUqWOJwhClTppilS5cWS3oJZzNkyBAzd+7cqhthEz7e2+2iyxvrG3qx5NUQ27zdVFZ5cVDPwIEDC3nCmw9h822++fPnVzwcyMd80ngnh1EEQU+lQ4/SeIePZ4guH1xv/J2SV+O883FnmeU1atQo06dPn3psfbqtvb39NWPMdvVG8iHDxYsXdzt+u959Rf0d4Y8YMcKelie6iiql1fOSvIovo/AMY8mrWF1KNRkdi67EIsuPMQFdnGpatNPdErOxwQfMmzfPHsFd/M4Ddz0hKEDGgMDi0+UuONHlzqsijJS8iiAF9zmUWV7Dhw83vXv3rscMd7BEWxcfdq12HGm9NxXp9wAlwySqZaKrSNLpPhfJq9jyic5O8mpeeTk4jeYiLsFs+e4I1SU+7FqGKgzfhKJ6yPehZs6cKboS6EYet0peeXA5vXdIXunxMo8nBfLq37+/SzeFO1hi8hhYvlmEE+EDr9GPvOZBYJJ3EMQFgRz7DsiwwTDRlYSr2d0reXX//kR23E7+ZMmrHPJKrgkJn+BeKEn4ovq3kySkCkP3AYCp2XweFOLj+BswYID9NlTPnj3tnlbRVV/+PkZIXj643vg7fcgrDxPpg67GpeB+ZyW6HO6OB5Z4IEaW9gQqMgFocnhRIYZQSqRfG4cRzaCKrkKIqMskJK/OpESzXJJXeeTVLDqXxzyXLFli97YCmGhda6Y1SQKDpCB70aIZVNGVh/bEe4fkpfUVT2OyGR3WwwH9+5u2Hj1WvaisdqMOJ93BEg4CcARQCvqdm8lpwAiAEn84DRwIGTbRlc1iS+OpklfzACWtr+Zy8tXklca6LdMzqCbRTcEfQUKzgSV8HH9UlfgjSUggJLqKqaWSV3PZUcmrHPJysAbuYIm9SuztwWk0G0iKMgIF55hcsm0AQNHloCoeh0heHpnfwKtzlVce/Qj/5kGudDXA91i3hPgWposWBV2dHMDPBYc84Cea/QIs4fcATKKr+NKUvIovo/AMJa/mlZfDoUbuYGn27Nn25Lio0+AlGF8crsMLc+Um2TNAXiVHx3w54IHWClosRFeuoqn4MslLeuhfC43Nureq3WDzf9HsuC+dQAc+/PDDioca9erVy/AX7NPzNcfoe4NOCSpglQ6lYK8uQd306dNLT1c4jyJ55auh0sPyr6+wRjXz+gr2cdZZIW5gqdZ3lqjOADqK+H0OgBBHv3KAQ6VjUocNG2YAgZVO+BNd+RpX3iZ5LevGdOmh9DAtDtRbX9hxAmmBpU6OU32h6yCaSCPRhu/AybJPr0j8ws9xeh9gqNI3omhtDo4OF11prazGnyN5zc9+faXYfSB55SCvxpdTtztd5MUnhBxOgXUDSxhVvrMU/SgtLRvjxo2zxrfI14QJE2z1KNo+SEsCDjEKpESXX2lKXp38lx5KD7PgQLX1xcd2Bw0a5HKMahbTKtwzSbLhH6IVGvg0cuRIFwfrjSa6QCZPnlzxQ/JUD/HlosubeLq9WPJazRKtL3962amHU8zSpUu6TaKsdmO99dZL76O0gAnaEaJgidLb2LFjCw+WpkyZYqtL0UzammuuafdgRcGS6PK3WHmz5NXJf+mh9DALDlRbXySPsIlUTnQZ89FHH9nTX6NJNr74TkBXdD69++671r9FL6pLdFOIrmJpueTVKQ+tL7962Wp6mAtYwuiOGTPGfuSuyBdAj48LRkFRNbAkuvxKU/Lq5L/0UHoYlwMuHSfV1pfAUlduVwNLG2ywgW3BK/phGHGDHtEVd7WlO17y6uRnKnroYggTik/ySlFeCWXhcns1eQkshbin4FvBt8tiynqM9FB6mLWOuTxfYMmFS9UrS6kEc25TSDRKwVw5grlqlUDpYaLlkfhmra9yrC+BJYGlbpU0VSoS28dEDxBYElhKpEAp3Syw5MZIVZbc+JT3KAWpPoLUxks1kpcPeTW+KltNXgJLAksCS43bi0zuFFgSWMpEsWI+VGDJjWECS258yntUqwVzqizlrWFu75MelgMECiwJLAksudm83EYJLAks5aZsNV4ksOQmBYElNz7lPUpBajmCVIHAvFeO2/uyWV+NVybdZl1/lPYs1eeRPclPBzzowAAHVcl0iPRQYClTBXN8uMCSG6NigSX/sUA3orIJetx4l+Uo0SWwlKV+uT5belgOPVRlSZUlVZZcrV5O4wSWBJZyUrWar0kfLBUQKaTA6FhgKYX3pf0IBXPlCOZUgUl7ZaTzPK2vcqwvgSWBJYGldGxiak9pKrAUI/5tKrpiSLPV6NLR4V2VQ2ApxmLJcaiC1HIEqQKBOS6aVa+q79j9ra/6c0vCMbXhOXCv1YIefT/KQSk8DJEeqrLkQe26vTL9ylIRqEp/DgJL6fM0jSf6C+bSmH31Z4gugcBsNczt6a2mh6osqbKkypKbbchtVCnAUoXkTynoqqAFrUaXKkuqLOlju7m5g24varUgVZUlf7pW682l1MM2Y959512zcOHCbqQLLAksCSwVzBa1WvCdaoUz2wp9RU0pj7y6Mk+VJTfDoMqSG5/yHlXKYM4YI7pUWcp7LVV6X6vpocCSwJLAUhEsj/RQetgkeqjKkipLqiz5W6ytFqSqsuRP11quslQjGeEVLE2dOrXLUd1MZsiQIaZnz56G35YuXWrWXXddw2LhWrx4sZkyZYoZPny46dOnj5k0aZIJHPe0adO6Hfvdo0cPM3LkSNPe3m6WLFliOjo6ush+2LBhZsSIEaZ37972331liKFr4sSJZtGiRV3m2L9/f7PBBhuYfv36JVotPuhauXKllQ//O2rUqFUyRK6UOPm3ZqQrEMTy5cutzObNm2dllpasfOlhQM/gwYPtmmINclX790YU0oceMk/WP3Zj2bJlq6YNnaNHj16ll43QE9zjiy7W0pw5cywdAwYMMG1tbV1sZPBvjdKmypIb57KqLAV+gVmE/UBgWwPZo8v4ukYvBd/pVyqyLHAXQV7o5vTp0w0xVN++fRtVvS73ZUVXtfiKdUN8iB1l/RB/BrEmPmPBggU2PuTfwrFqNG6sR3yR6QrmDo+I14YOHWro9HCxJ2nQFZVNOI6qNidkga8DKxB/BXLCLlaKo5Ez8czcuXO7JWSJ/TfaaKNV/hN+FO6ABwj+7ne/a15++WULigAzBx54oDnuuOOsY7j55pst4ZdffrnZcMMNrUzfeecdc9VVV5lzzjnHjB071nz96183hx9+uNlrr73MHXfcYR566CEbtAKkuFDyE044wfz61782H3zwgQVTOBgAGAv8sMMOM8cff7xZZ511vIIl6Lz22mvN+PHjbeAdOMMtt9zS3H777WbTTTd1Ut5qi9ZHMIc8b7vtNiuzb3zjG2aLLbawYPCb3/ymmTlzpv03ZOiyKItEVwAg3nzzTUvf5MmT7fQwMmeccYb5zGc+YxdeksuHvFgXzP+Tn/ykXTPBmoC+008/3a6zL33pS2bQoEENk+aDLib74IMPmltvvdUmRVj3K1assGD9mmuusXoZAMNGCfNF1w033GB+/vOfW9ux9957W9rCNnLHHXdclQhqhDaBJTeuZQWWkOUpp5xi/cF//Md/mG233db06tXL+rCLLrrIPP/88+aWW24x+++/v/V7jV5pBD1O784SQVSYQG50ORGf3qAi0PXaa6+bhx9+yJx88snmYx/7WCI/HnAmK7qCdTR79mzrv4KYY+edd7bxHzEma4y1tNlmm9nf8RmvvPKKufDCC21Q/u1vf9v89re/NfPnzzc77LCDOeussyzdLr6jqHQFcTW0/+53v7OxNXR94QtfcLInSekCDL300kvme9/7nk1ownfkQ3y/6667mn/961/m/PPPtzZw3333XTUn/B5g6aSTTrI2MJATz2NsJTkDmP73f//Xvuf99983/DcxDsD36quvNh//+MetbS0cWEI4OHiUmIkCBmAMwdoee+xhTjzxRPP9738/NliKgquoeWIBPPHEE+aKK64wW221VbcF7ivoic4TYRLcbb755ubYY49dFbg2am590RU4dUARdACMH3nkEevot9tuu1XKmTZdg9dc0yxYuDCztq733nvPXHDBBRYYoasY06eeesoaWBb69ttvn0mQmurengpMv/POO81rr71m1weOAIP07LPPWmPGv+EkAoPSiMx86WF03ZONwtbssssu5phjjjG0FCW5fNGF04A2HAvJh4033tj84x//WJVQElhKIlX3e7MESwRr6OuZZ55pQdHAgQPtGiU5+NZbb1lZhwMJ91mvHpk06GnknXncI7o6uUzyOe22yQceeMBm9I866igbcKZxZSUv4szzzjuvW9DNnEncEmCzlvDp0ENnRRgszZo1ywb1RxxxhA3Y4/qOotIVgCUKF9ddd50tKlCkcE2+JKXr7bfftolYYigKFwClu+66y8Yc2DV4TUEkDliqJudAP5E374PGI4880oKm6FWoyhJVhyuvvNK2jFBJ2mabbWwV6P7777etcBDDYoxbWSoDWCJzQfWFi8CbDHjSy1cwx7zfeOMNuxB33313uxi//OUvmwMOOMA6/aSXD7oA+vfee6/NxFx66aWrqn7oNAEM1cDPfe5ziejzQReyePXVV81ll11ms2m77babzZqR1GCdYoRoU0hy+aIrCpaCZA2ZJewPVcEkly+6AEsAd+wedFD5w/EF1XeBpSRSdb83S7CELGkFIoA79dRTbVcEvpGKL5lSQBSdFU1RWXJnaSojkwZzqUwig4f4povW7Ouvv95m46loJ+k2CLMnK7rqgaVzzz3XdiPReYRPJ9lJUjeoWASggrlCAIxJ9QAAIABJREFUO2sS8PnVr37VCSgWka4LLrzQbLThhta3E3fDo9///veWftfkS1K6gnjj6KOPtuCFpDNFE7qpDj74YPvfl1xySWuDJZTumWeeMXfffbcFSSBHHEJ4HwGBAGifliD6SrkIChDsxRdfbDPf0Ta86PjwHijuL3plCcX91a9+ZR577DGb5QjaLpLaW1/BXDBvKha0kQCYMLLssUjj8kEXrYSACWhAb9PKqoX54YMu3h+04gUVFzKHrDUALrJL2pvuiy7WPS262BKqnPQu//jHP7bVTmhtVrqCdgT2cP7pT38yX/va11YBXBItWYGltdZe21C9dWlBSWOdF/0ZWYOlT3/607Yqj92heki7UBDQ0UYksFRZQ5IGc0XVO990AdRvvPFGm9Qm0Z2k2yAvsHT22WdbEEDrHfY+2BuDjyMRyBaQP/zhDzYhSLcB7V38N2suAEu0cP3tb3+ztDPmoIMOckqKZiUvAE5SurArP/rRj2xylP+lapYXWCLeIBlLeyO+eKeddlolF7AAXRJR+tAXkkXEXaeddlq3Nrxq/Aj2xzddZSlYIAGzXn/9dbtvaf3117ftJFtvvbVtQ4vuQQJM8AfIGjduXN09SzBuv/32W6XQRQZLQd/oPffcY75ywlfMrp/dNXEQF/DZV5AaZGJofUSeyAIFBxjT4pX08kFXAJYAspTlk7ZwVeKBD7rCwDZoTWBdPvnkkxa4J903x/N90RXds4TuEYDSckElMNjU26g++qIrAEu0MHzrW9+y/fYApO985zuGbGlWYEmn4XXVlKzBEiD/Zz/7mc22EiQ8+uij1vbQskIricCSwBIcyOvUuBdffNG88MILtoWKmC2tK0tQEd3Lsskmm9gqCkE5+2LYk0vSiX3I7MPiQKA///nPXcASCf4f/vCHltw4+5OLSlewF4tYBpBIq3205a2WbNOiK+ArlT1wAPYO+8Z/U02P7kGiewKfh9zq7VkK5DxmzBi77abpwBKlTJQRYYHwCV6C1jwWPJvMqCC1UhtesE/p85//vNlnn32cMhauRspXMMf8/v73v9tFSEaUljyy35Tuk7SN+ASBgZ6y8ADj4dY0FjHl/OD0FVf5RMf5lBetB1QCaTEgWcHePowXazXp5YuuSkkSaKQSTdshhjTJ5Yuu8EZX7Ck0kTnF+bAvUGApiVTd780aLFElJANMuxPOniQjrSsEdsEBR0nsaVpBjzvH8hkpujr5nOaeJZK6ZPYJaglok7YwhzUhK3m5tOEF64jqCpUz/Din/WFHw214zJdkxcMPP2zjGloR61XYi0oXVTIOCDr00ENt/E372yGHHGKTiCS06x2+lZQuKnWcUEs7fHAiNa15bNGB7+gWxZOW3rOEsYchgAL2d2DoAVBUVTgRjtLnT37yk5YBS+xTorWCk/AAE/Slp3n5CuZYDGwYZNHh8J/85ZPm5VdetpWKZj6FjGoL+gmoJzgF4Ae0EqCi10n6uH3JC52bMGGCzdhwnCb7YVinaRzG4buyFD3YhU2kODyMMgep1HMMtdajL3mFwRIVzptuuskmJAjeqeTS1hA4oUbsiU7Dc+NaHmAJ30ACkZ5+ToHC7hCsCSxVl1HSYM5N+vmP8kkXsRt2Bx/HAUdJW5iLBpYASCTQ+F/2i9Mmhi8PHyMe99CjrOQVBwRWoouqDFs+aEunYwvbQvKXNkPa8urJNildjz/+uOFUYfbbkkzHBxNzsE+J9mK2OlD9a2mwxALB8NPm88UvftG2FrAIaa+jPQZGtcppeGRqOEkNftC3yZ6KoEWt0hnwjZhmH8EcAPAHP/iBPUUmCLgxOASnBOIsEBZmMwapAdgno0SvM21JGB6yItCXtI/bh7wCvQoqZ1RjqAA2+x4z6IruWWJ9UTUD5KaRnPAlrzBYIhNIJZ72O5wYiScCaoGlRixmvHvyAEv4SA5zoLKEbyS4IKlYBrAU/aZNPO4XFyyVkS5OMLvvvvtsOz0tTkn8d1RySYPvapoQB1SQuCce45RmOg6o3v71r381zz33nN3LwzqM6zuKSle4YlaLR9X4mpQu/BU+jGQsf1TzwnEUYK3lT8MLmA9ACJAt/0Y5MPjuUfhkvKDSAnMJAigTgjo5NGDPPfe0GVQCouAkvWqVGdpTCN7pSQ16GMOK4CPoCU5Row+Y/TDhi/Jk9Az4RhyJD7rIcFNVoqwb3jfGv/PNAsASRx7Xy14UMaPPnML77aiKpiUrnxWYgNdBDzGtPmHZNaJ7vtcX7w/3RAfzifYyJ6HNx/oKEk4AP/ayBN/FgtZf/OIXNrAOfzuiEfpUWXLjWlZgKezvONCI7xKSASZQJahjn1rg/5LY0aRBjxuXqo+iUs8mbyr1tIyldfmmi7X4l7/8xR6Qk2a3iE+68N/BMdpp0oTMs6KLdRScsEYyPrxW8OPRdRTEZMFag85wrBrXd8Sna0Oz1lr1PzSdBl3BWqv1rKzAEs+NfmM0HEfRDllJbsgi8HtsGwjWGK2h1eQc0BDEbRzsRDK40qnMhTo6PC1jmPZzfAU9adMRfZ7o6uQIlQRAcpLAImtZFQEsZUWj9LAMethm1l57LfuV93q9+lnpUdGemxVYyovO+MFcut/tISiitYlPSlAhTevyTVdadESfI7o6OZLmXqysZJUlCMxyzi7PbjU9pBOK6led6+m29vb214wx29UaSIadgAiEF74UpNbjb7a/K0gtQ5BqbIC6MMOP7Warhf5OwxNdjXFAlSU3vgksufGp2iiqFbRo076cxvf3gve0WjCX12l4yaRd/W7JSyAwK92K81xVlhy4JVAhUOGgJpkPkR5KDzNXMocXCCw5MMkYe6AGwT6HMIQvZb7d+JfVKAXfCr6z0q04z5UelkMPW7KyxBd+urq1TmEqSFWQWtMIVlOcOJbTYaz0UHrooCaZDxFYcmNxRbDUZswG66fbruY2m/ijFMyVI5hTZSm+7udxh9ZXOdZXS4KlagukuEFqsii9uHQlM1WiS6AimQalc3er6aE+SttVb1RZSmcdpf0UBanlCFIFAtNeGek8r+L6ajNmjd5r2O8nla3Svgos1Q7HtWdJe0XSWWBpPqXVglTtWUpTe9J7VqvpocCSwBLf9Urz2Oj0VuPqJwksCSxloVdxnyk9LIceqrIU0vxWC3oUfMc1e/mMlx4Wv2IWTi61mrwElgSWBJby8QWV3qLguxzBtypm/tZQrTfrgAcHubRa0COw5KAUHobkqYfJGjzjMSdPuuLNLNnoVqNLYElgSWApmc1IcrfAUgNgKU9HFxGu5NWAvJIskIT3Ciw5MLDVgh6BJQel8DBEelj8ylJYLVpNXgJLAkuZgaUUg1oFqeUIUlWB8RCEOLyy1daX2vBCStFqQY/AkoNF8DBEeiiw5EHtur1Sp+G5SUEHPLjxKe9RrRbMCVTkrWFu75MelgO0CywJLBk+Jhy+9BFhNyOY1SiBJYGlrHQrznMFlty4JbDkxqe8RylILUeQKhCY98pxe1/S9ZViEdltwo6j1IbnwCgFqQpSHdQk8yHSQ+lh5krm8AKBJQcmNdlHaSsFKEmDHjcu5T9KdAks5a913d8oPSyHHqqypMpSpLLUZtZYo7cZM2aM6du3bxFsTdU5CFQIVBRBQVtND7VnqavWqbJUhFWoINVLBSbF8oBARTlAhRc9TNEEea0s9e7d24wdO7bwwffUqVPNjBkzzIoVK7qwvtrenjzpSmKTikxXEh0XXZ3cy1MPJa/uHGg1PRRYEljK7ICHJAYmcq+CbwXfKapTw4+SHpZDD3OpLPXs2dOCpf79+zescHncOGnSJNPe3m5WrlzpBJZEVx5Sqf4OyauTN9JD6WEWHKi2vgSW3MDS6NGjDbxifRb1IjE4fvx4s2jRom5TrJYhFl3+pCl5rea99FB6mDYHaq2vXMASBKHYgwcPNr169TJtbdRJinPBIP4mTpxoFi5caDo6OpzAkujyI0PJq+uBHNJD6WGaHKi3vgSW3MASHQkjR460HRU9evRIU0SpPAs5z5o1y0ybNs0sW7bMGSyJrlTYH/shklf3uEzrK7YaJb6hVfUwN7AESBo6dKjp169f4QDTggULzJw5cyxQilaV0KxqbXj8JroSr73YD5C8uoMl6WFsNUp8Q6vqocCSG1hiFAlCWtao0tRMEibps25Qk9Ff9ltVAko8slplKRZdDc4tyW2iqyuokLySaFPj90oPy6WHuYGlxlXO/521wJL/2TU+A9HVOO983Cl5+eB64+8sq7wEltzBUuPa4//OWmDJ/+wan8Eaa/Qxy5Yt7dZB0vgTi3FnmvLygN2rMjFNuoohqc5ZiK4iSaP+XASW6vOoZmXJ4fbCDilrMCe6CqtyFScmeTWXvASWBJaaS2O7zlZBanNJL1N5eUSFmdLlUcRlpUtgyUGpFMw5MKlAQySvAgnDYSqSlwOTCjREYElgqUDqGHsqZQ3mRFdsVfB6g+Tllf2xXy6w5MAy+s7pP12+vPteEYfbCztEdBVWNBUnJnlJXkXggMBSFbBkOgz/V5ZLwVxzSVLykryKwIGy6mGqYInDEaZMmWKWLl1aBJmlNochQ4aYuXPnVt0Im9qLcn6Q6MqZ4QlfJ3klZGDOt5dVXhzUM3DgwEKe8JaziO3r+Dbf/PnzKx4O5GM+abyTwyiCoKfSoUdpvMPHM0SXD643/k7Jq3He+bizzPIaNWqU6dOnTz22Pt3W3t7+mjFmu3oj+UDj4sWLS7N5EuGPGDHCnpYnuupJ3//vkpd/GcSZgeQVh1v+xwby4lTTon0Cwhd35s2bZ4/gLlPnAUEBMgYEii5fmuX+XsnLnVdFGCl5FUEK7nNAXsOHDze9e/eud5M7WKJdjQ+7VjuOtN6bivR7gJJhEtUy0dW4dPLYRyl5NS4fH3dKXvG5nsc6qjarsLwcnEZ84nK6I20e8t0Rqkt82LUMVRi+CUX1kO9DzZw5U3TlpJeNvkbyapRzfu6TvPzwvdG3BvLq37+/SzeFO1hiQhhYvlmEE+EDr9GPvDY66bzuIygIAgP2iZBhg2GiKy8JxHuP5NVcGyUkr3LIq+4qTRuV1H2hvwEkCanC0H0AYGo2nwfn8HH8DRgwwH4bqmfPnnavrjtdxRR4crr86VWtN4uuYsql2qwkr+aXlwMF8cASD8TI0p5ARSYATQ4vKsQQSm70a+MwohlU0VUIEXWZhOTVmZRolkvyKo+8mkXn8pjnkiVL7N5WABOta820JklgkBRkL1o0gyq68tCeeO+QvLS+4mlMNqNbUQ/rcNIdLOEgAEcApaDfuZmcBowAKPGH08CBkGETXdkstjSeKnnFA0q+87+SVzx5pbFGkjyjkrySPK+M91JNopuCP8BFs4ElfBx/VJX4I0lIICS6stLWZFZY8ioOWHKRZKry6vZClxlko8ep0pXNFBt6ajW6HB7mDpbYq8TeHpxGs4GkKCNgGMfkkm0DAIouB1XxOETy8sj8Bl5dTHkldzzFpKsBAUVuCdNFS4muTg7g54JDHvATzX4BlvB7ACbRVXxpSl7Fl1F4hpJX88rL4VAjd7A0e/Zse3Jc1GnwEowvDtfhhblyk+wZIK+So2O+HPBAawUtFqIrV9FUfJnkJT30r4XGZt1b1W6w+b9odtyXTqADH374YcVDjXr16mX4C/bpNTrH5BC+65uDTgkqYJUOpWCvLkHd9OnTM6WrUX5Uu090SV5p61Qjz5Melk8Pg32cdfTBDSzV+s4S1RlARxG/zwEQ4uhXDnCodEzqsGHDDCCw0gl/oqsRU5LsHslrWTcGSg+T6VQjd7eqHmLHCaQFljq1huoLXQfRRBqJNnwHTpZ9ekXiF36O0/sAQ5W+EUXrZXB0uOhqxDqke4/kNV/rK12VauhprayHfELI4RRYN7CEUeU7S9GP0tKyMW7cOGt8i3xNmDDBVo+i7YO0JOAQo0BKdPmVpuTVyX/pofQwCw5UW198bHfQoEEux6hmMa3CPZMkG/4hWqGBTyNHjnRxsMloSlB2ogtk8uTJFT8kT/UQX+6NrgRcEV2rmZebHkpe3TggPSyPHq633nrpfZQWMEE7QhQs0YYwduzYwoOlKVOm2OpSNJO25ppr2j1YUbAkuhJYxxRulbw6mSg9TEGZEjyi1fSQ5BE2kcqJLmM++ugje/prNMnGF98JVIvOp3fffdf6t+hFdYluCtFVLC2XvDrlwfpaZ8gQ06vgdkjyWi2vZraHuYAljO6YMWPsR+6KfAH0+LhgFBRVA0uiy680Ja9O/ksPpYdZcKDa+mpdsFS5hFMNLG2wwQa2Ba/oh2HEDeZEVxarzf2Zklcnr6SH7jqTxch33/2HWbhwgXOSpdnlJbAUErWCbwXfWRiVuM+UHkoP4+pMFuMFlty4KrDkxqe8RwlUtCCoSNCSmpV+Sg/LoYcCSwJL3SppqlRkZTbdniuwJLDkpinZjhJYcuOvwJIbn/IepSC1HEFqtXbQZq9UiK68LYLb+6rZDYElgSWBJbc1lNsogSWBpdyUrcaLBJbcpCCw5ManvEcJLAks5a1zld4nPSyHHgosCSwJLBXBokoPpYdNooetu2epsoAElgqmuP+ejoJU/0FqnK44ycu/vOKs5FaTl8CSglQFqXEsRA5jVVlSZSkHNav7ClWW6rLIDhBYcuNT3qNaLZhTW1feGub2PulhOUCgwJLAksCSm83LbZTAksBSbspW40UCS25SEFhy41PeoxSkliNIFQjMe+W4va/V1pfAksCSwJKbbchtlMCSwFJuyiawlJjVAkuJWZjJA3IL5uL0mqVAaW50pTDXOI8QXQK3cfQlq7E64MGBswpSFaQ6qEnmQ5pRD13ihWaky0XYrUaX9ix11QqBJZdVkv8YBd8KvvPXuu5vlB6WQw9VWfJZWXKJMFNY7a0WzOkjwikoTQaPkB6WIxkhsCSwpI/tZmAgHR+p4LscwbfaCx0VPudhqiw5MFzBXDmCOYElB2X3METrqxzrS2BJYElgyYMB/fcrBZYElvxp3+o3t5oeqrLks7KUk8YrSE0epOZUBLQTlbySyyunpdWS8hJYElgSWMrTwnR9V6sFqarA+NO1Wm9uNT0sBFiaP3+++eCDD8ySJUusbIYNG2ZGjBhhVqxYYSZOnGgWLVpkOjo6usiNMUOHDjWTJ0828+bN6/J7//79DV937tevn2lvbzezZ8826667rv3vWleWQerUqVPNjBkzVh2mAOOHDBlievbsafht6dKldo4YBq7FixebKVOmmOHDh5s+ffpY/sybP890rFzNh8GDB5vRo0evuqcabVnSFX4ndCxcuNCMGjVqFa+XL19uZchcCbKgd+XKlWbSpElWLsg4fIVlV89E5EUXOoQsli1b1mVKyBC6oKVHjx6G/w7kxz0LFiywehz8Wz16gt+zpCuqh7yTubNekAX7L9BD6OLfkd+//vUvK7ugYhdeq2E9rkdfmnTVW0/htca8evfubTbaaCMzYMCAimA0sDmMq8WjgC9hWluNLoGlZGAJ2x72a2GbF/0teFMtnxjWbXxoJZ9Zy1ekFfSUla6oXasmI3g8cuRIaz9q+YNevXp18X9xfB5zSUtetex14LerxVYLFy4w06bV9hXwIM6VB12B7NZZZx3DH/EIV6U4MRqXhmmJ4/eyoqveeiMuIUbGbweyQDfb2tps7Ilso3FNEAtU8nNRWTZMV88exnQN57vFhPX8ddinY/Ogq1J8Bp1gh2gM2ggI9A6WUMhf/epX5kc/+pHh/+faaaedzIknnmj69u1rbrzxRjN+/HgLNObMmWMDOf79sMMOM/vvv7/5+te/bt577z0zaNCgVYE4xufKK680n/rUp8yjjz5qnnjiCXPFFVeYrbbaapXSVGJWmkFPFER897vfNS+//LIFRQj3wAMPNMcdd5wNUm+++WYrzMsvv9xsuOGG9tZ33nnHXHXVVeacc84xY8eONaeddlo3Otdff31L1+abb75q0edJV/hdLFxk9frrr5urr77abLvttganMHPmTCtLZHXkkUfaIBz677jjDvPiiy+aWbNm2WCcRc1vm222mbn00kvNmDFjasqKd2clrygPH3zwQXPrrbfagBvdw9hwnX322VZXkREA8JZbbrHzx+BwzyuvvGIuvPDCVTJ1dRxZ0nXDDTeYhx56yLBGAOFcgLlLLrnEAnLkAl1HH320NbLI79xzzzWHH364+dznPmd+85vfmHvvvdfKDTB46KGHmpNPPtmCwoAv1ehMiy4MY731FKWROWEr9tprL0tj+Hd0Fzmef/75ZuONNzY33XRTNx5hm04//XRzxBFHWOCYBVhqFroElhoHS+jaSy+9ZL73ve/ZAA1bge/Chuy6667WFp566qk2kcS/BwmLHXfc0a5DbCe+IPw7PgWbuffee9v7TznllG73k8C65pprzBZbbNHNVzQc9ISC4bLSVcmW4ZujPGbczjvvbI4//njrx2v5A+ztbbfdZt544w0rz3C84pJYS0Ne9XxR4LfDsRX3bLLJJlbXfv/731t/V81XYGehK86VB13EYMjnC1/4go1LAExc+OtonIh8iM1IyAcJbcAwfhO699tvPzNw4MC6JGZBl8t6w5+hp/vuu+8qWeD/8dMnnXSSef7557vFNdgS/DnxddTPpQaWIiCatfLPf/7T3H777ebvf/+7TdqyDrCD++yzj/n5z39uHn/8cWsv33//fRsnIjcSSMSab731lvn2t7/dJT7DXwexCXEo9IZj0KYDSzDpqaeeMt/5znfMBRdcYIMxBEmwgjKceeaZBkDAv1VS5mqBOEAJZp911lnmhRde8AqWoPHaa6+14AfBbrrpptahnXHGGWaPPfawC/b73/++E1iKAo6LL77YbLnlljaQpS0i6yC1loK99tpr5v777zfTp083Bx98sDnggANWBdtRsBR+Dnw577zzui3quhYoZ7BUDXCjgxgkFiw6fNRRR1kjU2SwFAXmAa8DUAiAB/gSWBGUBWCJgI2kBkAfgP7mm2+ayy67zALC3XbbbRX4ylIPG11PJE0Aesz1pz/9qQWGQXJiwoQJFigde+yx1gH+x3/8R7f1iLEGYEHv1ltv3SXgTAMENhNdAkuNg6W3337bgm5sIgEJgOiuu+4yzz77rE2OEWAC6sNBDokJbORBBx1kq6Pobfj3O++809ofdJNgJxokkWTE3+yyyy7mmGOO6eYrkgVznQ3K5aOrugeq5bNc/MFf//pXG/gRsFPpJl4BFBOAk72udyWTV72nd/5eKbYK31nPVxQRLFEtu/76622nEvRddNFFFvwFyc1aSXVARjW/WY+jWcirkfXGPKNgKUozCV4SkdigqJ/LCiwhi2984xs2biKGIrEDUL3uuusscCNOJkldTScrYYNXX33VritkTAIbm9vUYAkjTvAybtw4i/yoLnChlPfcc48NPAEDIENXsETQQeYbg4bT+J//+R+vYInMEUID/FFJ2mabbSyQA1gQZOE0H3jggdhgiYWPcwUkffWrX7UoO8sgtZZBgOfQgKOm1RHgRIBNRQynkBVYmvbhh2Z6qLUxmGPaBzxU0r3gXUHlhWwT1U+ybttvv7155JFHCltZqgWWnn76aUsHGR30lUQFgRqAPOoAp02bZoM2wDGBH3yvdaUBKhpdTwSjDz/8sDWejz32mE1YBGAJO4Sx3n333S3IJ3kT5RE6TSYVm7LDDjtYmxRcrUaXwFLjYAknDqihcovzpk0EXSSryjriv6nyhsFQ4CdJSOD4sfvh39FtdBrd5CLgCP9ez1ekEcyVla5K9qweWML3xfEH+M7nnntuVZdIvfa1NORVL8B3AUtxfEW99/F71nRRISIJSMUBX7Dnnnuuqg7V8vEByCgSWGpkvbmApVp+Ll2wtHoXOPaLSjtdUmHfSoxM/IFdpJIUBywha+wgMQxdTl/72teaGyxhdABLlNsIxGrtKaoFlmAGik9JlGAK4wMqJlP8zDPPeAVLKBhzuPvuuy1IwonRshTuIf//7Z3Pqx7VGcfPm2tMTMRUbqJWhELjoitpAtmYEijuA67qQrD9B7po1+3KpYtulaKgKxcBibTgqpQQFwouJNSFgSKIoiS5eDUa9CbTfiYec+68M+88877nzJyZ+b4grd75cZ7v85xznu95fkzdqUVdGl4oJxsoz8RJbQsHx3DmVi12jAUZcLAht35BIg2ScGhMshQ2Wkgtl5cZ2yOq8MILL5QEkAnsawh2d3dLYki05b333itPBjm9JcTNv+eYhscpNLKQUsDP51+zgXCyxEnOW2+9VertySefLIlElSxBkC9fvuw41Wb+njt3rjz9SU2WrPOpKiP6Y/6xaLI+hH9nE3z77bfLvz311FMlKarejz5JAYA4YgOhQxPLDi3rRA5yiSytT5ZYK8k0uHTpUrk/kf7pa1bYEz7++OMywkDqDGldzCnsk7nJgSI1rBD+8O/YNunbv3vuOXf92rWl+9v2ihhOakq5ODTlAKeKSx9yNZGl6li8DklNZo2w7gfsjy+++GL5GlIxOVVv+8XQV9s7vGMa+hxhHQnReete0fYu//fUcuGUk4ZHtOL9998vD9Rxptn/xkaWLPOtLmOnGlmq+jWr9rm4ZOne0xgTaY5kSpFJ1vRbRZaqcrBPsp/if/FMfJRRR5YwVk53SZd7+umnVxbCryJLPq+WAi9O6c6fP1+mvFkmQaiYWE5PnbK9cVPTQwQGBeKEQuqoh+las8Q7OCEhR9rn3TYZWUq5eCenEYRuOZWn5oNULdK02OQorotJlvrSV/ieupoljz3y+TQ1HBly0VmMKZz88MMPsyRL1Xoen39NSJ4NkPnIZkg0lDqzl156qazV8ZGlMMcYcozT12aD4BnTDtvmU1VGn2tPLVy1Jgl5nn322Z/SnJiP/n4cBAplOeDg9Ov06dP7okpzlEtkaX2y5O9kI3/llVdKEsB+wOEFc4x/r9YscY+fo5ysX+n9AAAPY0lEQVSYVutlcLC5nzQ71p3wfhru8N+4n1Q8IlepnB5/kDFFuULM6mqW/PoC4SXCx+FS237g67VZd3HqfJ1vG7lITSp4f13NEms8fhUHSm+++aZpr2iTJfx7Srl8dJXsh7Nnz5byXbhwoSS2ZPsgz5jS8CzryDo1S6GOw+yJOj3G0hdkCd+dVDl/gFv3vlVkKawpx8/gx0HuM888U9ZWr/JBrevhoA0efK0ACwv52L5YDsNmgWdh58TGWrNEfQUpDmwaPJP7cfqGbPBQJ4tPJfJ1VW+88UZZ4EYKl2/wQE4q6RYYPKf7FPVamXFV+TGd1OqzkY+USRYbCvPoLsN/gwySc4oOIA9NY59CzZInS5AJiCIODWkY1G9xCux1at04UuprVe51WGfFWNkYiRjRgAVnDPmwWRZJdE69BcSKpiuWXwy5LPOJ8P2qlIkqBtX5GN7P4g25IoLIHGQu+g5KXua5ySWytD5ZIi0ZxwCnBCLOL8yvJxWdQ7RqYbZ/Y916uep+5irrMGl/RKOYs1bnoEvL5qnKVbeuWdLwfCS+aT8AL07xiRjiJFoi834ssZzUVWu2JQ3PNzBq2ityavDAgTppWazVkAB8Ssgqhwhk55BZMCay1Dbf2LdYRyjR8A0efF0s8xqfDPuz+sYpyRKkhgN30vDYX32jqKqM1jQ8ynCIIOKbQOzZu0dPlnBSKLiD+SEYUQl+EAUiFTgnsP4uNUs0jAB8HFhYJacHVoOI4fRUjYoTcGqWSFGjgQULiCcYdPnjRAnFEiLm/5OTzg85aPwAYQKXLmHEPskSxIDFns2B03k2Y1+Q7FNF0MVcyBIECcLO/3LiS8rNGMkSY3755ZdLOyRETgSYVFcOOEizJH3IEtUMbTHG/LLMp9dff70TWarWOVbvh3hhw6RFsehW6wPnJpfI0vpkiUYhNEYh/Yd1nXROHDnqlJhPfAqCQ7MuZCnMz6+7389jnktNgCdpMZ3vqcq1KVmq2w84QCQV+N133y0P07yPYzlw4prcyFLdXkFnxlzIkl/fSRtnDtBki3lH0x9qxdABxO/ixYuNXZNza/DQNt/IgEBWUurxy3xnW+9jQpbeeecds28c2qYvhYhlh2Rb4eeGxA4iC+lhrSJDiUMkK1miJTo6pawHgkwTldF3w0MBvusFxat024JVspAADqzfn1pbGzxUCRgLElGPsN6k6bsGMZyeugWPk2oMgvRAHC2fa03qIRsknbk4/WvCgJOALsy4T7JUV5znT+qJNJGiRcvaU6dO/VRXxvh8nQyEsUs3vKFqllZ1wwsjS9gWBIOoDClfpOWNlSxhpyw6LKrIQWtjiKBv3e9T76zfnIg1v9rmU113yXBOsPGFtT/VOse6+zl5hERxqANpClv8zk0ukaX1yRLEG/tjPeQfItCc8BIdYq4xt6rd8MK3EdWo1suE+fk4CNX7mcesUTiJOCTVNv8xnJ6pyrUpWarbDz766KPSBtAFafgcBnf51lIMfbURsy6RJfa36l5BSv7aZKnyBfguEc46uZoaifkmCcwn1nDqdJv8xNzIUtt849CdoAH+Fan0pISyTkAQ2cPwNbsEElJGlth/aXCzaqxdu+GFBOzMmTOlzGH9XeiDVjNFmubXoGl4XgFhP3v+G84I6Wdheg853nyfAkbsv8Hj6xZIu+Mkw6fx8Tz6rnN6B0PFySEX3P/C+oUUhdpNhImORYQE+VXrjVZh0CRn24Ln/x7LmWuSy3f1q+qLyfj888+XPfKp3yGi5n8+B59F2XeCgjy2NQmIHamwYFhne/4+dENND1EXoi2M339HipofoqPWNLUh9cW7kfPKlSulzvyYw7lES3GaH7CohR+Jtn5zIqYdQpia5lPYabIO++q91TWn7n4/B2nuQEpTWKM1N7lEltYnS9yJo0PE2c+jsE6AKNGq9bB6L8/z30njMIMOlXX3M7dZj/kcB6kpYT1CLOd7qnJV9wjkbNKRZT+gi1y4dvH8Jp8kpZO6au9r8zna9gpssctezlhi2aFVX+GaTldhvudT6yee/KV77dXXfupe3HU/TylX0zrC/A6/Z0m79HCdQDer/BqLXxRTrraxMp4mm6yTI/TBiExRRwmBqvNBq9/KyposWRTTxzUxnZ4+xmt9h+S6ixSLBUS76yJuxTnWddKX9BXLljZ5TpMdiixtRpY20UmKe2M6PSnGt+4zJddd5Djkggy0tSRfF+dY90lfI9VX5EhgLHta9zkiSwbk5KTKSTWYSfJLZIeyw+RGZniByJIBJOfcl19+WdbdhtHWdE5qxTOxDXHlVXJSR+qkVrS6abpaBFPa6BGyQ9nhRgYU6WaRJQOQclLlpBrMJPklskPZYXIjM7xAZMkAUu9kyTamLlfJSZWTuspe4tPz+rfJDmWHXdatVNeKLBmQHdRJTbgiDSqXAfd1L5FcIhXr2k7M++Zmh0rD2289/UaWYlru3WfJSZWTGt+quj9Rdig77G418e8QWTJgOjenh3aSfLQwLHoDJtX2GIwl4SWyQ5HAhOZlfrQiSzaoRJZsOPV9lZxvOd9921zd+2SH07DDLLrh5WDQjEFOqpzUHGwxhR0mDFyaIUshl/nlCS+cm1yKLCmypIYBCReUlkfL+Z6G860as+Hm0Ko3K7Jk0MvcnB5FlgxGMcAlqe1wKOKUWq4BVFW+cm5yiSyJLIksDbXaKG3SI68uf8PZIG8ekrSn9GFElgx2NTenR2TJYBQDXCI7VIRzALNbeqXS8GxaUBqeDae+rxrSmUspq+RSZCmlfVmfPRk7rDAvkSWDBchJlZNqMJPkl8gOZYfJjczwApElA0jqhmcDaYCr+nXmUp517wevX7n6U5zkmiEJ7G/amA1ZZMkAlZxUOakGM0l+iexQdpjcyAwvEFkygCSyZANpgKvkfM/J+c7Q6/7R5mWH07BDNXgIFnE5qXJSB9jTl14pO5Qd5myHqlnarx2l4eVgrctjkJM6DSdVjRA0v/pEQJElA9pyUuWkGswk+SWD2mHCA7pB5VrSWjxBN5Yr3lCi2qYiSzY4RZZsOPV9lciSyFLfNlf3PtnhNOxQkSVFlvSdpRxWVNmh7HAkdqjIkiJLZTe8rQPOFZkZbTAcOanTcFIVWcpzjs1tfvVClg4ePOhOnjzpDh8+nKfWfxzV559/7q5du+Zu3769b5xNXeMk17DqlL7u4i87lB2mQKBpfoksiSypdXiKGWd75tycVJElm130fdXc7LAXsrS1tVWSpSNHjvStz07v+/TTT92NGzfcnTt3TGRJcnWCN/rF0tddSGWH0U2r0wPnZociSzay9MQTTziwYn7m+uNg8OrVq+67775bGmKTkyq5htOm9HUPe9mh7DA2AqvmVy9kCYEw7GPHjrn77rvPLRYk6efzAyD++eSTT9y3337rimJ/bkFTZElyDaND6WtvCXjNr/5tca52KLJkI0vsG4899liZUXHgwIH+DbTljdjvzs6O++KLL9wPP/xgJkuSaxhVSl/LfpnmV/+2OFc77I0sQZKOHz/uHnjggewI082bN91XX31VEqVqVAlTXEWWJFf/k1X6WiZLskPZYSwE2uaXyJKNLHEVB4SkrBGlye2QED3TnKKOKDH2psiS5Io107o9R/paLpDT/OpmQzGunqsd9kaWYihpqGesIktDjSnGeyVXDBT7e4b01R/WMd40VX2JLNnJUgw7GuoZq8jSUGOK8V7JFQPF/p4hffWHdYw3TVVfIksG65iq0yO5DMrP6BLpKyNlGIYyVX397OGH3bGHHsq6FsegnmiXNLUOj/YC/6CeW8xP1emRXNEtM+kDpa+k8EZ/+FT1JbJkMJWpOj2Sy6D8jC6RvjJShmEoU9WXIkuKLBnMP9tLpurMSa5sTa52YNLXuPQlsmTQF3mx5Gnu7S3Xihhuz/YSyZWtamoHJn0FsPR8yr6OpUxVXyJLIkvrzIdc7pGTmosmbOOQvmw45XLVVPUVlSzRHOGzzz5z33//fS56izKO7e1tt7u721gIG+UlAzxkvnKNwNOusYf56muAyRHhlVPVF416HnzwwSw7vEVQW+dH8G2+b775prY5UOeHZXIDzSi801PX9CiTYXYehuTqDNmgN0hfg8Lf+eVT1tfjj//cHTrU+q3Yfy5u3LjxgXPuVBt6fMjw1q1bS+232+7L9e8o/9FHHy275UmuXLV0b1xVfbmiyPkj82ZAZYdmqLK4cOr6oqtpc3e3cR5GrGs4X3/9ddmCe0qZB4cOHSo710ICJde6ltHffdJXf1jHeJP0FQPF/p6Bvh555BF38ODBtpfayRLpanzYtakdadubcvq7Z8mARLRMcuWkneWxSF9566c6OulrZPpyC3f/ofutm8a4hNtgtHx3hOgSH3adQhSGb0IRPeT7UNevX5dcG9jG/lvTHCJIX9EU1MuDpK9eYI72Eq+vI0eOWLIp7GSJEbLA8s0iNhE+8Fr9yGs0KdZ6UPuChRPnHTnqDjhhA7C85WoHQ3Itf6ehHbXhrpC+pK/hrO/em5vsMIex5TIGDgmJwpB9AGHKa8+zocQexz9Hjx4tvw21tbVV1upKLht+fV8lffWN+Gbvk742w6/vu+v0ZRhDN7LEA9k0IExEmMYWxidXm4980s2KDSP8SS6DufR8ifQ1rsYj0td09NXzVM/6dWQfQC7437HteQBLJInTU1JOcBT8T3LlaXbSV556aRqV9DUNfbVI0Z0sjQsWjVYIjASB9sDoSATRMIWAEBACQkAICAEhMBkERJYmo0oJIgSEgBAQAkJACAgBISAEhEBMBESWYqKpZwkBISAEhIAQGAUCimaPQk0apBAQAoMjILI0uAo0ACEgBISAEBACGSMwB141BxkzNjENTQjkjMA/zN9ZylkKjU0ICAEhIASEgBAQAkJACAgBIRATgaIoLix2dnb+XRTFWefc/vZwMd+kZwkBISAEhIAQEAJCQAgIASEgBEaEwGKx+Btk6a9FUfzRObc9orFrqEJACAgBISAEhIAQEAJTR0A5klPXcM7y3SyK4g+QpV845/5eFMU559z9OY9YYxMCQkAICAEhIASEgBAQAkJACCRGYG+xWFx0zv0Jvu7+n4r326Io/uKc+7Vz7phz7t6X6xKPRI8XAkJACAiBYRDQge0wuOutQkAICAEhkC0CxWKx2CmK4j937tz58/b29gclWeK3u7v7q729vd87537jnDuarQgamBAQAkJACAgBISAEhIAQEAJCID4Ct5xz/9rb23v1xIkT/10sFrf/BxRp7oZXrrBoAAAAAElFTkSuQmCC;" parent="1" vertex="1">
          <mxGeometry x="40" y="590" width="752.89" height="259" as="geometry" />
        </mxCell>
        <mxCell id="Kq7YaeAKi1D6zh4hDfzu-127" value="&lt;h3&gt;Design Layout Considerations&lt;/h3&gt;" style="text;html=1;align=left;verticalAlign=middle;whiteSpace=wrap;rounded=0;" parent="1" vertex="1">
          <mxGeometry x="40" y="880" width="210" height="40" as="geometry" />
        </mxCell>
        <mxCell id="Kq7YaeAKi1D6zh4hDfzu-128" value="The layout will use 1U keycaps as make it all of the keys are modifiable as possible. This restriction was put to limit the design to use 1 PCB design. By using 1U configuration, it was able to follow the strictly the Ortho-Linear layout. However some of the keys are repeating to accommodate the&amp;nbsp;" style="text;html=1;align=left;verticalAlign=top;whiteSpace=wrap;rounded=0;" parent="1" vertex="1">
          <mxGeometry x="40" y="920" width="760" height="60" as="geometry" />
        </mxCell>
      </root>
    </mxGraphModel>
  </diagram>
  <diagram id="csxInYuHkWj5LXRYi8tP" name="Outline">
    <mxGraphModel dx="1900" dy="5055" grid="1" gridSize="10" guides="1" tooltips="1" connect="1" arrows="1" fold="1" page="1" pageScale="1" pageWidth="850" pageHeight="1100" math="0" shadow="0">
      <root>
        <mxCell id="0" />
        <mxCell id="1" parent="0" />
        <mxCell id="FuiVWwPNK_bJLyjCbi_3-1" value="&lt;div style=&quot;line-height: 100%;&quot;&gt;&lt;p&gt;&lt;br&gt;&lt;/p&gt;&lt;br&gt;&lt;hr&gt;&lt;br&gt;&lt;h3 style=&quot;line-height: 100%;&quot;&gt;&lt;strong&gt;1. Executive Summary&lt;/strong&gt;&lt;/h3&gt;&lt;ul&gt;&lt;br&gt;&lt;li&gt;&lt;strong&gt;Product Name&lt;/strong&gt;: [Product Name]&lt;/li&gt;&lt;br&gt;&lt;li&gt;&lt;strong&gt;Product Description&lt;/strong&gt;: A brief overview of the keyboard, including its purpose, key features, and target audience.&lt;/li&gt;&lt;br&gt;&lt;li&gt;&lt;strong&gt;Goals &amp;amp; Objectives&lt;/strong&gt;: Define the objectives the product aims to achieve, such as user comfort, durability, or innovative features.&lt;/li&gt;&lt;br&gt;&lt;li&gt;&lt;strong&gt;Timeline&lt;/strong&gt;: Estimated timeline for design, prototyping, and release.&lt;/li&gt;&lt;br&gt;&lt;li&gt;&lt;strong&gt;Budget Estimate&lt;/strong&gt;: High-level budget allocation.&lt;/li&gt;&lt;br&gt;&lt;/ul&gt;&lt;br&gt;&lt;hr&gt;&lt;br&gt;&lt;h3 style=&quot;line-height: 100%;&quot;&gt;&lt;strong&gt;2. Market Research &amp;amp; Analysis&lt;/strong&gt;&lt;/h3&gt;&lt;ul&gt;&lt;br&gt;&lt;li&gt;&lt;strong&gt;Target Audience&lt;/strong&gt;: Define who the keyboard is designed for (gamers, professionals, casual users, etc.).&lt;/li&gt;&lt;br&gt;&lt;li&gt;&lt;strong&gt;User Personas&lt;/strong&gt;: Create personas representing different types of users and their needs.&lt;/li&gt;&lt;br&gt;&lt;li&gt;&lt;strong&gt;Competitive Analysis&lt;/strong&gt;: Research and analyze similar products in the market.&lt;br&gt;&lt;ul&gt;&lt;br&gt;&lt;li&gt;&lt;strong&gt;Strengths and weaknesses&lt;/strong&gt; of competitors&#39; keyboards.&lt;/li&gt;&lt;br&gt;&lt;li&gt;&lt;strong&gt;Differentiation&lt;/strong&gt;: What makes this keyboard unique?&lt;/li&gt;&lt;br&gt;&lt;/ul&gt;&lt;br&gt;&lt;/li&gt;&lt;br&gt;&lt;li&gt;&lt;strong&gt;Market Trends&lt;/strong&gt;: Identify current trends in the keyboard industry, such as mechanical switches, wireless functionality, or customization.&lt;/li&gt;&lt;/ul&gt;&lt;br&gt;&lt;hr&gt;&lt;br&gt;&lt;h3 style=&quot;line-height: 100%;&quot;&gt;&lt;strong&gt;3. Design Requirements&lt;/strong&gt;&lt;/h3&gt;&lt;ul&gt;&lt;br&gt;&lt;li&gt;&lt;strong&gt;Functional Requirements&lt;/strong&gt;:&lt;br&gt;&lt;ul&gt;&lt;br&gt;&lt;li&gt;Key types (mechanical, membrane, optical, etc.)&lt;/li&gt;&lt;br&gt;&lt;li&gt;Key layout (standard, ergonomic, compact, etc.)&lt;/li&gt;&lt;br&gt;&lt;li&gt;Connectivity (wired, wireless, Bluetooth, etc.)&lt;/li&gt;&lt;br&gt;&lt;li&gt;Special keys (macro keys, media controls, etc.)&lt;/li&gt;&lt;br&gt;&lt;/ul&gt;&lt;br&gt;&lt;/li&gt;&lt;br&gt;&lt;li&gt;&lt;strong&gt;Non-Functional Requirements&lt;/strong&gt;:&lt;br&gt;&lt;ul&gt;&lt;br&gt;&lt;li&gt;&lt;strong&gt;Ergonomics&lt;/strong&gt;: Comfort for long typing sessions, wrist support.&lt;/li&gt;&lt;br&gt;&lt;li&gt;&lt;strong&gt;Durability&lt;/strong&gt;: Expected lifespan, build materials.&lt;/li&gt;&lt;br&gt;&lt;li&gt;&lt;strong&gt;Aesthetics&lt;/strong&gt;: Color schemes, customizability (RGB lighting, keycap designs).&lt;/li&gt;&lt;/ul&gt;&lt;br&gt;&lt;/li&gt;&lt;br&gt;&lt;li&gt;&lt;strong&gt;Size &amp;amp; Form Factor&lt;/strong&gt;:&lt;br&gt;&lt;ul&gt;&lt;br&gt;&lt;li&gt;Full-size, tenkeyless, or compact.&lt;/li&gt;&lt;/ul&gt;&lt;br&gt;&lt;/li&gt;&lt;br&gt;&lt;li&gt;&lt;strong&gt;Customization Features&lt;/strong&gt;: Programmable keys, customizable keycaps, switch options, etc.&lt;/li&gt;&lt;/ul&gt;&lt;br&gt;&lt;hr&gt;&lt;br&gt;&lt;h3 style=&quot;line-height: 100%;&quot;&gt;&lt;strong&gt;4. Conceptualization &amp;amp; Ideation&lt;/strong&gt;&lt;/h3&gt;&lt;ul&gt;&lt;br&gt;&lt;li&gt;&lt;strong&gt;Brainstorming&lt;/strong&gt;: Sketch out multiple ideas for layout, design, and features.&lt;/li&gt;&lt;br&gt;&lt;li&gt;&lt;strong&gt;Initial Design&lt;/strong&gt;: Develop initial design concepts or wireframes.&lt;/li&gt;&lt;br&gt;&lt;li&gt;&lt;strong&gt;User Feedback&lt;/strong&gt;: Gather early feedback on the concepts from potential users or focus groups.&lt;/li&gt;&lt;/ul&gt;&lt;br&gt;&lt;hr&gt;&lt;br&gt;&lt;h3 style=&quot;line-height: 100%;&quot;&gt;&lt;strong&gt;5. Prototyping &amp;amp; Iteration&lt;/strong&gt;&lt;/h3&gt;&lt;ul&gt;&lt;li&gt;&lt;strong&gt;Prototype Development&lt;/strong&gt;:&lt;br&gt;&lt;ul&gt;&lt;br&gt;&lt;li&gt;Create an initial prototype to test the design.&lt;/li&gt;&lt;br&gt;&lt;li&gt;Choose the material and components (plastic, metal, switches, etc.).&lt;/li&gt;&lt;/ul&gt;&lt;/li&gt;&lt;br&gt;&lt;li&gt;&lt;strong&gt;Testing&lt;/strong&gt;:&lt;br&gt;&lt;ul&gt;&lt;br&gt;&lt;li&gt;Conduct usability tests to assess comfort, functionality, and user experience.&lt;/li&gt;&lt;br&gt;&lt;li&gt;Conduct durability tests (e.g., keypress longevity, wear and tear).&lt;/li&gt;&lt;/ul&gt;&lt;/li&gt;&lt;br&gt;&lt;li&gt;&lt;strong&gt;Iteration&lt;/strong&gt;: Based on testing feedback, refine the design to fix issues or improve features.&lt;/li&gt;&lt;br&gt;&lt;/ul&gt;&lt;br&gt;&lt;hr&gt;&lt;br&gt;&lt;h3 style=&quot;line-height: 100%;&quot;&gt;&lt;strong&gt;6. Manufacturing &amp;amp; Production&lt;/strong&gt;&lt;/h3&gt;&lt;ul&gt;&lt;br&gt;&lt;li&gt;&lt;strong&gt;Materials Selection&lt;/strong&gt;: Choose high-quality materials for keycaps, housing, and switches.&lt;/li&gt;&lt;br&gt;&lt;li&gt;&lt;strong&gt;Manufacturing Process&lt;/strong&gt;: Outline the process of production (injection molding, PCB assembly, etc.).&lt;/li&gt;&lt;br&gt;&lt;li&gt;&lt;strong&gt;Supplier Selection&lt;/strong&gt;: Identify reliable suppliers for components (switches, keycaps, PCB, etc.).&lt;/li&gt;&lt;br&gt;&lt;li&gt;&lt;strong&gt;Quality Assurance&lt;/strong&gt;: Ensure the product meets quality standards through testing and inspection.&lt;/li&gt;&lt;br&gt;&lt;li&gt;&lt;strong&gt;Packaging&lt;/strong&gt;: Design eco-friendly and user-friendly packaging.&lt;/li&gt;&lt;br&gt;&lt;/ul&gt;&lt;br&gt;&lt;hr&gt;&lt;br&gt;&lt;h3 style=&quot;line-height: 100%;&quot;&gt;&lt;strong&gt;7. Marketing &amp;amp; Launch Plan&lt;/strong&gt;&lt;/h3&gt;&lt;ul&gt;&lt;br&gt;&lt;li&gt;&lt;strong&gt;Branding&lt;/strong&gt;: Develop a brand identity and positioning for the keyboard.&lt;/li&gt;&lt;br&gt;&lt;li&gt;&lt;strong&gt;Launch Strategy&lt;/strong&gt;:&lt;br&gt;&lt;ul&gt;&lt;br&gt;&lt;li&gt;Pre-launch marketing (social media, influencer collaborations, teaser campaigns).&lt;/li&gt;&lt;br&gt;&lt;li&gt;Launch day events or promotions.&lt;/li&gt;&lt;br&gt;&lt;/ul&gt;&lt;br&gt;&lt;/li&gt;&lt;br&gt;&lt;li&gt;&lt;strong&gt;Sales Channels&lt;/strong&gt;: Decide on distribution (direct-to-consumer via website, third-party retailers, etc.).&lt;/li&gt;&lt;br&gt;&lt;li&gt;&lt;strong&gt;Pricing Strategy&lt;/strong&gt;: Determine the price point based on competitor analysis, cost of production, and target audience.&lt;/li&gt;&lt;/ul&gt;&lt;br&gt;&lt;hr&gt;&lt;br&gt;&lt;h3 style=&quot;line-height: 100%;&quot;&gt;&lt;strong&gt;8. Post-Launch &amp;amp; Maintenance&lt;/strong&gt;&lt;/h3&gt;&lt;ul&gt;&lt;br&gt;&lt;li&gt;&lt;strong&gt;Customer Support&lt;/strong&gt;: Set up a customer support system to handle inquiries, returns, and warranty claims.&lt;/li&gt;&lt;br&gt;&lt;li&gt;&lt;strong&gt;Feedback Collection&lt;/strong&gt;: Continuously gather user feedback to improve future iterations.&lt;/li&gt;&lt;br&gt;&lt;li&gt;&lt;strong&gt;Updates &amp;amp; Improvements&lt;/strong&gt;: Plan for potential product updates, feature additions, or new models based on customer needs and market trends.&lt;/li&gt;&lt;/ul&gt;&lt;br&gt;&lt;hr&gt;&lt;br&gt;&lt;h3 style=&quot;line-height: 100%;&quot;&gt;&lt;strong&gt;9. Risks &amp;amp; Mitigation&lt;/strong&gt;&lt;/h3&gt;&lt;ul&gt;&lt;br&gt;&lt;li&gt;&lt;strong&gt;Potential Risks&lt;/strong&gt;:&lt;br&gt;&lt;ul&gt;&lt;br&gt;&lt;li&gt;Supply chain issues.&lt;/li&gt;&lt;br&gt;&lt;li&gt;Delays in manufacturing or production.&lt;/li&gt;&lt;br&gt;&lt;li&gt;User dissatisfaction with design or functionality.&lt;/li&gt;&lt;br&gt;&lt;/ul&gt;&lt;br&gt;&lt;/li&gt;&lt;br&gt;&lt;li&gt;&lt;strong&gt;Mitigation Strategies&lt;/strong&gt;:&lt;br&gt;&lt;ul&gt;&lt;br&gt;&lt;li&gt;Develop contingency plans for supply chain disruptions.&lt;/li&gt;&lt;br&gt;&lt;li&gt;Ongoing user testing and iterative design to minimize dissatisfaction.&lt;/li&gt;&lt;/ul&gt;&lt;/li&gt;&lt;/ul&gt;&lt;br&gt;&lt;hr&gt;&lt;br&gt;&lt;h3 style=&quot;line-height: 100%;&quot;&gt;&lt;strong&gt;10. Conclusion&lt;/strong&gt;&lt;/h3&gt;&lt;ul&gt;&lt;br&gt;&lt;li&gt;&lt;strong&gt;Summary&lt;/strong&gt;: Recap the key goals, features, and milestones for the keyboard design.&lt;/li&gt;&lt;br&gt;&lt;li&gt;&lt;strong&gt;Next Steps&lt;/strong&gt;: Outline immediate next steps post-approval of the design plan.&lt;/li&gt;&lt;/ul&gt;&lt;br&gt;&lt;hr&gt;&lt;p&gt;&lt;br&gt;&lt;/p&gt;&lt;/div&gt;" style="text;html=1;align=left;verticalAlign=middle;whiteSpace=wrap;rounded=0;" parent="1" vertex="1">
          <mxGeometry x="-740" y="-4350" width="630" height="2490" as="geometry" />
        </mxCell>
      </root>
    </mxGraphModel>
  </diagram>
</mxfile>
